<?xml version="1.0" standalone="no"?>
<!DOCTYPE svg PUBLIC "-//W3C//DTD SVG 1.1//EN" "http://www.w3.org/Graphics/SVG/1.1/DTD/svg11.dtd" >
<svg xmlns="http://www.w3.org/2000/svg">
<metadata></metadata>
<defs>
<font id="edwardian_scr_itc_ttregular" horiz-adv-x="978" >
<font-face units-per-em="2048" ascent="1638" descent="-410" />
<missing-glyph horiz-adv-x="362" />
<glyph horiz-adv-x="0" />
<glyph unicode="&#xd;" horiz-adv-x="362" />
<glyph unicode=" "  horiz-adv-x="362" />
<glyph unicode="&#x09;" horiz-adv-x="362" />
<glyph unicode="&#xa0;" horiz-adv-x="362" />
<glyph unicode="!" horiz-adv-x="587" d="M162 35q0 41 43 82t86 41q39 0 39 -41q0 -45 -41 -86t-84 -41t-43 45zM319 231q0 2 13 21q102 150 332 676q59 133 98 184t84 51q57 0 57 -59q0 -47 -229 -363q-250 -346 -332 -508q-6 -12 -14 -12t-9 10z" />
<glyph unicode="&#x22;" d="M846 834q31 106 74 315q35 168 98 168q39 0 39 -49q0 -39 -45 -125q-115 -217 -148 -309h-18zM1016 834q14 49 74 315q35 168 96 168q39 0 39 -47q0 -31 -13.5 -61.5t-99.5 -196.5q-57 -113 -80 -178h-16z" />
<glyph unicode="#" d="M315 387q35 41 58 96l245 -8q20 39 91 189h-56l-139 -7h-43q41 53 57 97l27 -2h139l54 -2q78 180 100 260h106q-49 -82 -149 -260h108q39 0 68 2q78 186 98 258h97q-41 -55 -148 -258q45 -2 98 -2q94 0 164 2q-35 -43 -53 -95q-80 4 -254 9q-70 -125 -100 -189 q76 2 250 6q-41 -55 -56 -92q-92 2 -237 6q-57 -109 -138 -264h-36q68 115 145 264h-80q-39 0 -123 -2l-145 -262h-31q18 39 78 141q20 35 63 119l-59 -2zM651 475h152l49 2l94 189q-31 2 -67 2h-31q-27 -2 -51 -2h-39q-43 -72 -107 -191z" />
<glyph unicode="$" d="M279 168q0 90 101 168t216 78q12 0 14 -4q0 -6 -22 -11q-94 -18 -157.5 -87.5t-63.5 -151.5q0 -90 56 -141.5t157 -51.5q135 0 234 72t99 172q0 53 -27.5 87t-153.5 128t-126 192q0 117 122 210.5t276 93.5q23 0 43 -2l153 290q12 23 21 23q10 0 10 -12q0 -4 -8 -25 l-154 -281q164 -32 164 -147q0 -76 -69.5 -127t-172.5 -51q-133 0 -133 96q0 39 40 87t73 48q8 0 8 -6q0 -4 -4 -4q-100 -45 -101 -123q0 -80 91 -80q66 0 133 63.5t67 127.5q0 109 -151 108q-113 0 -207 -72.5t-94 -160.5q0 -39 29.5 -72t158.5 -135q115 -90 115 -193 q0 -131 -130 -225t-306 -94q-23 0 -45 2l-201 -375q-8 -16 -19 -16q-10 0 -10 12q0 8 8 23l201 360q-236 39 -235 207z" />
<glyph unicode="%" horiz-adv-x="944" d="M481 635q0 90 109.5 194.5t204.5 104.5q76 0 75 -82q0 -51 -43 -121q66 84 181 150q125 72 198 145q10 10 15 10q6 -2 6 -6q0 -8 -10 -18q-205 -219 -590 -914q-39 10 -76 11q-4 0 -57 -5q309 428 634 824l29 35q-68 -70 -209 -148q-88 -49 -147 -133 q-111 -158 -215 -158q-47 0 -76 31t-29 80zM543 588q0 -49 43 -49q72 0 165 118.5t93 208.5q0 53 -43 54q-68 0 -163 -123t-95 -209zM868 262q0 92 108.5 196.5t205.5 104.5q75 0 75 -82q0 -100 -99 -213.5t-185 -113.5q-45 0 -75 30.5t-30 77.5zM930 219q0 -51 43 -51 q72 0 165 119t93 209q0 53 -43 53q-68 0 -163 -123t-95 -207z" />
<glyph unicode="&#x26;" horiz-adv-x="1439" d="M324 391q0 215 247 383q100 68 322 154q47 18 131 51q72 133 189.5 247.5t181.5 114.5q35 0 35 -30q0 -49 -111 -148.5t-275 -195.5q-43 -102 -69 -197q66 12 102 12q139 0 226.5 -87t87.5 -226q0 -143 -88.5 -259t-245.5 -183q94 -106 241 -107q178 0 330 134t152 294 q0 39 -17 88v6q0 6 9 7q8 0 17 -36t9 -67q0 -164 -155.5 -304t-337.5 -140q-166 0 -271 116q-119 -37 -219 -36q-205 0 -348 119.5t-143 289.5zM414 319q0 -133 112.5 -224t274.5 -91q98 0 207 47q-31 45 -54 92q-41 -8 -69 -8q-113 0 -192 72t-79 172q0 121 88.5 224.5 t237.5 156.5q29 98 74 188q-262 -139 -355 -215q-246 -201 -245 -414zM664 369q0 -92 62 -152.5t159 -60.5q30 0 61 6q-55 133 -55 287q0 129 41 286q-115 -47 -191.5 -151.5t-76.5 -214.5zM926 430q0 -131 49 -262q86 31 145.5 96.5t57.5 126.5q-2 29 20 29q23 0 23 -23 q0 -59 -75 -135t-165 -110q10 -20 23 -48q8 -12 26 -41q139 72 231.5 196t92.5 239t-77 191.5t-196 76.5q-53 0 -112 -16q-43 -168 -43 -320zM1057 997q119 63 236.5 167t117.5 145q0 16 -16 16q-53 0 -164 -107.5t-174 -220.5z" />
<glyph unicode="'" horiz-adv-x="657" d="M770 834q31 106 74 315q35 168 98 168q39 0 39 -49q0 -39 -45 -125q-115 -217 -148 -309h-18z" />
<glyph unicode="(" horiz-adv-x="899" d="M563 313q0 279 185.5 557.5t465.5 423.5q102 53 273.5 104.5t247.5 51.5q14 0 14 -8t-37 -15q-408 -66 -737.5 -452.5t-329.5 -800.5q0 -195 123 -315q6 -6 6 -11q-2 -6 -6 -6q-12 0 -63 60q-141 162 -142 411z" />
<glyph unicode=")" horiz-adv-x="899" d="M-199 -166q0 8 25 12q393 74 715.5 466.5t322.5 797.5q0 205 -121 315q-8 6 -8 13q0 6 8 6t39 -31q164 -159 164 -395q0 -215 -50 -370.5t-167 -307.5q-135 -174 -301 -282.5t-408 -180.5q-172 -51 -208 -51q-10 0 -11 8z" />
<glyph unicode="*" d="M782 1126q0 51 41 52q14 0 33 -19q66 -49 123 -49v-12q-74 -23 -133 -23q-63 0 -64 51zM852 940q0 31 49 57q59 31 84 93l12 -3q-43 -188 -100 -188q-45 0 -45 41zM883 1284q0 43 47 43q43 0 43 -41q0 -8 -3 -27.5t-3 -31.5q0 -45 20 -86l6 -13l-10 -6q-100 94 -100 162z M1004 1130q25 109 46 147t56 38q41 0 41 -39q0 -29 -39 -53q-61 -39 -94 -93h-10zM1006 1090l12 6l16 -17l43 -39q53 -49 53 -98q0 -43 -47 -43q-31 0 -39 27q-4 10 -4 53q-2 74 -34 111zM1018 1106v12q88 39 145 39q51 0 51 -49q0 -51 -38 -51q-14 0 -37 16q-51 37 -90 37 q-8 0 -31 -4z" />
<glyph unicode="+" horiz-adv-x="591" d="M-410 -586q0 184 227.5 360.5t465.5 176.5q35 0 55 -4l143 272q-164 -229 -252 -229q-51 0 -87 45t-36 110q0 182 242 326q137 82 219 82q61 0 62 -64q0 -14 -2 -26l47 84q31 -8 53 -8q21 0 64 6q-174 -291 -351 -625q127 -49 127 -176q0 -135 -147.5 -254t-315.5 -119 q-51 0 -96 15q-156 -119 -272 -119q-63 0 -104.5 41t-41.5 106zM-379 -598q0 -53 31 -87t78 -34q100 0 241 119q-115 66 -114 168q0 88 86 170q39 37 49 37q4 0 4 -4q0 -6 -23 -23q-102 -74 -102 -182q0 -98 111 -156q88 86 154.5 185t193.5 339q-29 2 -56 3 q-223 0 -438 -176.5t-215 -358.5zM18 -604q33 -10 80 -10q164 0 309.5 114.5t145.5 245.5q0 117 -119 162q-109 -203 -193.5 -307.5t-222.5 -204.5zM180 74q0 -70 53 -70q72 0 250 238q131 175 131 243q0 53 -47 54q-90 0 -238.5 -178.5t-148.5 -286.5z" />
<glyph unicode="," horiz-adv-x="456" d="M90 -111q0 6 8 9q41 14 75 41.5t34 48.5q0 6 -10 6q-45 0 -45 43q0 39 40.5 83t75.5 44q41 0 41 -43q0 -68 -73 -148q-29 -31 -75 -60.5t-65 -29.5q-6 0 -6 6z" />
<glyph unicode="-" horiz-adv-x="733" d="M274 213q0 12 78 39t113 27q20 0 86 -15q55 -12 80 -12q47 0 88 20q6 4 10 4t4 -4q0 -12 -82 -37.5t-125 -25.5q-41 0 -84 10q-51 12 -77 12q-41 0 -80 -20q-2 -2 -6 -2t-5 4z" />
<glyph unicode="." horiz-adv-x="456" d="M180 35q0 41 43 82t86 41q39 0 39 -41q0 -45 -41 -86t-84 -41t-43 45z" />
<glyph unicode="/" horiz-adv-x="1083" d="M348 -207l1075 1694h31l-1075 -1694h-31z" />
<glyph unicode="0" d="M274 293q0 268 330 547q285 240 455 239q106 0 169.5 -78.5t63.5 -209.5q0 -227 -229 -488q-279 -315 -516 -315q-119 0 -196 86t-77 219zM367 190q0 -188 178 -188q219 0 442 307q104 143 168 306t64 286q0 164 -158 164q-129 0 -299 -152q-160 -145 -275 -346 q-121 -215 -120 -377z" />
<glyph unicode="1" d="M461 344q0 6 12 12q254 115 737 652l13 14q18 20 22 20t4 -4q0 -10 -227 -360q-182 -281 -252 -415t-104 -269q-35 8 -62 8q-29 0 -108 -12q68 199 415 618q213 256 283 367q-260 -307 -522 -508q-170 -129 -203 -129q-8 0 -8 6z" />
<glyph unicode="2" d="M166 -35q0 47 80 129q70 72 142.5 117t273.5 139q252 119 394 271.5t142 304.5q0 63 -47 100t-125 37q-176 0 -381 -180.5t-205 -335.5q0 -113 135 -113q106 0 239.5 105.5t182.5 228.5q2 10 9 10q6 0 6 -6q0 -43 -86 -145q-76 -88 -173.5 -145.5t-174.5 -57.5 q-76 0 -123 46t-47 122q0 186 247 350q203 133 375 133q117 0 190.5 -62.5t73.5 -162.5q0 -137 -114 -246q-82 -78 -169 -124t-343 -148q-319 -129 -441 -275q90 70 195 70q84 0 221 -43q119 -37 180 -37q84 0 157 68.5t99 175.5q2 12 11 12q4 0 4 -4q0 -57 -68 -152 q-125 -174 -311 -174q-70 0 -205 41q-164 49 -207 49q-104 0 -115 -83q-2 -23 -14 -23q-8 0 -8 8z" />
<glyph unicode="3" d="M205 176q0 90 87 152.5t212 62.5q94 0 94 -12q0 -6 -6 -6h-8q-37 6 -62 6q-109 0 -184.5 -62.5t-75.5 -152.5q0 -74 59.5 -121t153.5 -47q182 0 336 130t154 286q0 129 -158 170q-86 -12 -141 -13q-51 0 -52 13q0 20 74 20q57 0 119 -10q152 51 242 147.5t90 208.5 q0 127 -162 127q-139 0 -279.5 -96t-140.5 -195q0 -90 115 -90q70 0 156.5 55.5t136.5 131.5q4 10 12 10q4 0 4 -4q0 -10 -38 -52t-71 -69q-106 -84 -204 -84q-57 0 -95 35t-38 88q0 102 142 192t302 90q117 0 186.5 -51t69.5 -139q0 -238 -412 -309q242 -55 242 -246 q0 -143 -165 -252.5t-382 -109.5q-137 0 -225 55t-88 141z" />
<glyph unicode="4" d="M98 250q0 35 193 74q137 82 229 161q88 74 295 287q416 426 678 426q37 0 73 -10.5t36 -20.5q0 -8 -9 -8q-2 0 -10 2q-47 16 -90 17q-260 0 -668 -422q-201 -207 -295 -287t-219 -145q117 31 310 30q72 0 118 -4q55 84 238 336q158 217 197 299q6 12 12 12q4 0 4 -4 q0 -2 -2 -6l-10 -20q-12 -25 -141.5 -257.5t-192.5 -365.5q61 -4 114 -4q104 0 170 46t66 118q0 27 -14 57q-2 4 -2 10t6 7q23 0 22 -74q0 -201 -383 -201q-88 -190 -106 -307q-37 12 -74 12q-47 0 -100 -12q53 143 166 307q-23 0 -107 8q-117 12 -174 13q-55 0 -123 -9 q-119 -76 -190 -75q-16 0 -17 10z" />
<glyph unicode="5" d="M213 184q0 102 101.5 172t252.5 70q86 0 86 -12q-2 -4 -6 -4q-12 0 -35.5 2t-36.5 2q-133 0 -219 -69t-86 -177q0 -80 56.5 -126t152.5 -46q182 0 355.5 152.5t173.5 314.5q0 96 -64.5 152.5t-171.5 56.5q-72 0 -158 -33q-106 -135 -145 -135q-12 0 -12 10q0 39 147 125 q176 236 176 405q0 18 -2 24.5t-2 12.5q0 12 12 13q12 0 13 -33q0 -29 -13 -82q57 98 150 98q37 0 192 -53q53 -18 84 -18t54.5 22.5t23.5 52.5q0 8 -4 18.5t-4 14.5q0 12 10 12q13 1 13 -26q0 -63 -57.5 -111.5t-131.5 -48.5q-55 0 -136 28.5t-124 28.5q-57 0 -84 -69 q-57 -154 -147 -277q84 39 168 39q135 0 225 -76.5t90 -191.5q0 -170 -188.5 -305t-425.5 -135q-125 0 -204 56t-79 146z" />
<glyph unicode="6" d="M326 246q0 180 149.5 378.5t417.5 376.5q109 72 232.5 125.5t181.5 53.5q18 -1 18 -11t-20 -10h-19q-178 0 -440 -254t-391 -551q100 162 233 261.5t252 99.5q100 0 162.5 -61.5t62.5 -159.5q0 -176 -194.5 -345t-399.5 -169q-113 0 -179 72.5t-66 193.5zM412 164 q0 -78 38.5 -125t104.5 -47q156 0 340 202.5t184 372.5q0 135 -149 135q-158 0 -338 -186t-180 -352z" />
<glyph unicode="7" d="M389 -4q35 195 179.5 370t469.5 420q174 131 230 248q-72 -106 -217 -106q-74 0 -197 45t-158 45q-31 0 -59 -17l-6 -12q-78 -156 -113 -155q-12 0 -12 12q0 51 117 155q23 45 22 78q0 12 -6 33v4q0 12 12 12t13 -20q0 -37 -23 -92q80 66 162 65q49 0 201 -51 q86 -29 141 -29q139 0 139 99q0 8 -2 18v6q0 16 14 17q15 -1 15 -17q0 -45 -49 -127q-39 -66 -78 -108q-47 -51 -207 -209q-401 -393 -418 -684q-47 10 -92 10q-41 0 -78 -10z" />
<glyph unicode="8" d="M256 207q0 121 119 211t405 186q-100 98 -100 184q0 117 129 213.5t287 96.5q98 0 164.5 -48t66.5 -120q0 -176 -424 -301q94 -88 126 -142.5t32 -121.5q0 -150 -151.5 -267.5t-344.5 -117.5q-137 0 -223 62t-86 165zM334 172q0 -180 229 -180q162 0 278.5 91t116.5 218 q0 84 -55 162q-14 23 -117 133q-453 -166 -452 -424zM776 842q0 -55 41 -113q16 -23 80 -92q166 57 264.5 145.5t98.5 178.5q0 53 -47.5 88.5t-116.5 35.5q-127 0 -223.5 -73.5t-96.5 -169.5z" />
<glyph unicode="9" d="M223 -80q0 14 25 14h14q182 0 450.5 242t399.5 520q-98 -145 -241.5 -241.5t-262.5 -96.5q-96 0 -153.5 58.5t-57.5 156.5q0 178 205 338q98 78 215 127t201 49q104 0 169.5 -74.5t65.5 -193.5q0 -170 -153.5 -366.5t-415.5 -364.5q-117 -74 -247 -126t-197 -52 q-16 0 -17 10zM481 502q0 -129 137 -129q90 0 215 74.5t216 181.5q118 141 118 276q0 170 -147 170q-154 0 -346.5 -204.5t-192.5 -368.5z" />
<glyph unicode=":" horiz-adv-x="456" d="M180 35q0 41 43 82t86 41q39 0 39 -41q0 -45 -41 -86t-84 -41t-43 45zM360 328q0 41 42 82t87 41q39 0 39 -41q0 -45 -41 -86t-84 -41t-43 45z" />
<glyph unicode=";" horiz-adv-x="456" d="M92 -111q0 6 8 9q41 14 75 41.5t34 48.5q0 6 -10 6q-45 0 -45 43q0 39 41 83t75 44q41 0 41 -43q0 -68 -73 -148q-29 -31 -75 -60.5t-65 -29.5q-6 0 -6 6zM340 334q0 43 42 84t87 41q39 0 39 -41q0 -45 -41 -86t-84 -41t-43 43z" />
<glyph unicode="&#x3c;" horiz-adv-x="1071" d="M371 662v43l886 380v-43l-839 -360l839 -358v-43z" />
<glyph unicode="=" horiz-adv-x="217" d="M-776 -573q0 182 226 357t462 175q10 0 68 -4q143 276 325 592q31 -8 55 -8q27 0 68 8q-182 -287 -338 -586q-4 -10 -16 -33q129 -53 129 -176q0 -137 -145.5 -255t-315.5 -118q-53 0 -100 17q-158 -117 -271 -117q-68 0 -107.5 40t-39.5 108zM-745 -588q0 -119 114 -119 q102 0 236 117q-113 63 -113 168q0 98 100 182q27 23 33 23t6 -4t-14 -15q-111 -86 -111 -190q0 -96 109 -154q172 159 356 521q-23 4 -59 4q-227 0 -442 -174t-215 -359zM-346 -596q41 -10 80 -10q170 0 312 113.5t142 248.5q0 113 -120 162q-104 -201 -187.5 -304 t-226.5 -210zM393 686q0 33 31 63.5t65 30.5q43 0 43 -43q0 -37 -29.5 -66.5t-64.5 -29.5q-45 0 -45 45z" />
<glyph unicode="&#x3e;" horiz-adv-x="1071" d="M467 281v43l840 358l-840 360v43l887 -380v-43z" />
<glyph unicode="?" horiz-adv-x="892" d="M309 35q0 41 43 82t86 41q39 0 39 -41q0 -45 -41 -86t-84 -41t-43 45zM371 743q0 164 177 299.5t388 135.5q-51 123 -170 122q-41 0 -78 -14q-8 -4 -10 -4q-6 2 -6 6q0 8 33.5 17.5t60.5 9.5q129 0 184 -137q133 -8 218 -84t85 -185q0 -158 -190 -276q-70 -43 -336 -146 q-274 -104 -274 -217q0 -51 53 -51q90 0 170 117q4 6 8 6q4 -2 4 -6q0 -16 -57 -70q-68 -61 -125 -61q-68 0 -68 63q0 53 64 111q31 27 57 43q37 25 170 98q422 236 422 461q0 164 -197 186q8 -39 9 -75q0 -176 -141.5 -337t-297.5 -161q-66 0 -109.5 43t-43.5 106zM401 717 q0 -109 121 -109q143 0 285.5 162t142.5 322q0 37 -10 75q-201 0 -377 -166q-162 -152 -162 -284z" />
<glyph unicode="@" horiz-adv-x="1400" d="M401 436q0 262 223.5 455.5t524.5 193.5q219 0 357.5 -112.5t138.5 -292.5q0 -170 -141.5 -321.5t-303.5 -151.5q-129 0 -129 125q0 55 35 114q-102 -139 -154.5 -187t-103.5 -48q-53 0 -89 46t-36 116q0 193 270 338q121 66 193 65q61 0 61 -59q0 -16 -6 -45l51 96 q27 -8 54 -8q29 0 67 8l-176 -293q-92 -154 -92 -205q0 -49 61 -49q66 0 150 47q121 68 191.5 181.5t70.5 238.5q0 156 -132 264.5t-323 108.5q-258 0 -473 -225.5t-215 -493.5q0 -172 154.5 -298t365.5 -126q168 0 260 53q10 6 19 6q6 0 6 -6q-2 -27 -98.5 -52t-192.5 -25 q-248 0 -418 156.5t-170 385.5zM797 291q0 -66 57 -66q70 0 240 230q139 188 139 258q0 49 -45 49q-92 0 -241.5 -180.5t-149.5 -290.5z" />
<glyph unicode="A" horiz-adv-x="1951" d="M248 350q0 217 168 411.5t418 270.5q84 164 252.5 270.5t343.5 106.5q102 0 162.5 -52t60.5 -143q0 -70 -47 -161q-43 -84 -43 -115q0 -74 86 -74q100 0 206 148q8 12 15 12q8 0 8 -8q0 -10 -47 -64q-94 -106 -182 -106q-57 0 -93 41t-36 106q0 61 65 181q31 55 31 96 q0 51 -55.5 86t-135.5 35q-162 0 -322.5 -100.5t-244.5 -252.5q74 16 131 17q147 0 231.5 -78t84.5 -215q0 -33 -5 -57q82 66 130 174q2 10 8 10q8 0 8 -10q0 -29 -46 -90.5t-104 -108.5q-35 -193 -205.5 -344.5t-349.5 -151.5q-96 0 -159.5 62.5t-63.5 156.5 q0 115 74 225.5t194 180.5q-2 25 -2 37q0 72 35 158q-213 -78 -364.5 -279t-151.5 -406q0 -152 94.5 -243.5t251.5 -91.5q182 0 361.5 124.5t500.5 475.5q-135 0 -194 -2l14 20q94 0 197 -2q293 326 568.5 475.5t582.5 153.5q66 14 133 14q139 0 139 -47q0 -18 -20 -18 q-14 0 -68 12q-102 24 -174 24h-6q-168 -53 -286 -189t-286 -470q-240 -475 -612 -561q78 -12 137 -12q182 0 310 118q74 70 200 240q10 14 17 14q4 -2 4 -6q0 -14 -115 -153q-106 -131 -193 -179.5t-217 -48.5q-74 0 -178 21q-68 -20 -147 -21q-57 0 -57 21q0 24 71 24h6 q51 0 127 -10q154 35 236 124t305 458h-385q-559 -618 -969 -619q-186 0 -294.5 104.5t-108.5 280.5zM539 412q0 -94 55 -151.5t145 -57.5q143 0 288.5 128t219.5 316q-111 -63 -211 -63t-165.5 55t-82.5 152q-113 -68 -181 -172.5t-68 -206.5zM805 819q106 55 158 55 q10 0 10 -6q0 -8 -37 -16q-57 -14 -129 -51q35 -201 233 -201q100 0 215 72q17 59 17 114q0 115 -75 183.5t-200 68.5q-74 0 -151 -26q-41 -92 -41 -193zM1634 600h381q125 219 306.5 398t312.5 212q-260 -14 -482.5 -149t-517.5 -461z" />
<glyph unicode="B" horiz-adv-x="1902" d="M233 252q0 119 89 244q-4 16 -5 39q0 305 328 558t725 253q283 0 473 -123q176 112 327 112h3q127 0 209 -80.5t82 -205.5q0 -160 -31 -160q-6 2 -6 8q0 4 2 16q16 66 16 123q0 127 -75.5 204t-200.5 77q-145 0 -309 -105q155 -114 155 -247q0 -104 -81 -176t-220 -93 q252 -76 252 -319q0 -172 -146.5 -301t-342.5 -129q-94 0 -150.5 48t-56.5 128q0 129 115.5 254t236.5 125q66 0 109 -41t43 -101q0 -41 -25 -99t-41 -58q-6 0 -6 8q0 4 10 18q45 61 45 129q0 53 -39 90t-96 37q-113 0 -223.5 -120.5t-110.5 -245.5q0 -63 47 -107.5 t117 -44.5q152 0 281 149.5t129 325.5q0 199 -174 250q-53 -8 -115 -8q-66 0 -66 14q0 18 66 19q45 0 121 -15q100 23 165.5 107t65.5 192q0 113 -90 195q-127 -96 -219 -234.5t-242 -457.5q-76 -162 -176 -264.5t-256 -180.5q-201 -100 -367 -100q-156 0 -249 80t-93 213z M252 254q0 -127 87 -203t232 -76q186 0 336 113t316 379q193 311 323 474t273 267q-162 119 -447 119q-350 0 -649 -231.5t-356 -544.5q113 117 266 158q80 139 204 225t242 86q72 0 118 -46t46 -120q0 -182 -184 -389q-219 -246 -447 -246q-115 0 -190.5 65.5t-97.5 184.5 q-72 -111 -72 -215zM362 487q0 -115 68 -183t182 -68q246 0 465 280q148 188 148 338q0 63 -39 106.5t-96 43.5q-94 0 -199 -76t-186 -205q16 4 45 4q90 0 145 -41t55 -111q0 -29 -8 -28q-8 0 -8 25q0 63 -50 100q-52 39 -141 39q-12 0 -49 -4q-71 -125 -71 -216 q0 -45 23.5 -73.5t58.5 -28.5q4 0 8 2h6q6 0 6 -6q0 -10 -20 -10q-51 0 -86 48t-35 118t39 149q-150 -45 -261 -172v-31z" />
<glyph unicode="C" horiz-adv-x="1632" d="M358 1053q0 158 160 262t402 104q338 0 677 -223q59 12 117 12q203 0 203 -98q0 -63 -90 -135q82 -127 82 -223q0 -25 -15 -25q-12 0 -12 33q-2 98 -70 203q-150 -109 -397.5 -187t-439.5 -78q-27 0 -47 2q-160 -223 -160 -430q0 -137 85 -218t230 -85q-82 86 -82 221 q0 201 177.5 374t384.5 173q198 0 198 -207q0 -211 -191.5 -386t-439.5 -191q82 -66 213 -66q139 0 254 88q10 8 17 9q6 0 6 -7q0 -27 -105.5 -66.5t-171.5 -39.5q-143 0 -241 80q-113 2 -191 37q-106 45 -172.5 150.5t-66.5 225.5q0 166 119 349q-207 35 -320 123t-113 219 zM393 1034q0 -233 406 -311q250 352 770 469q-305 176 -645 176q-213 0 -372 -100.5t-159 -233.5zM940 715h25q193 0 439 76.5t400 185.5q-76 113 -207 197q-184 -47 -363 -173.5t-294 -285.5zM1053 154q0 -115 59 -187q211 0 418 193.5t207 390.5q0 78 -44 122t-122 44 q-170 0 -344 -188.5t-174 -374.5zM1622 1178q111 -78 197 -191q82 68 82 123q0 82 -160 82q-55 0 -119 -14z" />
<glyph unicode="D" horiz-adv-x="1734" d="M129 6q0 27 64.5 46.5t150.5 19.5q104 0 414 -68q209 57 327.5 173t360.5 501q147 236 321 399q-145 246 -473 246q-338 0 -620 -266q-141 -133 -226.5 -295t-85.5 -299q0 -106 71 -172t188 -66q195 0 395.5 212t200.5 417q0 66 -39 108t-99 42q-141 0 -299.5 -178.5 t-158.5 -338.5q0 -104 91 -104h3q12 0 12 -6q0 -8 -18 -8q-57 0 -92 47t-35 123q0 164 164.5 322.5t332.5 158.5q70 0 113 -47t43 -123q0 -211 -207 -427t-407 -216q-143 0 -235.5 92t-92.5 236q0 172 114.5 348t303.5 293q262 165 585 165h4q324 0 490 -243 q244 225 496 225q127 0 204.5 -82t77.5 -213q0 -51 -12 -107.5t-23 -56.5q-6 0 -6 6t2 13q23 61 23 143q0 127 -76 203t-203 76q-244 0 -469 -230q86 -160 86 -338q0 -328 -252 -556t-614 -228q-113 0 -307 31q-170 -31 -324 -31q-264 0 -264 53zM150 6q0 -35 262 -35 q151 1 270 19q-276 39 -412 39q-121 0 -120 -23zM791 -4q127 -27 270 -27q383 0 620 371q154 240 154 473q0 119 -53 238q-135 -154 -242 -387q-141 -307 -291 -445q-156 -137 -458 -223z" />
<glyph unicode="E" horiz-adv-x="1785" d="M313 739q0 223 192.5 370.5t481.5 147.5q209 0 551 -79q135 65 315 65h5q137 0 232 -36t95 -87q0 -67 -119 -67h-4q-80 0 -137 11t-321 79q-170 -96 -170 -244q0 -70 47 -100q55 8 108 8q104 0 105 -25q0 -16 -58 -16q-63 0 -149 20q-90 -12 -209 -63 q-20 -129 -137 -233.5t-267 -127.5q-20 -70 -20 -124q0 -190 205 -242q-39 59 -39 139q0 199 200.5 365t442.5 166q106 0 173 -54.5t67 -144.5q0 -195 -214 -351.5t-483 -156.5q-53 0 -100 6q90 -129 285 -129q111 0 188 35l12 2q6 -2 6 -8q0 -14 -72.5 -29.5t-133.5 -15.5 q-209 0 -320 151q-326 74 -326 310q0 35 9 73q-197 4 -319 110.5t-122 274.5zM350 698q0 -139 114 -230t294 -97q41 131 178 237.5t326 151.5q2 12 2 26q0 106 -77 184.5t-200 98.5q-10 4 -10 8q0 10 14 10q29 0 84 -22.5t88 -46.5q119 -90 119 -252q82 18 180 31 q-111 47 -110 147q0 133 164 223q-252 51 -422 52q-311 0 -527.5 -150.5t-216.5 -370.5zM881 381q139 27 243 119t131 213q-293 -131 -374 -332zM1057 98q0 -55 35 -110q57 -10 106 -11q236 0 461 164t225 334q0 72 -57.5 119t-145.5 47q-215 0 -419.5 -178t-204.5 -365z M1626 1155q276 -84 445 -84q94 0 94 49q0 39 -83 69t-190 30q-141 0 -266 -64z" />
<glyph unicode="F" horiz-adv-x="1495" d="M188 322q0 174 141.5 328.5t350.5 205.5q213 309 551 383q-80 113 -236 113q-258 0 -465 -250q-16 -16 -18 -17q-6 0 -8 7q0 18 84 96q195 180 403 180q180 0 266 -125q102 27 246 27q90 0 164 -13.5t361 -82.5q223 86 419 86q115 0 185.5 -26t70.5 -67q0 -49 -98 -83.5 t-238 -34.5q-180 0 -440 55q-221 -102 -416 -449q57 -10 101 -14q55 127 160 127q72 0 71 -55q0 -94 -192 -97q-55 -123 -92 -151q-55 -43 -93 -43q-10 0 -12 6q0 6 12 8q70 20 136 185l-37 6l-64 10q-172 -307 -223 -371q-111 -137 -292 -223t-365 -86q-195 0 -314 99.5 t-119 265.5zM240 264q0 -121 101 -205t245 -84q276 0 489 230q104 113 256 344q39 59 70 104q-16 2 -33 2q-47 0 -93 -25.5t-61 -60.5q-4 -14 -10 -14q-8 0 -8 8q0 39 56.5 75t117.5 36q23 0 43 -4q104 152 239.5 272.5t252.5 167.5q-123 33 -369 88q-109 20 -207 21 q-33 0 -57 -2q41 -82 41 -187q0 -217 -174 -416v-39q0 -172 -152.5 -322.5t-327.5 -150.5q-94 0 -158.5 67t-64.5 165q0 156 158 272q0 111 68 219q-182 -66 -302 -225.5t-120 -335.5zM479 305q0 -84 51.5 -134t137.5 -50q84 0 177 51t165 133q102 119 110 291 q-166 -172 -342 -172q-139 0 -176 131q-123 -117 -123 -250zM612 616q113 68 217 68q53 0 102.5 -28.5t49.5 -59.5q0 -6 -6 -6t-19 20q-35 57 -112 58q-100 0 -226 -99q29 -125 150 -125q172 1 344 218q-55 194 -281 194h-2q-63 0 -143 -22q-72 -121 -74 -218zM705 860 q63 14 120 14q229 0 301 -196q150 200 150 399q0 68 -33 135q-150 -16 -292 -109t-246 -243zM1657 635q168 0 168 78q0 41 -49 41q-45 0 -76 -39q-12 -16 -43 -80zM2062 1165q12 -4 133 -30q176 -39 308 -39q74 0 128 20t54 49q0 31 -65.5 53.5t-157.5 22.5q-217 0 -400 -76 z" />
<glyph unicode="G" horiz-adv-x="1503" d="M109 -12q0 156 96 295t262 225t309 86q12 0 21 -2q0 25 14 88q-18 -2 -43 -2q-162 0 -257 70.5t-95 189.5q0 205 231.5 362.5t530.5 157.5q238 0 389 -119q106 39 155 39q96 0 97 -80q0 -74 -113 -184q8 -55 8 -92q0 -109 -63 -231q-18 -37 -27 -37q-6 0 -6 6q0 4 4 10 q74 121 74 256q0 41 -4 76q-168 -147 -373 -257t-391 -151q-31 -53 -49 -108q256 -47 262 -305q195 45 491 393q66 102 133.5 180t92.5 78q6 0 8 -6q0 -25 -78 -116t-156 -159q-74 -117 -104.5 -187.5t-81.5 -236.5q-61 -197 -150.5 -311.5t-251.5 -204.5 q-231 -129 -475 -129q-207 0 -333.5 112.5t-126.5 293.5zM166 -72q0 -145 107.5 -235t281.5 -90q236 0 429.5 167t447.5 592q77 131 165 248q-272 -299 -456 -350q-12 -203 -167 -358.5t-345 -155.5q-111 0 -182.5 68.5t-71.5 175.5q0 131 106.5 239.5t235.5 108.5 q37 0 75.5 -18.5t38.5 -36.5q-2 -6 -6 -7q-4 0 -10 7q-42 36 -93 36h-3q-104 0 -204.5 -114.5t-100.5 -233.5q0 -96 58 -152.5t161 -56.5q162 0 309 136q162 147 180 358q-37 -6 -55 -6q-123 0 -197.5 88t-74.5 235q-252 -16 -440.5 -209.5t-188.5 -435.5zM434 940 q0 -115 92 -179.5t256 -64.5h35q117 383 731 637q-133 104 -366 105q-281 0 -514.5 -156t-233.5 -342zM862 467q0 -88 56.5 -143.5t144.5 -55.5q22 0 59 6q0 119 -65.5 196t-179.5 99q-14 -55 -15 -102zM938 713q178 41 382 151.5t368 255.5q-27 119 -119 197 q-178 -90 -355.5 -259t-275.5 -345zM1585 1323q86 -74 117 -190q98 93 98 163q0 66 -76 66q-59 0 -139 -39z" />
<glyph unicode="H" horiz-adv-x="1914" d="M248 342q0 319 334 565q41 207 230 359.5t407 152.5q96 0 151 -49t55 -135q0 -63 -44 -150.5t-44 -121.5q0 -31 23.5 -52.5t58.5 -21.5q59 0 127 55q53 47 90 109q4 6 9 6q8 0 8 -8q0 -23 -60 -86q-88 -94 -170 -95q-57 0 -95 41t-38 101q0 49 43 135q51 102 51 143 q0 51 -48 82t-126 31q-195 0 -379 -146.5t-227 -334.5q195 129 379 129q145 0 225 -80t80 -226q0 -84 -35 -176h119q176 285 295 412q135 143 272 203q47 20 54 20q6 0 6 -8q0 -6 -21 -14q-123 -47 -221 -172t-264 -441h389q188 336 406.5 520.5t427.5 184.5 q104 0 168.5 -55.5t64.5 -143.5q0 -160 -194 -268q-84 -47 -115 -47q-8 0 -8 8q0 6 28 16q113 43 184.5 125t71.5 168q0 80 -55 130t-143 50q-362 0 -635 -542q-184 -365 -311 -513.5t-320 -217.5q96 -12 137 -13q184 0 309 119q104 100 201 240q10 14 17 14q4 -2 4 -6 q0 -10 -67.5 -96t-108.5 -129q-84 -90 -160 -123t-191 -33q-66 0 -178 16l-8 -2l-39 -10q-31 -8 -82 -8t-51 22q0 25 82 25q49 0 115 -12q127 57 196 147q63 80 225 383l17 31h-387q-109 -193 -170.5 -266.5t-179.5 -155.5q-252 -174 -488 -174q-182 0 -289.5 104.5 t-107.5 284.5zM305 317q0 -158 90 -251t244 -93q221 0 399 158q78 68 138 148q37 49 172 251l12 19h-117q-82 -162 -225.5 -267.5t-282.5 -105.5q-96 0 -158.5 62.5t-62.5 160.5q0 135 113 279q-51 70 -52 151v25q-125 -115 -197.5 -258t-72.5 -279zM535 406 q0 -96 55 -153.5t145 -57.5q244 0 455 356q-76 -2 -139 -2l8 20h63q23 -2 78 -2q55 113 55 217q0 113 -72.5 181.5t-189.5 68.5q-205 0 -397 -164q-2 -16 -2 -36q0 -74 47 -142q55 59 127 107.5t104 48.5q6 0 9 -6q0 -6 -33 -21q-111 -47 -197 -143q68 -76 172 -76 q90 0 183.5 51.5t148.5 128.5q2 6 6 6q8 0 8 -8q0 -20 -63 -78q-130 -116 -282 -116h-3q-106 0 -182 76q-104 -135 -104 -256z" />
<glyph unicode="I" horiz-adv-x="1472" d="M211 319q0 211 198.5 381t442.5 170q139 0 223 -77.5t84 -208.5q0 -180 -149.5 -332t-327.5 -152q-94 0 -158.5 66.5t-64.5 165.5q0 135 120.5 241.5t274.5 106.5q51 0 99 -26.5t48 -55.5q0 -6 -8 -6q-2 0 -8 6q-43 66 -121 66q-131 0 -247.5 -115t-116.5 -244 q0 -86 51 -136t139 -50q164 0 307.5 149.5t143.5 317.5q0 117 -79 191.5t-202 74.5q-231 0 -413.5 -180t-182.5 -410q0 -125 100.5 -207t253.5 -82q303 0 543 301q51 63 193 275q-172 74 -172 239q0 199 225 297q109 47 360 91q92 16 154 28l49 10q53 39 140.5 79t121.5 40 q17 0 17 -10q0 -16 -83 -53t-190 -66q-137 -100 -252.5 -250.5t-257.5 -414.5q12 -2 29 -2q121 0 224.5 74.5t125.5 181.5q4 16 10 16t7 -8q0 -59 -66 -139q-51 -61 -135 -101.5t-166 -40.5q-14 0 -37 2q-92 -168 -115.5 -204.5t-72.5 -90.5q-115 -125 -287 -198.5 t-342 -73.5q-195 0 -312.5 99.5t-117.5 264.5zM1237 737q0 -119 125 -176q264 420 586 635l-70 -16q-37 -8 -109 -27q-244 -57 -388 -170t-144 -246z" />
<glyph unicode="J" horiz-adv-x="1466" d="M-10 -61q0 240 256 409q121 80 276.5 129t290.5 49q236 0 416 -153l61 112q-102 33 -160.5 111t-58.5 180q0 178 152 301q88 72 177 99.5t326 58.5q141 18 246 47q184 117 248 117q16 0 16 -10q0 -16 -80.5 -53.5t-183.5 -65.5q-180 -154 -293.5 -316.5t-257.5 -474.5h13 q137 0 242 78q110 82 132 211q2 16 13 16q8 0 8 -10q0 -59 -43 -127q-115 -182 -375 -182l-14 -27l-86 -168q37 -82 37 -166q0 -217 -180.5 -372.5t-432.5 -155.5q-131 0 -239 55q-68 -16 -131 -16q-170 0 -272.5 88t-102.5 236zM51 -100q0 -266 334 -267q39 0 88 9 q-184 111 -184 284q0 147 136 260t314 113q61 0 126 -20.5t65 -40.5q0 -8 -8 -9q-4 0 -9 4q-68 47 -168 48q-152 0 -277.5 -123t-125.5 -273q0 -145 156 -237q385 87 723 708q-176 150 -398 150q-289 0 -530.5 -190.5t-241.5 -415.5zM520 -362q102 -45 221 -46 q242 0 416 153t174 364q0 68 -31 145q-252 -471 -780 -616zM1124 717q0 -150 172 -217q186 326 319.5 483.5t326.5 278.5q-72 -18 -183 -43q-184 -41 -282.5 -82t-180.5 -111q-172 -145 -172 -309z" />
<glyph unicode="K" horiz-adv-x="1949" d="M248 342q0 324 334 565q37 205 228 358.5t409 153.5q96 0 151 -49t55 -135q0 -63 -44 -150.5t-44 -119.5q0 -31 23.5 -52.5t58.5 -21.5q51 0 113.5 45t101.5 113q6 10 11 10q8 0 8 -8q0 -20 -60 -84q-88 -94 -170 -95q-57 0 -95 40t-38 100q0 51 43 137q51 102 51 141 q0 51 -48 82t-126 31q-193 0 -377 -145.5t-229 -333.5q193 127 383 127q139 0 220 -81t81 -222q0 -205 -178 -388.5t-375 -183.5q-96 0 -158.5 62.5t-62.5 160.5q0 137 113 279q-51 70 -52 153v23q-123 -111 -196.5 -257t-73.5 -282q0 -158 90 -250t244 -92q217 0 399 160 q90 80 148.5 158t224.5 344q209 334 399 473q39 29 103.5 62.5t79.5 33.5q6 0 6 -8q0 -6 -21 -14q-129 -51 -225 -177t-285 -483q-86 -164 -172 -258t-221 -174q-229 -137 -430 -137q-182 0 -289.5 104.5t-107.5 284.5zM535 403q0 -92 55 -150t143 -58q178 0 350 195 t172 398q0 111 -74.5 178.5t-195.5 67.5q-193 0 -389 -162q-2 -18 -2 -38q0 -80 47 -140q57 59 128 106.5t103 47.5q6 0 9 -6q0 -6 -33 -21q-115 -49 -197 -143q68 -76 170 -76q92 0 184.5 51.5t149.5 132.5q4 4 6 5q8 0 8 -9q0 -20 -63 -77q-129 -119 -285 -119 q-106 0 -182 78q-104 -131 -104 -261zM1606 690q41 0 90 -18q102 18 185 74.5t241 216.5q184 186 326.5 265t287.5 79q100 0 166 -56.5t66 -142.5q0 -176 -230 -287q-61 -30 -83 -30h-1q-8 0 -8 6q0 8 8 10q127 41 205 123t78 176q0 80 -57.5 130t-147.5 50 q-119 0 -228.5 -67.5t-267.5 -237.5q-272 -295 -518 -319q92 -51 92 -185q0 -61 -49 -250q-23 -86 -22 -125q0 -72 44 -117.5t113 -45.5q63 0 113 38q12 10 16 11q6 0 7 -6q0 -18 -49.5 -40t-90.5 -22q-98 0 -168.5 83t-70.5 198q0 74 57 239q29 82 29 129q0 55 -39 93 q-37 -4 -62 -5q-73 0 -73 18q0 15 41 15z" />
<glyph unicode="L" horiz-adv-x="1488" d="M111 96q0 90 239 90q186 0 555 -96q111 43 196 127t216 281q-299 -260 -557 -260q-176 0 -280.5 104t-104.5 281q0 272 256 514.5t543 242.5q133 0 210.5 -68.5t77.5 -185.5q0 -207 -192.5 -424t-376.5 -217q-84 0 -136 59.5t-52 155.5q0 168 147 319.5t309 151.5 q61 0 99 -35.5t38 -93.5q0 -75 -19 -75h-1q-8 0 -8 6q0 2 4 12q8 23 8 51q0 51 -31.5 83t-83.5 32q-137 0 -280.5 -168t-143.5 -326q0 -70 42 -111.5t112 -41.5q170 0 358.5 214t188.5 408q0 102 -70.5 169t-183.5 67q-262 0 -505 -265.5t-243 -551.5q0 -135 86 -212 t238 -77q131 0 259 64.5t316 222.5q158 264 226.5 363.5t165.5 199.5q183 194 281 194h1q41 1 41 -36q0 -72 -174 -274t-340 -322q-125 -272 -258 -398.5t-358 -185.5q397 -106 476 -123.5t150 -17.5q104 0 189 75l10 5q6 -2 6 -5q0 -16 -53 -53q-97 -67 -280 -67h-5 q-137 0 -264 26.5t-387 108.5q-166 -33 -344 -33q-313 0 -313 96zM127 96q0 -78 307 -78q166 0 301 25q-350 111 -477 111q-131 0 -131 -58zM1556 698q170 139 327 322t157 244q0 22 -23 22h-2q-74 0 -203 -151q-115 -135 -256 -437z" />
<glyph unicode="M" horiz-adv-x="2152" d="M248 342q0 319 334 565q41 207 230 359.5t407 152.5q96 0 151 -49t55 -135q0 -63 -44 -150.5t-44 -119.5q0 -31 23.5 -52.5t58.5 -21.5q94 0 211 168q2 4 6 4q8 0 9 -8q0 -23 -58 -86q-86 -96 -166 -97q-55 0 -93 40t-38 100q0 51 43 137q51 102 51 141q0 51 -48 82 t-126 31q-195 0 -380 -146.5t-226 -332.5q197 127 379 127q143 0 224 -80t81 -223q0 -205 -178 -388.5t-375 -183.5q-96 0 -158.5 62.5t-62.5 158.5q0 135 113 281q-51 70 -52 153v23q-125 -113 -197.5 -257t-72.5 -282q0 -156 90 -250t240 -94q266 0 522 277 q98 106 170 212.5t279 452.5q88 145 198.5 266t157.5 121q6 0 6 -6q0 -4 -12 -18q-88 -106 -160 -375q-115 -422 -211 -605t-252 -280q-4 0 -4 -4q2 0 4 -2q25 0 113 64q109 80 199 182q94 111 329 434q168 233 266.5 339t223.5 190q188 127 375 127q172 0 281.5 -96.5 t109.5 -248.5q0 -114 -27 -114q-6 0 -6 6l2 8q14 33 14 94q0 133 -105.5 225.5t-258.5 92.5q-246 0 -506 -242q-100 -94 -172 -180q-68 -78 -283 -365q-307 -406 -502 -506q-88 -45 -112 -45q-6 0 -6 7q0 2 20 16q100 76 155.5 192.5t196.5 538.5q123 369 271 516q6 6 6 10 l-2 2q-14 0 -57 -45q-152 -158 -351 -532q-125 -238 -218 -358.5t-222 -212.5q-217 -156 -436 -156q-172 0 -277.5 107.5t-105.5 281.5zM535 403q0 -92 55 -150t143 -58q178 0 350 195t172 398q0 111 -73.5 178.5t-192.5 67.5q-201 0 -393 -162q-2 -18 -2 -38q0 -74 47 -140 q57 59 128 106.5t103 47.5q6 0 9 -6q0 -6 -33 -21q-113 -47 -197 -143q68 -76 172 -76q90 0 182.5 51.5t149.5 132.5q4 4 6 5q8 0 8 -9q0 -20 -63 -77q-129 -119 -285 -119q-106 0 -182 78q-104 -135 -104 -261zM1470 -25q0 25 74 25q25 0 109 -10h12q106 39 180 121 t176 278q209 397 330 560t287 272q84 55 106 55q6 0 6 -6q0 -4 -26 -19q-119 -63 -207 -179t-203 -359q-166 -352 -296 -505t-324 -222q90 -12 137 -13q150 0 255 75t253 284q10 14 16 14q4 -2 4 -6q0 -12 -114 -154q-106 -131 -193.5 -179t-216.5 -48q-100 0 -174 18 q-60 -22 -131 -22h-6q-53 0 -54 20z" />
<glyph unicode="N" horiz-adv-x="1933" d="M248 342q0 319 334 565q41 207 230 359.5t407 152.5q96 0 151 -49t55 -135q0 -63 -44 -150.5t-44 -119.5q0 -31 23.5 -52.5t58.5 -21.5q94 0 211 168q2 4 6 4q8 0 9 -8q0 -23 -58 -86q-86 -96 -166 -97q-55 0 -93 40t-38 100q0 51 43 137q51 102 51 141q0 51 -48 82 t-126 31q-195 0 -380 -146.5t-226 -332.5q197 127 379 127q143 0 224 -80t81 -223q0 -205 -178 -388.5t-375 -183.5q-96 0 -158.5 62.5t-62.5 158.5q0 135 113 281q-51 70 -52 153v23q-125 -113 -197.5 -257t-72.5 -282q0 -152 90 -248t234 -96q229 0 430 178.5t457 608.5 q209 352 333 461q85 75 110 75h1q4 0 4 -4q0 -2 -12 -18q-63 -84 -80 -180.5t-23 -407.5q-8 -385 -94 -545q-2 0 -2 -2t2 -4q18 0 207 332q172 303 236.5 401.5t154.5 196.5q246 266 518 266q164 0 269.5 -96t105.5 -246q0 -86 -18 -86q-8 0 -9 8q0 4 4.5 14.5t4.5 65.5 q0 131 -99.5 218t-249.5 87q-301 0 -606 -391q-90 -117 -372 -588q-82 -139 -165 -242.5t-112 -103.5q-14 0 -14 15q0 18 45 41q88 43 88 200q0 37 -4 107q-10 172 -10 307q0 215 41.5 352t138.5 246q6 4 6 6q0 4 -4 4q-14 0 -82 -69q-102 -104 -297 -455 q-133 -242 -194.5 -331t-153.5 -177q-272 -262 -561 -262q-166 0 -270.5 108.5t-104.5 280.5zM535 403q0 -92 55 -150t143 -58q178 0 350 195t172 398q0 111 -73.5 178.5t-192.5 67.5q-201 0 -393 -162q-2 -18 -2 -38q0 -78 47 -140q57 59 128 106.5t103 47.5q6 0 9 -6 q0 -6 -33 -21q-113 -47 -197 -143q63 -76 172 -76q90 0 182.5 51.5t149.5 132.5q4 4 6 5q8 0 8 -9q0 -20 -63 -77q-129 -119 -285 -119q-106 0 -182 78q-104 -135 -104 -261z" />
<glyph unicode="O" horiz-adv-x="1583" d="M502 401q0 176 96 360.5t264 328.5q143 121 324.5 199.5t320.5 78.5q129 0 205 -66.5t76 -179.5q0 -39 -8 -86q41 -100 41 -200q0 -166 -92.5 -337t-258.5 -313q-295 -252 -561 -252q-178 0 -292.5 131.5t-114.5 335.5zM598 309q0 -158 86 -257t223 -99q182 0 379 151 q190 147 316 369q133 231 135 449q-29 -63 -111 -154.5t-110 -91.5q-8 0 -9 8q0 4 15 14q66 45 128 121t87 139q-23 246 -267 246q-215 0 -432 -235q-262 -285 -262 -549q0 -90 50.5 -146.5t131.5 -56.5q147 0 294 205t147 375q0 57 -29 95t-74 38q-12 0 -16 -2h-8 q-8 0 -8 6q0 12 32 12q61 0 100.5 -52t39.5 -134q0 -199 -155 -380t-325 -181q-94 0 -151 68.5t-57 176.5q0 262 240.5 519.5t484.5 257.5q211 0 292 -158q7 30 7 55q0 100 -67 165t-171 65q-219 0 -442 -158q-213 -154 -351 -391q-143 -246 -143 -490z" />
<glyph unicode="P" horiz-adv-x="1554" d="M233 252q0 119 89 244q-4 16 -5 39q0 305 328 558t725 253q283 0 473 -123q176 112 327 112h3q127 0 209 -80.5t82 -205.5q0 -160 -31 -160q-6 2 -6 8q0 4 2 16q16 66 16 123q0 127 -75.5 204t-200.5 77q-145 0 -309 -105q165 -112 165 -264q0 -129 -109.5 -219 t-264.5 -90q-43 0 -90.5 12.5t-47.5 22.5q0 8 9 8q2 0 14 -6q45 -20 104 -21q121 0 208 96.5t87 229.5q0 131 -100 215q-127 -96 -219 -234.5t-242 -457.5q-76 -162 -176 -264.5t-256 -180.5q-201 -100 -367 -100q-156 0 -249 80t-93 213zM252 254q0 -127 87 -203t232 -76 q186 0 336 113t316 379q193 311 323 474t273 267q-162 119 -447 119q-350 0 -649 -231.5t-356 -544.5q113 117 266 158q80 139 204 225t242 86q72 0 118 -46t46 -120q0 -182 -184 -389q-219 -246 -447 -246q-115 0 -190.5 65.5t-97.5 184.5q-72 -111 -72 -215zM362 487 q0 -115 68 -183t182 -68q246 0 465 280q148 188 148 338q0 63 -39 106.5t-96 43.5q-94 0 -199 -76t-186 -205q16 4 45 4q90 0 145 -41t55 -111q0 -29 -8 -28q-8 0 -8 25q0 63 -50 100q-52 39 -141 39q-12 0 -49 -4q-71 -125 -71 -216q0 -45 23.5 -73.5t58.5 -28.5q4 0 8 2h6 q6 0 6 -6q0 -10 -20 -10q-51 0 -86 48t-35 118t39 149q-150 -45 -261 -172v-31z" />
<glyph unicode="Q" horiz-adv-x="1370" d="M102 80q0 78 222 78q190 0 487 -92q322 102 537 371.5t215 563.5q0 154 -80 240t-223 86q-297 0 -574.5 -275.5t-277.5 -568.5q0 -115 64.5 -181t172.5 -66q190 0 375.5 194.5t185.5 394.5q0 66 -38 107t-97 41q-129 0 -269 -152.5t-140 -294.5q0 -39 26.5 -68.5 t61.5 -29.5q12 0 12 -6q0 -8 -14 -8q-49 0 -84 43t-35 104q0 145 145.5 286.5t296.5 141.5q70 0 113 -46t43 -122q0 -102 -63.5 -224t-170.5 -222q-168 -158 -348 -158q-137 0 -225 97.5t-88 248.5q0 287 295 536t635 249q176 0 285.5 -118t109.5 -308q0 -164 -93.5 -333 t-256.5 -298q-188 -150 -471 -234q328 -98 417.5 -120.5t151.5 -22.5q92 0 166 68l8 4q6 -2 6 -9q0 -16 -49 -47q-86 -55 -248 -55q-152 0 -248 19q-129 27 -340 114l-24 10q-127 -30 -277 -30h-10q-287 0 -287 92zM121 80q0 -74 270 -74q156 0 256 23q-303 98 -409 98 q-117 0 -117 -47z" />
<glyph unicode="R" horiz-adv-x="1884" d="M233 252q0 119 89 244q-4 16 -5 39q0 305 328 558t725 253q283 0 473 -123q176 112 327 112h3q127 0 209 -80.5t82 -205.5q0 -160 -31 -160q-6 2 -6 8q0 4 2 16q16 66 16 123q0 127 -75.5 204t-200.5 77q-145 0 -309 -105q153 -112 153 -245q0 -127 -93 -212t-245 -100 q106 -49 107 -186q0 -59 -49 -219q-33 -106 -33 -166q0 -57 38 -94t97 -37q61 0 111 29q14 8 18 8q6 -2 6 -8q0 -14 -49 -31t-90 -17q-90 0 -153.5 76t-63.5 183q0 59 57 243q27 86 27 139q0 47 -33 80q-33 -6 -92 -6q-92 0 -92 17q0 16 69 16q68 0 111 -18 q117 23 192.5 111.5t75.5 207.5q0 133 -94 213q-127 -96 -219 -234.5t-242 -457.5q-76 -162 -176 -264.5t-256 -180.5q-201 -100 -367 -100q-156 0 -249 80t-93 213zM252 254q0 -127 87 -203t232 -76q186 0 336 113t316 379q193 311 323 474t273 267q-162 119 -447 119 q-350 0 -649 -231.5t-356 -544.5q113 117 266 158q80 139 204 225t242 86q72 0 118 -46t46 -120q0 -182 -184 -389q-219 -246 -447 -246q-115 0 -190.5 65.5t-97.5 184.5q-72 -111 -72 -215zM362 487q0 -115 68 -183t182 -68q246 0 465 280q148 188 148 338q0 63 -39 106.5 t-96 43.5q-94 0 -199 -76t-186 -205q16 4 45 4q90 0 145 -41t55 -111q0 -29 -8 -28q-8 0 -8 25q0 63 -50 100q-52 39 -141 39q-12 0 -49 -4q-71 -125 -71 -216q0 -45 23.5 -73.5t58.5 -28.5q4 0 8 2h6q6 0 6 -6q0 -10 -20 -10q-51 0 -86 48t-35 118t39 149 q-150 -45 -261 -172v-31z" />
<glyph unicode="S" horiz-adv-x="1447" d="M270 377q0 170 100.5 336t280.5 299q231 170 457 170q125 0 196.5 -70t71.5 -190q0 -43 -12 -99l256 146q76 158 182.5 267.5t186.5 109.5q47 0 47 -39q0 -47 -96.5 -137.5t-235.5 -174.5q-23 -74 -53 -207q-55 -238 -102.5 -335t-155.5 -199q-311 -295 -701 -295 q-164 0 -276 88q-55 -98 -56 -178q0 -82 48 -145q6 -6 6 -11q0 -10 -8 -10q-20 0 -44 56.5t-24 107.5q0 90 61 192q-129 121 -129 318zM344 311q0 -150 70 -227q76 117 221 250q-29 55 -29 112q0 182 157 342t335 160q63 0 101 -33.5t38 -91.5q0 -37 -14 -37q-6 0 -6 9l2 12 q2 4 2 14q0 106 -117 107q-150 0 -303.5 -172t-153.5 -340q0 -35 10 -62q209 182 684 455q17 80 17 117q0 109 -65.5 173t-176.5 64q-266 0 -519 -278.5t-253 -573.5zM428 68q104 -90 266 -91q186 0 362.5 106.5t303.5 295.5q59 88 93 162.5t110 283.5q16 45 47 119 q-31 -18 -117 -67q-94 -53 -135 -78q-59 -221 -228 -393.5t-329 -172.5q-100 0 -156 84q-150 -143 -217 -249zM666 336q43 -86 143 -86q141 0 303 163.5t223 370.5q-485 -283 -669 -448zM1712 1020q131 80 218 162t87 123q0 24 -26 24h-2q-66 0 -149 -92t-128 -217z" />
<glyph unicode="T" horiz-adv-x="1376" d="M225 311q0 170 134.5 322.5t338.5 214.5q201 315 537 401q-80 104 -225 105q-131 0 -267 -82q-121 -74 -206 -189q-10 -12 -15 -12q-6 0 -8 6q0 16 82 99q196 194 408 194h2q168 0 256 -115q125 35 276 35q80 0 146.5 -10t349.5 -68q238 100 446 101q219 0 219 -86 q0 -53 -108.5 -91t-266.5 -38q-162 0 -387 43q-127 -68 -227 -191t-217 -354t-171 -308t-151 -149q-248 -186 -528 -186q-188 0 -303 98.5t-115 259.5zM279 254q0 -121 97 -203t240 -82q281 0 498 246q106 121 260 375q254 420 539 555q-90 16 -162 33q-246 55 -387 55 q-18 0 -88 -4q49 -88 49 -201q0 -217 -162 -405q4 -45 4 -52q0 -172 -150.5 -321.5t-322.5 -149.5q-94 0 -158.5 65.5t-64.5 162.5q0 150 152 266q-2 12 -2 27q0 84 59 196q-176 -74 -288.5 -231.5t-112.5 -331.5zM514 299q0 -84 50 -132t136 -48q160 0 304.5 146t144.5 308 q0 16 -2 31q-160 -182 -346 -182q-131 0 -170 123q-117 -115 -117 -246zM639 606q119 74 225 74q47 0 95.5 -27.5t48.5 -54.5q0 -6 -7 -6q-4 0 -18 20q-35 51 -109 52q-113 0 -229 -105q41 -117 148 -117q172 1 344 228q-63 182 -269 182q-70 0 -163 -27q-66 -116 -66 -213 v-6zM723 854q66 16 137 16q219 0 289 -184q137 194 137 387q0 78 -37 152q-317 -51 -526 -371zM2068 1204q12 -2 134 -24q160 -31 274 -31q88 0 147.5 21.5t59.5 54.5q0 29 -56.5 49t-138.5 20q-221 0 -420 -90z" />
<glyph unicode="U" horiz-adv-x="1851" d="M299 547q0 330 344 598q133 104 290 167.5t281 63.5q152 0 236 -82t84 -227q0 -123 -60.5 -233.5t-304.5 -434.5q-106 -141 -139 -201.5t-33 -113.5q0 -49 30 -81t77 -32q152 0 416 302t688 958q53 -4 59 -4q39 0 96 10q-694 -952 -694 -1229q0 -68 44 -111.5t114 -43.5 q119 0 233 127q8 10 15 10q6 0 6 -8q0 -10 -35 -41q-119 -104 -219 -105q-96 0 -158.5 74t-62.5 186q0 195 198 506l-32 -43l-48 -65q-182 -254 -348 -396.5t-276 -142.5q-72 0 -116 52t-44 138q0 90 49 181.5t217 310.5q176 231 224.5 321.5t48.5 192.5q0 96 -71 151.5 t-191 55.5q-305 0 -588 -278.5t-283 -577.5q0 -113 63.5 -181.5t168.5 -68.5q201 0 383 225q192 237 192 430q0 168 -135 168q-137 0 -280.5 -162.5t-143.5 -318.5q0 -39 23.5 -67.5t56.5 -28.5h8q6 2 12 2q8 0 8 -8q0 -10 -20 -11q-57 0 -93 45t-36 117q0 150 153.5 300.5 t307.5 150.5q158 0 157 -183q0 -197 -188 -434q-193 -244 -405 -244q-125 0 -202 86.5t-77 227.5z" />
<glyph unicode="V" horiz-adv-x="1533" d="M307 504q0 281 277.5 553t564.5 272q170 0 274.5 -117.5t104.5 -308.5q0 -205 -115 -430t-371 -522q-10 -12 -10 -14l2 -3q16 0 125 93q84 72 172 168q80 86 422 475q203 229 356.5 362t344.5 242q311 178 548 178q82 0 82 -29q0 -25 -28 -24h-17q-55 6 -90 6 q-258 0 -608 -225q-168 -109 -282.5 -219.5t-426.5 -464.5q-367 -418 -553 -553q-98 -72 -108 -72q-6 0 -6 6l22 31q176 229 303 542.5t127 524.5q0 338 -274 338q-109 0 -249 -74t-257 -192q-127 -129 -202 -288t-75 -296q0 -121 66 -193.5t176 -72.5q233 0 434 286 q135 193 135 340q0 172 -141 172q-129 0 -270.5 -175t-141.5 -337q0 -121 84 -121h9q4 2 10 3q6 -2 6 -7q0 -12 -25 -12q-57 0 -94 50t-37 126q0 168 151.5 329t309.5 161q72 0 115 -50.5t43 -134.5q0 -166 -143 -362q-207 -285 -449 -285q-127 0 -209 91t-82 233z" />
<glyph unicode="W" horiz-adv-x="1892" d="M307 520q0 295 275 561q287 279 551 279q156 0 261 -123t105 -299q0 -193 -153.5 -458t-387.5 -474q-23 -20 -22 -22q0 -4 4 -4q29 0 199 174q221 225 643 780q119 156 229.5 275.5t136.5 119.5q6 0 6 -4t-6 -12q-63 -84 -102 -170q-41 -96 -133 -373q-98 -299 -180 -455 q-84 -162 -211 -290q-2 -4 -4 -7q0 -4 4 -4q14 0 143 131q76 76 492 580q207 250 374.5 398.5t372.5 262.5q281 158 494 158h4q63 0 63 -28q0 -25 -31 -25h-14q-31 4 -74 4q-233 0 -559 -207q-184 -117 -309 -241.5t-436 -501.5q-369 -444 -578 -600l-14 -11 q-54 -40 -65 -40h-1q-6 0 -6 4q0 2 13 14q137 131 278 518q117 319 148 389q96 225 202 363q4 6 11 14q0 2 -2 4q-2 0 -13 -10l-10 -10q-49 -49 -330 -428q-377 -510 -665 -738q-154 -121 -179 -120q-6 2 -6 6t13 14q199 180 377 538.5t178 573.5q0 145 -72 230t-193 85 q-260 0 -515 -289.5t-255 -582.5q0 -121 67 -195.5t175 -74.5q242 0 436 309q119 188 119 336q0 82 -38 131t-103 49q-125 0 -265.5 -179t-140.5 -341q0 -131 94 -131h17q4 2 10 2t6 -6q0 -14 -35 -15q-57 0 -94 54.5t-37 136.5q0 168 147.5 331.5t299.5 163.5q72 0 115 -52 t43 -140q0 -166 -125 -359q-199 -307 -453 -307q-127 0 -208 94.5t-81 243.5z" />
<glyph unicode="X" horiz-adv-x="2060" d="M197 205q0 117 81.5 221t210.5 152q-6 37 -6 57q0 287 326 514q289 203 534 203q141 0 225.5 -80t84.5 -213q0 -117 -72 -307l96 96q264 264 445.5 382t326.5 118q92 0 151.5 -47t59.5 -121q0 -33 -18.5 -73t-34.5 -40q-10 0 -10 10q0 4 14 21q31 29 31 80q0 59 -47 98 t-119 39q-225 0 -584 -299q-53 -43 -327 -303q-158 -403 -158 -529q0 -207 192 -207q172 0 375 207t203 371q0 74 -45 118t-121 44q-82 0 -188.5 -62.5t-182.5 -154.5q-12 -18 -20 -19q-6 2 -6 6q0 10 49 60q190 188 352 188q82 0 137.5 -57t55.5 -143q0 -193 -209 -384.5 t-416 -191.5q-117 0 -194.5 81t-77.5 202q0 119 84 325q-20 -18 -82 -82q-264 -285 -462 -411.5t-380 -126.5q-119 0 -196.5 73.5t-77.5 184.5zM219 203q0 -102 67.5 -167t174.5 -65q162 0 362.5 128t489.5 413q27 27 98 94q111 270 136.5 353t25.5 161q0 100 -58.5 158.5 t-160.5 58.5q-150 0 -319 -87t-316 -238q-193 -201 -197 -422q59 14 105 14q49 0 49 -10q-2 -6 -8 -6h-9l-38 2h-7q-33 0 -90 -17q25 -206 252 -206h2q240 0 463 251q160 180 160 332q0 61 -41 100.5t-105 39.5q-143 0 -307 -167t-164 -313q0 -40 26 -70q24 -28 56 -28h4 q12 0 13 -6q0 -6 -15 -6q-55 0 -89 41t-34 110q0 158 167 306.5t341 148.5q74 0 120 -43t46 -113q0 -195 -225 -407q-207 -195 -414 -195q-229 0 -288 215q-125 -51 -199 -148.5t-74 -211.5z" />
<glyph unicode="Y" horiz-adv-x="1810" d="M229 580q0 297 319.5 546.5t637.5 249.5q150 0 237.5 -86t87.5 -233q0 -135 -61 -251t-287 -403q-33 -41 -69 -100q20 2 49 2q174 0 332 -90q129 127 321 367q223 279 381 407q123 100 152 101q10 -1 10 -13q0 -4 -21 -18q-289 -205 -559 -768q-74 -152 -127 -240 q41 -82 41 -170q0 -217 -194 -373q-106 -86 -146 -86q-8 0 -8 9q0 6 43 26q129 63 208 181t79 247q0 82 -33 150q-96 -158 -157.5 -231.5t-161.5 -149.5q-152 -117 -318 -184.5t-301 -67.5q-166 0 -267.5 90t-101.5 236q0 195 185.5 351.5t480.5 211.5q25 78 64.5 140.5 t173.5 234.5q233 301 233 464q0 109 -72.5 170.5t-201.5 61.5q-305 0 -605.5 -278.5t-300.5 -563.5q0 -111 70 -178.5t182 -67.5q180 0 361 168q109 102 175 225.5t66 225.5q0 66 -38.5 106.5t-102.5 40.5q-141 0 -297 -174t-156 -331q0 -45 24 -75t58 -30q4 0 13 2h4 q8 0 8 -6q0 -10 -21 -10q-53 0 -87.5 45t-34.5 112q0 170 158.5 327t328.5 157q72 0 116 -44t44 -120q0 -201 -204 -419t-419 -218q-131 0 -211 89t-80 235zM375 -319q0 -119 87 -190t230 -71q461 0 854 721q-29 27 -69 54q-209 -201 -340 -201q-76 0 -123 53t-47 139 q0 31 8 82q-258 -61 -429 -228t-171 -359zM1026 127q0 -117 113 -117q122 0 323 193q-139 84 -315 84q-37 0 -66 -2q-55 -94 -55 -158zM1489 207q41 -27 65 -51q12 25 78 139q54 92 148 244q-176 -217 -291 -332z" />
<glyph unicode="Z" horiz-adv-x="1411" d="M70 -346q0 195 204.5 329t503.5 134q258 0 451 -119q-29 193 -281 225q-96 -39 -170 -39q-35 0 -35 13q0 35 203 39q145 57 271 178t428 491q-123 14 -174.5 78t-71.5 225q-18 147 -189 148q-227 0 -485 -205q-305 -244 -305 -494q0 -106 75.5 -169.5t202.5 -63.5 q188 0 380 167t192 329q0 66 -40 103.5t-108 37.5q-131 0 -297 -147.5t-166 -264.5q0 -51 62 -88q10 -6 10 -10q0 -6 -6 -6q-33 0 -65.5 45t-32.5 90q0 137 158.5 268t326.5 131q82 0 129 -42t47 -113q0 -176 -195.5 -349.5t-394.5 -173.5q-145 0 -232 84t-87 222 q0 215 215 401q141 123 313 195.5t320 72.5q174 0 248 -121q37 -59 50 -196q13 -135 132 -135h4q123 143 241.5 241.5t172.5 98.5q36 0 36 -33q0 -66 -145 -182.5t-252 -137.5q-188 -330 -314 -446.5t-417 -231.5q154 -10 251 -98t101 -221q113 -106 113 -258 q0 -209 -223 -354q-49 -33 -126 -61.5t-112 -28.5q-10 0 -10 8q0 10 16 12q170 25 301 156t131 276q0 123 -90 221q-12 -168 -121.5 -296t-302 -203.5t-399.5 -75.5q-195 0 -318.5 96t-123.5 248zM127 -393q0 -121 106.5 -200t270.5 -79q264 0 496.5 198t232.5 421v28 q-172 115 -418 115q-268 0 -478 -147.5t-210 -335.5zM1729 932q147 37 296 201q66 71 66 96q0 16 -18 16q-47 0 -157 -99t-187 -214z" />
<glyph unicode="[" horiz-adv-x="899" d="M287 -152l905 1598h47q119 0 160 4h18q25 0 25 -10t-17.5 -12.5t-124.5 -4.5l-876 -1552q129 0 129 -8q0 -16 -45 -17z" />
<glyph unicode="\" d="M633 -207l459 1694h24l-459 -1694h-24z" />
<glyph unicode="]" horiz-adv-x="899" d="M49 -143q0 10 18.5 12t125.5 4l876 1550h-25l-40 2q-25 -2 -46 -2q-12 0 -18 9q0 18 45 18q49 0 90 -2t74 -2q30 0 57 2l-905 -1600q-20 2 -47 2q-29 0 -87 -2t-73 -2h-20q-25 0 -25 11z" />
<glyph unicode="^" horiz-adv-x="540" d="M-461 -580q0 182 228.5 358.5t465.5 176.5q33 0 54 -4q41 86 159 295q-176 -256 -264 -256q-41 0 -71.5 33.5t-30.5 80.5q0 59 72 179l155 260q45 -4 53 -4q31 0 70 8l-197 -322q-80 -131 -79 -180q0 -41 36 -41q104 0 332 381l94 158q23 -4 56 -4q28 0 67 8 q-205 -319 -354 -623q131 -45 131 -176q0 -135 -147.5 -254t-315.5 -119q-61 0 -96 17q-156 -119 -272 -119q-63 0 -104.5 41t-41.5 106zM-430 -592q0 -53 30.5 -87t77.5 -34q100 0 242 119q-115 61 -115 166q0 88 86 170q39 37 50 37q4 0 4 -4q0 -6 -23 -23 q-102 -74 -102 -182q0 -98 110 -156q171 150 351 525q-25 2 -56 2q-225 0 -440 -175.5t-215 -357.5zM-33 -600q45 -10 80 -10q164 0 309.5 114.5t145.5 245.5q0 123 -121 164q-98 -195 -187.5 -304.5t-226.5 -209.5z" />
<glyph unicode="_" horiz-adv-x="1024" d="M94 -170h1024v-43h-1024v43z" />
<glyph unicode="`" horiz-adv-x="1024" d="M762 866l86 60q-16 -49 -17 -97q0 -104 56 -178q8 -8 8 -12q-2 -4 -6 -4q-25 0 -65 73.5t-62 157.5z" />
<glyph unicode="a" horiz-adv-x="704" d="M104 137q0 193 271 340q119 66 192 66q61 0 62 -60q0 -18 -8 -45l51 97q31 -6 53 -7q27 0 70 7l-177 -293q-92 -154 -92 -203q0 -47 39 -47t127 91t180 226q4 10 11 10q6 0 6 -6q0 -20 -146 -194q-119 -141 -186 -142q-45 0 -74.5 34t-29.5 87t32 117 q-100 -139 -153 -188.5t-103 -49.5q-53 0 -89 45.5t-36 114.5zM178 57q0 -65 56 -65h2q70 0 239 229q139 188 139 258q0 49 -45 49q-92 0 -241.5 -180t-149.5 -291z" />
<glyph unicode="b" horiz-adv-x="538" d="M94 119q0 76 96 229l414 664q27 -8 58 -8q24 0 61 6l-449 -709q104 143 156.5 192.5t99.5 49.5q55 0 91 -45t36 -115q0 -152 -192 -297q-143 -109 -254 -109q-51 0 -84 39t-33 103zM147 45q0 -53 52 -53q90 0 237.5 180t147.5 289q0 67 -54 67h-2q-74 0 -249 -241 q-131 -180 -132 -242z" />
<glyph unicode="c" horiz-adv-x="495" d="M109 158q0 84 68.5 174t182.5 155q96 55 158 56q74 0 74 -88q0 -70 -46 -138.5t-93 -68.5q-45 0 -45 45q0 53 92 98q71 35 71 90q0 47 -49 47q-82 0 -203.5 -164.5t-121.5 -277.5q0 -94 88 -94q66 0 170 86t204 225q12 16 19 16q4 -2 4 -6q0 -14 -141 -168 q-154 -168 -262 -168q-70 0 -120 53.5t-50 127.5z" />
<glyph unicode="d" horiz-adv-x="704" d="M104 137q0 166 205 299q162 106 256 107q61 0 62 -60q0 -29 -17 -63l357 598q33 -10 65 -10q9 0 62 4q-375 -596 -473.5 -763t-98.5 -212t41 -45q90 0 309 317q4 10 11 10q6 0 6 -6q0 -4 -10 -16l-43 -59q-188 -260 -279 -261q-45 0 -74.5 35t-29.5 88t36 125 q-174 -248 -260 -248q-53 0 -89 45.5t-36 114.5zM178 59q0 -67 53 -67h2q80 0 275 278q104 150 104 205q0 53 -49 53q-90 0 -237.5 -180t-147.5 -289z" />
<glyph unicode="e" horiz-adv-x="503" d="M109 154q0 180 251 317q131 72 215 72q35 0 61 -21.5t26 -52.5q0 -72 -93.5 -122t-314.5 -95q-68 -102 -68 -172q0 -86 93 -86q158 0 387 309q12 16 20 16q4 -2 4 -6t-18 -26l-43 -54q-207 -256 -355 -256q-72 0 -118.5 50.5t-46.5 126.5zM262 266q143 37 243.5 105 t100.5 127q0 32 -33 32h-2q-53 0 -139 -73.5t-170 -190.5z" />
<glyph unicode="f" horiz-adv-x="272" d="M-623 -481q0 10 11 10q8 0 12 -2q35 -10 68 -10q135 0 272 121q84 74 147 174q51 80 246 436l154 280h-107l8 15h109q127 217 282.5 375.5t239.5 158.5q45 0 45 -47q0 -88 -126 -223t-330 -264h172l-9 -15h-174l-82 -159q-152 -295 -258 -444.5t-247 -266.5 q-193 -160 -359 -160q-74 0 -74 21zM416 563q164 113 300 259.5t136 209.5q0 33 -33 33q-76 0 -207 -174q-66 -88 -196 -328z" />
<glyph unicode="g" horiz-adv-x="686" d="M-285 -582q0 205 463 416q100 45 129 62l170 313q-111 -147 -157 -189.5t-93 -42.5q-53 0 -89 46.5t-36 111.5q0 172 226 314q152 94 237 94q59 0 60 -66q0 -18 -9 -43l56 101q29 -6 47 -7q27 0 76 7q-6 -8 -88 -150l-248 -428q131 74 210 143.5t177 198.5q16 20 20 20 q4 -2 4 -6q0 -16 -108 -137q-121 -133 -313 -239l-50 -91q-137 -252 -302 -385t-283 -133q-43 0 -71 25.5t-28 64.5zM-248.5 -636q23.5 -21 58.5 -21q111 0 215 112.5t260 403.5l12 20q-18 -10 -113 -57q-456 -225 -456 -405q0 -32 23.5 -53zM178 59q0 -67 56 -67h2 q59 0 200 178q178 225 178 307q0 51 -49 51q-90 0 -238.5 -180t-148.5 -289z" />
<glyph unicode="h" horiz-adv-x="641" d="M-12 -18l147 266q31 57 92 168q33 53 203 344l152 258q31 -6 51 -6q39 0 76 10q-102 -168 -310 -500q-6 -10 -155 -258q188 279 297 279q43 0 73.5 -37t30.5 -90q0 -68 -88 -199q-98 -145 -98 -182q0 -43 43 -43q78 0 258 252l31 43l18 22q4 10 12 10q4 0 4 -4 q0 -8 -10 -18l-43 -59q-188 -260 -280 -261q-47 0 -78 34t-31 87q0 70 76 183q119 176 119 208q0 39 -41 39q-59 0 -162 -115.5t-277 -430.5q-31 6 -51 6q-23 0 -59 -6z" />
<glyph unicode="i" horiz-adv-x="344" d="M78 94q0 57 69 176l156 265q31 -6 49 -7q27 0 76 7l-227 -373q-49 -80 -49 -125t47 -45q90 0 313 317q4 10 10 10t6 -6q0 -4 -10 -16l-43 -59q-188 -260 -287 -261q-47 0 -78.5 33t-31.5 84zM375 676q0 33 30.5 63.5t65.5 30.5q43 0 43 -43q0 -35 -29.5 -65.5 t-64.5 -30.5q-45 0 -45 45z" />
<glyph unicode="j" horiz-adv-x="309" d="M-659 -578q0 115 155 236q84 66 144 100q92 51 280 133l14 7l175 311q74 127 188 326q29 -6 47 -7q29 0 74 7q-80 -129 -242 -410l-92 -168q129 72 210 143.5t177 198.5q12 20 21 20q4 0 4 -4q0 -14 -113 -141t-309 -237l-51 -89q-154 -266 -306 -389 q-160 -131 -274 -131q-102 0 -102 94zM-645 -582q0 -33 24.5 -54t59.5 -21q104 0 209 116q86 98 266 400l12 20q-285 -145 -362 -198q-209 -143 -209 -263zM389 676q0 33 30 62.5t62 29.5q43 0 43 -43q0 -35 -29.5 -63.5t-64.5 -28.5q-41 0 -41 43z" />
<glyph unicode="k" horiz-adv-x="616" d="M-20 -18q23 39 51 88l116 202q25 45 78 136l367 614q41 -8 61 -8q21 0 64 8q-59 -98 -180 -295l-172 -278q-86 -139 -146 -252q-68 -125 -108 -195l-13 -20q-27 6 -53 6q-23 0 -65 -6zM301 319q0 16 33 17q33 0 59 -10q49 23 160 149q59 68 121 68q76 0 76 -72 q0 -47 -38 -95t-77 -48q-43 0 -43 39q0 37 65 77q27 16 27 48q0 25 -31 24q-43 0 -108 -76q-82 -96 -135 -118q104 -47 104 -111q0 -35 -49 -135q-20 -41 -21 -58q0 -27 33 -26q94 0 307 317q6 10 13 10q6 0 6 -6q0 -4 -10 -16l-43 -59q-188 -260 -285 -261q-43 0 -76 29 t-33 66q0 33 56 143q20 41 20 59q0 23 -33 41q-39 -16 -63 -16q-35 0 -35 20z" />
<glyph unicode="l" horiz-adv-x="327" d="M84 92q0 55 25.5 106.5t173.5 297.5q182 301 305 522q31 -8 53 -8q37 0 70 12q-420 -698 -489.5 -821t-69.5 -164q0 -45 38 -45q84 0 308 317q4 10 12 10q4 -2 4 -6q0 -6 -10 -16l-43 -59q-188 -260 -279 -261q-43 0 -70.5 32t-27.5 83z" />
<glyph unicode="m" horiz-adv-x="1114" d="M125 -14l143 225q147 231 148 287q0 31 -23 30q-49 0 -203 -215q-10 -14 -16 -14q-4 2 -4 6q0 10 91 124t140 114q33 0 55.5 -31t22.5 -72q0 -57 -59 -161q180 264 268 264q41 0 68.5 -34t27.5 -85q0 -57 -53 -145q190 264 285 264q43 0 72.5 -37t29.5 -90 q0 -47 -22.5 -93.5t-112.5 -179.5q-49 -74 -49 -110q0 -41 41 -41q78 0 258 252l31 43l18 22q4 10 10 10t6 -6q0 -4 -10 -16l-43 -59q-188 -260 -278 -261q-47 0 -77 35t-30 90q0 45 18.5 83t92.5 145q84 121 84 157q0 41 -41 41q-131 0 -453 -542q-20 4 -55 4q-41 0 -70 -4 l142 225q139 221 139 272q0 45 -37 45q-55 0 -180 -158.5t-248 -383.5q-23 4 -59 4q-39 0 -68 -4z" />
<glyph unicode="n" horiz-adv-x="800" d="M127 -14l156 247q133 211 133 265q0 31 -25 30q-51 0 -201 -215q-10 -12 -14 -14q-6 0 -6 6q0 4 4 8l19 25q154 205 206 205q33 0 57.5 -31t24.5 -74q0 -63 -75 -178q119 162 182 222.5t117 60.5q45 0 74.5 -36t29.5 -89q0 -66 -93 -206t-93 -179q0 -41 41 -41 q90 0 307 317q4 10 10 10t6 -6q0 -20 -145 -194q-119 -141 -187 -142q-45 0 -75.5 35t-30.5 86q0 45 18.5 83t98 156t79.5 150q0 41 -43 41q-145 0 -450 -542q-49 4 -59 4q-35 0 -66 -4z" />
<glyph unicode="o" horiz-adv-x="593" d="M109 145q0 154 202 297q141 100 234 101q86 0 86 -92q0 -115 -121 -277q20 -12 45 -12q45 0 104.5 42t98.5 101q12 14 16 14t4 -4q0 -16 -59 -75q-88 -88 -162 -88q-31 0 -55 12q-131 -186 -248 -187q-59 0 -102 49.5t-43 118.5zM190 63q0 -69 64 -69h2q109 0 236 178 q-29 31 -29 66q0 49 39 101t76 52q16 0 22 -20q16 35 16 78q0 81 -71 81h-2q-90 0 -221.5 -174t-131.5 -293z" />
<glyph unicode="p" horiz-adv-x="542" d="M-358 -557l821 1350q27 -8 53 -9q27 0 66 9l-297 -480q106 141 155 185.5t97 44.5q53 0 89 -46t36 -114q0 -164 -203 -297q-164 -109 -258 -109q-63 0 -64 60q0 18 10 49l-383 -639q-35 8 -57 8q-33 0 -65 -12zM152 43q0 -51 47 -51q92 0 240.5 179t148.5 292 q0 65 -56 65h-2q-74 0 -245 -235q-133 -182 -133 -250z" />
<glyph unicode="q" horiz-adv-x="591" d="M10 -545l469 752q-4 -6 -39 -51q-133 -178 -215 -179q-51 0 -87 46.5t-36 113.5q0 160 205 297q164 109 258 109q61 0 62 -60q0 -20 -15 -57l60 109q18 -4 47 -5q23 1 72 7q-94 -160 -322 -531q-121 -203 -281 -469q-16 -27 -51 -82q-33 8 -63 8q-33 0 -64 -8zM178 57 q0 -65 56 -65h2q70 0 237 225q139 188 139 262q0 49 -45 49q-90 0 -239.5 -180t-149.5 -291z" />
<glyph unicode="r" horiz-adv-x="569" d="M127 -14l164 266q123 201 123 248q0 29 -23 28q-55 0 -203 -215q-10 -14 -16 -14q-4 2 -4 6t4 8l18 25q154 205 209 205q80 0 80 -103q0 -78 -82 -204q51 59 99 98q39 88 95 148.5t101 60.5q31 0 31 -27q0 -47 -139 -137q-20 -14 -66 -41l-12 -10q-14 -45 -14 -76 q0 -84 63 -84q78 0 170 129q20 23 25 22q6 0 6 -6q0 -8 -60 -73q-76 -84 -143 -84q-76 0 -76 88q0 29 12 71q-63 -55 -102 -109t-137 -220q-53 4 -62 4q-4 0 -61 -4z" />
<glyph unicode="s" horiz-adv-x="399" d="M29 119q0 76 53 146.5t111 70.5q10 0 18 -4l80 98q37 43 96 119q16 70 52 120t69 50q16 -1 16 -17q0 -41 -125 -159q-6 -31 -6 -54q0 -59 53 -184q27 -63 27 -106q0 -90 -88 -156t-207 -66q-68 0 -108.5 39t-40.5 103zM49 94q0 -41 28.5 -67.5t72.5 -26.5q84 0 159.5 97 t75.5 210q0 29 -2 58.5t-2 85.5q0 45 4 75q-55 -72 -162 -200q18 -16 19 -39q0 -59 -97 -80q-39 -8 -67.5 -42t-28.5 -71z" />
<glyph unicode="t" horiz-adv-x="337" d="M78 96q0 59 53 150l168 282h-102l10 15h100l117 194q31 -8 57 -8q27 0 58 8l-115 -194h131l-8 -15h-131l-223 -381q-41 -70 -41 -110q0 -45 47 -45q92 0 307 317q6 10 12 10t6 -6q0 -4 -10 -16l-43 -59q-188 -260 -283 -261q-47 0 -78.5 34t-31.5 85z" />
<glyph unicode="u" horiz-adv-x="641" d="M78 96q0 57 45 133l182 306q35 -6 53 -7q18 0 68 7l-238 -392q-36 -59 -36 -104q0 -47 38 -47q100 0 324 377l98 166q31 -6 52 -7q27 0 71 7l-160 -261q-114 -184 -114 -238q0 -44 41 -44q80 0 260 252l31 43l18 22q4 10 10 10t6 -6q0 -23 -145 -194q-121 -141 -190 -142 q-43 0 -74 35t-31 86q0 39 39 109l-20 -27q-92 -119 -134 -157q-49 -45 -90 -46q-45 0 -74.5 34t-29.5 85z" />
<glyph unicode="v" horiz-adv-x="559" d="M78 98q0 59 67 172l158 265q49 -4 66 -5q37 0 59 5l-209 -338q-70 -115 -69 -158q0 -47 53 -47q49 0 100 45t148 170q-8 31 -9 53q0 90 55.5 186.5t108.5 96.5q25 0 25 -29q0 -74 -166 -309q20 -45 65 -45q76 0 185 135q20 25 26 24q4 0 4 -4q0 -12 -63 -77 q-86 -90 -152 -91q-45 0 -73 48q-88 -123 -144.5 -170.5t-113.5 -47.5q-51 0 -86 35t-35 86z" />
<glyph unicode="w" horiz-adv-x="868" d="M78 96q0 57 59 158l166 281q41 -6 59 -7q16 0 66 7l-227 -371q-53 -86 -54 -127q0 -45 41 -45q45 0 134.5 100.5t177.5 249.5l112 193q53 -4 68 -5q35 0 57 5l-209 -338q-70 -113 -69 -156q0 -49 51 -49q102 0 248 215q-6 37 -6 55q0 90 56 185.5t107 95.5q23 0 23 -31 q0 -84 -164 -307q25 -45 66 -45q76 0 184 135q20 25 27 24q4 0 4 -4q0 -12 -64 -77q-86 -90 -151 -91q-43 0 -74 48q-88 -123 -144.5 -170.5t-113.5 -47.5q-51 0 -85 34t-34 85q0 41 27 101q-150 -219 -236 -220q-43 0 -72.5 35t-29.5 84z" />
<glyph unicode="x" horiz-adv-x="712" d="M94 61q0 51 37 95.5t80 44.5q53 0 53 -51q0 -57 -82 -80q-45 -12 -45 -45q0 -31 37 -31q74 0 170 135q152 213 152 338q0 61 -56 61q-94 0 -243 -206q-16 -23 -23 -23q-4 2 -4 6q0 18 99.5 128t176.5 110q59 0 98.5 -41t39.5 -103q0 -31 -15 -67q137 211 238 211 q76 0 76 -82q0 -49 -33 -91t-72 -42q-49 0 -49 51q0 49 72 70q45 14 45 47t-41 32q-84 0 -206 -171t-122 -289q0 -76 72 -76q104 0 321 305q16 23 21 22q6 0 6 -6l-4 -8l-12 -16q-131 -174 -204 -243t-134 -69q-59 0 -104.5 46.5t-45.5 107.5q0 27 15 76 q-135 -229 -238 -230q-33 0 -54.5 25t-21.5 59z" />
<glyph unicode="y" horiz-adv-x="630" d="M-344 -582q0 201 463 416q39 18 114 53l15 9l176 313q-104 -143 -151.5 -187.5t-94.5 -44.5q-41 0 -71.5 35t-30.5 82q0 57 71 178l154 260q23 -4 53 -4q27 0 72 7l-197 -320q-84 -137 -84 -178q0 -45 41 -45q109 0 332 383l92 157q23 -4 56 -4q29 0 67 7 q-125 -197 -336 -578q121 63 205 137t189 207q14 18 18 18q6 0 6 -6q0 -16 -110 -137q-121 -133 -318 -242l-49 -88q-145 -260 -303 -387q-164 -131 -283 -131q-41 0 -68.5 25.5t-27.5 64.5zM-330 -584q0 -75 82 -75h2q106 0 211 115.5t260 402.5q1 0 13 20q-16 -8 -113 -57 q-455 -225 -455 -406z" />
<glyph unicode="z" horiz-adv-x="571" d="M-369 -567q0 111 160 231q84 63 430 215q68 31 127 64q16 45 17 84q0 75 -78 75h-2q-23 0 -35 -2l-14 -12l-37 -35q-94 -88 -121 -88q-25 0 -25 23q0 63 185 121q279 211 426 329l-21 -14q-55 -39 -102 -39q-33 0 -82 41t-80 41q-61 0 -186 -156q-12 -12 -17 -12 q-4 2 -4 6q0 16 92 115q111 119 189 119q31 0 133 -66q34 -22 61 -22h2q14 0 31 8l12 16l33 41q23 29 45 29q16 -1 16 -13q0 -33 -92 -86q-102 -86 -346 -270q-31 -23 -84 -63l29 2h9q41 0 76 -32q38 -36 48 -93q57 33 158.5 134t150.5 177q12 18 19 18q4 0 4 -4 q0 -20 -110.5 -143t-219.5 -199v-26q0 -111 -79 -237t-195 -204q-254 -168 -406 -168q-117 0 -117 95zM-356 -571q0 -78 102 -78q143 0 329.5 180t266.5 395q-25 -14 -285 -135q-193 -88 -303 -185.5t-110 -176.5z" />
<glyph unicode="{" horiz-adv-x="544" d="M-674 -524q0 31 119 30q39 0 98 -8q96 41 180 131t201 283l547 893q20 -10 45 -10q31 0 68 10l-297 -481q109 141 157 185t97 44q51 0 87 -46t36 -112q0 -164 -203 -299q-160 -106 -256 -106q-66 0 -66 59q0 16 11 49q-186 -315 -292 -423.5t-298 -180.5q41 -8 133 -37 q262 -82 440 -82q213 0 364.5 108.5t151.5 262.5q0 84 -57 137.5t-150 53.5q-131 0 -235.5 -83t-104.5 -188q0 -63 47.5 -100t126.5 -37q109 0 168 65q4 4 7 5q4 0 4 -5q0 -27 -59.5 -53t-116.5 -26q-86 0 -144.5 43t-58.5 106q0 109 118.5 197t266.5 88q102 0 166.5 -53.5 t64.5 -135.5q0 -158 -193.5 -288.5t-422.5 -130.5q-147 0 -383 94q-100 41 -146 53q-78 -29 -149 -29q-72 0 -72 17zM154 55q0 -51 47 -51q92 0 240.5 179t148.5 290q0 66 -58 66q-76 0 -245 -234q-133 -182 -133 -250z" />
<glyph unicode="|" horiz-adv-x="1024" d="M819 -342v1708h39v-1708h-39z" />
<glyph unicode="}" horiz-adv-x="595" d="M-309 -539q0 31 116 31q35 0 101 -8q98 43 181 132t200 282l200 331q-115 -152 -161.5 -195.5t-98.5 -43.5q-53 0 -86.5 45t-33.5 115q0 164 200 296q162 106 260 107q59 0 60 -59q0 -27 -31 -93l76 146q18 -4 47 -4q43 0 74 4l-283 -465q-25 -43 -41 -70 q-137 -248 -248.5 -355.5t-298.5 -176.5q25 -6 133 -37q260 -80 441 -80q213 0 364.5 108.5t151.5 260.5q0 84 -57.5 137t-149.5 53q-131 0 -235.5 -84t-104.5 -186q0 -63 47 -100t127 -37q109 0 168 65q4 4 6 4q4 0 4 -4q0 -27 -59.5 -53.5t-116.5 -26.5q-86 0 -144.5 43 t-58.5 107q0 109 119 196.5t266 87.5q102 0 167 -53t65 -135q0 -156 -193.5 -288t-423.5 -132q-154 0 -383 94q-88 37 -145 54q-78 -29 -150 -29t-71 16zM180 70q0 -66 58 -66q72 0 237 225q139 189 139 263q0 47 -45 47q-90 0 -239.5 -179.5t-149.5 -289.5z" />
<glyph unicode="~" horiz-adv-x="630" d="M-12 -8q33 59 88 160q94 174 178 311l96 158q-141 78 -141 190q0 137 147.5 248.5t329.5 111.5q111 0 174 -34q135 74 227 73q156 1 156 -155q0 -172 -220 -323.5t-470 -151.5q-61 0 -109 12q-72 -115 -196 -318q193 281 297 281q45 0 74.5 -38t29.5 -91q0 -45 -21.5 -87 t-111.5 -175q-55 -82 -55 -121t37 -39q80 0 311 320q10 14 14 14q6 0 6 -6t-12 -23q-4 -6 -59 -78q-111 -145 -164 -193t-100 -48t-77 32.5t-30 83.5q0 72 78 185q117 168 117 211q0 39 -39 39q-139 0 -445 -549q-25 6 -63 6q-27 0 -47 -6zM236 797q0 -111 122 -164 q236 370 488 495q-51 29 -158 29q-166 0 -309 -113.5t-143 -246.5zM453 604q51 -10 106 -10q225 0 437 159.5t212 329.5q0 113 -114 113q-84 0 -205 -74q104 -72 104 -164q0 -41 -26.5 -96t-46.5 -55q-4 2 -5 6q0 4 15 18q49 51 49 127q0 96 -102 156 q-104 -82 -192.5 -187.5t-231.5 -322.5z" />
<glyph unicode="&#xa1;" horiz-adv-x="587" d="M178 47q0 31 37 89.5t193 273.5q248 340 331 508q6 12 15 12q8 0 8 -8q0 -4 -12 -23q-94 -137 -330 -676q-57 -133 -97 -184t-85 -51q-59 0 -60 59zM758 1030q0 45 41 86t84 41t43 -45q0 -41 -43 -82t-86 -41q-39 0 -39 41z" />
<glyph unicode="&#xa2;" d="M434 -84q0 8 10 21l174 290q-111 47 -110 160q0 125 135 246t289 135l133 227q10 18 18 19q11 0 11 -8t-7 -19l-135 -221q86 -16 86 -92q0 -70 -62.5 -124t-141.5 -54q-78 0 -78 71q0 33 14 33q4 -2 4 -6l-2 -6l-2 -19q0 -53 51 -53q53 0 114.5 66.5t61.5 124.5 q0 47 -53 47q-94 0 -225 -160t-131 -275q0 -86 84 -86q131 0 264 201q6 10 10 12q8 0 8 -8q0 -10 -36.5 -58t-69.5 -79q-88 -82 -180 -82q-16 0 -33 4l-176 -305q-8 -12 -15 -12q-10 0 -10 10z" />
<glyph unicode="&#xa3;" d="M25 113q0 49 48 80.5t124 31.5q84 0 290 -92q90 86 293 426q10 16 27 45h-174l8 17h176q252 395 553 395q105 -1 105 -60q0 -37 -35 -36q-35 0 -60 49q-14 31 -43 30q-70 0 -163 -78.5t-234 -299.5h176l-8 -17h-176q-115 -201 -199 -299t-213 -186q178 -84 301 -84 q88 0 150.5 35.5t62.5 87.5q0 43 -45 49q12 68 78 67q39 0 64.5 -28.5t25.5 -73.5q0 -76 -67.5 -125t-171.5 -49q-166 0 -410 113q-178 -115 -315 -115q-72 0 -120 32.5t-48 84.5zM45 113q0 -45 43 -74t109 -29q155 0 280 115q-182 90 -284 90q-63 0 -105.5 -28.5 t-42.5 -73.5z" />
<glyph unicode="&#xa4;" horiz-adv-x="610" d="M-14 -8q12 20 51 87.5t117 205.5q27 49 77 133l121 203q-141 68 -141 188q0 139 147.5 250.5t329.5 111.5q96 0 174 -34q143 76 232 75q70 0 110.5 -41.5t40.5 -111.5q0 -174 -219 -326.5t-469 -152.5q-61 0 -111 12l-75 -131l-156 -258q-43 -70 -98 -191l-13 -20 q-25 6 -51 6q-27 0 -67 -6zM238 799q0 -115 122 -166q232 364 488 495q-70 29 -152 29q-170 0 -314 -112.5t-144 -245.5zM307 330q0 18 33 18t59 -10q47 18 160 147q59 68 119 68q78 0 78 -70q0 -49 -38 -96t-77 -47q-43 0 -43 39q0 35 66 76q27 16 26 47q0 25 -31 24 q-43 0 -108 -75q-82 -94 -135 -117q104 -43 104 -111q0 -39 -49 -135q-20 -41 -20 -55q0 -27 26 -27q43 0 106.5 64.5t200.5 248.5q14 18 19 19q6 -2 6 -6q0 -14 -97.5 -136t-147.5 -164t-95 -42q-41 0 -74 28.5t-33 65.5q0 31 56 143q20 41 20 58q0 25 -32 43 q-37 -18 -64 -19q-35 0 -35 21zM455 604q51 -10 106 -10q223 0 436 159.5t213 327.5q0 117 -112 117q-94 0 -207 -76q104 -70 104 -164q0 -41 -26.5 -96t-46.5 -55q-4 2 -4 6q0 2 2 6q61 68 61 139q0 88 -100 156q-172 -115 -426 -510z" />
<glyph unicode="&#xa5;" d="M418 -41l272 481h-235l10 19h235q25 47 64 112h-272l10 19h272q162 297 162 375q0 84 -129 84t-231.5 -80t-102.5 -181q0 -88 105 -88q47 0 101 31t87 76q2 6 8 6q4 -2 4 -6q0 -6 -37 -43q-78 -76 -168 -76q-57 0 -94 32t-37 83q0 96 112 177t247 81q174 0 174 -148 q0 -129 -109 -364l-12 -27q367 547 604 547q17 0 17 -10q0 -12 -45 -15q-197 -8 -506 -454h264l-12 -19h-265q-31 -45 -75 -112h315l-12 -19h-316q-96 -152 -268 -481q-39 12 -68 12q-33 0 -69 -12z" />
<glyph unicode="&#xa6;" horiz-adv-x="1024" d="M819 313h39v-655h-39v655zM819 711v655h39v-655h-39z" />
<glyph unicode="&#xa7;" d="M238 -14q0 10 10 10q8 0 59 -37q90 -63 193 -63q106 0 190 79.5t84 182.5q0 59 -22 147q-78 301 -78 443q0 244 128 405.5t322 161.5q70 0 162 -37t92 -66q0 -8 -8 -8t-33 19q-86 63 -176 63q-106 0 -179 -68.5t-73 -170.5q0 -57 66 -308q39 -150 39 -295 q0 -238 -142.5 -406.5t-343.5 -168.5q-84 0 -187 42t-103 75zM653 -80q274 104 275 445q0 104 -42 302.5t-42 299.5q-1 217 198 313q-283 -98 -282 -432q0 -125 49 -367q33 -162 33 -248q0 -190 -189 -313z" />
<glyph unicode="&#xa8;" horiz-adv-x="1024" d="M717 688q0 35 29.5 62.5t64.5 27.5q43 0 43 -41q0 -37 -27.5 -66.5t-60.5 -29.5q-49 0 -49 47zM887 686q0 35 29.5 63.5t64.5 28.5q43 0 43 -41q0 -37 -27.5 -66.5t-60.5 -29.5q-49 0 -49 45z" />
<glyph unicode="&#xa9;" horiz-adv-x="1572" d="M410 578q0 309 228 534t540 225q264 0 446 -184.5t182 -450.5q0 -307 -226 -533t-531 -226q-270 0 -454.5 183t-184.5 452zM436 582q0 -260 177.5 -437.5t437.5 -177.5q293 0 511 218t218 513q0 264 -177.5 439.5t-445.5 175.5q-287 0 -504 -220.5t-217 -510.5zM686 502 q0 117 85 235.5t226 196.5q199 111 363 110q74 0 119 -39.5t45 -107.5q0 -100 -84 -181t-191 -81q-45 0 -77.5 21.5t-32.5 52.5q0 10 6 10q4 -2 4 -6q6 -51 63 -51q94 0 184.5 90t90.5 182t-103 92q-152 0 -364 -168q-119 -92 -186.5 -206.5t-67.5 -219.5q0 -186 205 -186 q203 0 393 276q20 29 27 29q6 0 6 -6q0 -33 -109 -148q-160 -170 -319 -170q-117 0 -200 81t-83 194z" />
<glyph unicode="&#xaa;" d="M520 635q0 137 211 237q94 45 148 46q47 0 47 -41q0 -10 -6 -33l38 67q14 -4 39 -4q10 0 68 4l-131 -204q-70 -109 -70 -146q0 -25 19 -24q25 0 95.5 67.5t129.5 149.5q6 6 10 6q6 0 6 -4q0 -18 -110 -135q-92 -98 -144 -99q-78 0 -77 84q0 37 26 82q-131 -166 -196 -166 q-43 0 -73 33t-30 80zM598 578q0 -41 33 -41q51 0 178 157q102 127 102 178q0 31 -32 31q-66 0 -173.5 -125t-107.5 -200z" />
<glyph unicode="&#xab;" horiz-adv-x="710" d="M215 238q164 29 408 198q4 4 8 4l2 -2q0 -8 -104.5 -88t-206.5 -125l14 -12l41 -33l41 -35l31 -24q10 -6 18 -15q0 -4 -4 -4q-6 0 -64 33q-27 16 -59 33q-45 25 -125 70zM408 211q184 45 401 213q4 4 8 4l2 -2q0 -10 -94 -86q-121 -98 -207 -135q53 -55 115 -90 q6 -2 6 -9l-2 -2l-25 13q-94 47 -204 94z" />
<glyph unicode="&#xac;" horiz-adv-x="1071" d="M371 510v37h886v-547h-38v510h-848z" />
<glyph unicode="&#xad;" horiz-adv-x="733" d="M274 213q0 12 78 39t113 27q20 0 86 -15q55 -12 80 -12q47 0 88 20q6 4 10 4t4 -4q0 -12 -82 -37.5t-125 -25.5q-41 0 -84 10q-51 12 -77 12q-41 0 -80 -20q-2 -2 -6 -2t-5 4z" />
<glyph unicode="&#xae;" horiz-adv-x="1572" d="M410 578q0 309 228 534t540 225q264 0 446 -184.5t182 -450.5q0 -307 -226 -533t-531 -226q-270 0 -454.5 183t-184.5 452zM436 582q0 -260 177.5 -437.5t437.5 -177.5q293 0 511 218t218 513q0 264 -177.5 439.5t-445.5 175.5q-287 0 -504 -220.5t-217 -510.5zM571 377 q0 39 23.5 65.5t56.5 26.5q51 0 51 -55q0 -57 -51 -58q-47 0 -47 41q0 10 8 33q2 2 2 6t-4 4q-8 0 -18 -21.5t-10 -41.5q0 -53 50 -93t120 -40q84 0 155 86q41 51 152 295q100 221 332 370q-88 68 -207 68q-174 0 -321.5 -118t-147.5 -255q0 -117 135 -117q23 0 62.5 11.5 t45.5 11.5t7 -4q0 -8 -41 -18.5t-78 -10.5q-70 0 -114 39t-44 103q0 152 141.5 263t331.5 111q133 0 256 -65q119 59 162 59q14 0 14 -6q0 -4 -28 -8q-51 -6 -135 -53q106 -68 106 -172q0 -143 -207 -172q86 -45 86 -132q0 -31 -20 -114q-23 -92 -23 -119q0 -78 74 -78 q53 0 90 47q8 8 10 8q4 0 4 -6q-2 -16 -41 -37.5t-67 -21.5q-55 0 -95 50t-40 118q0 43 28 131q20 63 21 96q0 33 -37 53q-49 -4 -66 -4q-47 0 -47 13q0 10 35 10q41 0 78 -12q147 45 147 196q0 78 -63 125q-160 -119 -242 -350q-88 -248 -213 -336q-96 -68 -194 -68 q-76 0 -129.5 43t-53.5 103z" />
<glyph unicode="&#xaf;" horiz-adv-x="1024" d="M584 694l6 19h452l-6 -19h-452z" />
<glyph unicode="&#xb0;" d="M823 1096q0 74 53.5 125t129.5 51q74 0 126 -52t52 -124t-53.5 -124t-126.5 -52q-74 0 -127.5 52t-53.5 124zM856 1096q0 -61 43 -104.5t105 -43.5q59 0 103 44.5t44 103.5q0 61 -43 104t-107 43q-59 0 -102 -44t-43 -103z" />
<glyph unicode="&#xb1;" horiz-adv-x="1599" d="M455 680q0 289 200.5 487.5t491.5 198.5q276 0 475 -201.5t199 -482.5q0 -285 -200 -483.5t-484 -198.5q-283 0 -482.5 198.5t-199.5 481.5z" />
<glyph unicode="&#xb2;" horiz-adv-x="651" d="M371 520q0 27 49 78q66 68 256 154q150 68 237.5 158.5t87.5 179.5q0 80 -102 79q-109 0 -232.5 -106.5t-123.5 -198.5q0 -63 80 -63q66 0 144.5 60.5t111.5 135.5q2 8 8 9q6 0 6 -7q0 -29 -53 -88q-111 -123 -215 -123q-106 0 -107 103q0 106 122 198.5t261 92.5 q74 0 121 -38t47 -97q0 -109 -131 -195q-66 -43 -256 -117q-164 -63 -254 -145q43 33 102 33q43 0 101 -17l98 -28q20 -6 43 -7q117 0 156 142q2 10 8 10t6 -6q0 -33 -43 -92q-78 -106 -190 -107q-43 0 -183 45q-37 12 -67 12q-63 0 -70 -47q0 -16 -10 -16q-8 0 -8 8z" />
<glyph unicode="&#xb3;" horiz-adv-x="651" d="M385 645q0 55 55.5 93t134.5 38q59 0 60 -10q0 -6 -8 -6l-17 2h-20q-70 0 -116 -35t-46 -88q0 -45 36 -71.5t93 -26.5q109 0 202 76.5t93 166.5q0 74 -92 101q-39 -8 -86 -8h-12q-23 0 -23 10q0 14 47 14q35 0 74 -6q199 70 198 209q0 74 -94 74q-84 0 -169 -56.5 t-85 -113.5q0 -51 68 -52q92 0 176 111q4 6 10 6q4 0 4 -4q0 -25 -67.5 -76t-126.5 -51q-84 0 -84 78q0 66 83 118t189 52q74 0 119 -32t45 -83q0 -141 -244 -186q141 -33 142 -146q0 -86 -102.5 -151.5t-239.5 -65.5q-84 0 -140.5 34t-56.5 85z" />
<glyph unicode="&#xb4;" horiz-adv-x="1024" d="M774 657q0 2 12 9q233 113 334 241l41 -63q-96 -76 -248 -139q-117 -49 -133 -50q-4 0 -6 2z" />
<glyph unicode="&#xb6;" horiz-adv-x="1693" d="M233 254q0 57 34 148.5t57 91.5q6 -2 6 -9q0 -4 -8 -16q-70 -113 -70 -215q0 -127 87 -203t232 -76q186 0 336 113t316 379q188 303 309 455.5t264 269.5q-115 53 -217 53q-190 0 -321.5 -132t-131.5 -325q0 -190 99 -190q25 0 45 14q0 2 2 2q4 0 4 -4q0 -12 -40 -24.5 t-79 -12.5q-133 0 -229.5 89.5t-96.5 209.5q0 170 191.5 288t468.5 118q174 0 321 -74q186 131 359 131q129 0 211 -80.5t82 -207.5q0 -57 -10.5 -107.5t-20.5 -50.5q-6 2 -6 8q0 18 9 67.5t9 77.5q0 123 -75.5 199t-200.5 76q-199 0 -387 -166q-106 -94 -183 -216 t-223.5 -428t-433.5 -448q-203 -100 -367 -100q-158 0 -250 80t-92 215z" />
<glyph unicode="&#xb7;" horiz-adv-x="473" d="M301 186q0 45 42 88t87 43q49 0 49 -47q0 -49 -40 -90t-89 -41t-49 47z" />
<glyph unicode="&#xb8;" horiz-adv-x="1024" d="M281 -84q0 6 6 6t16 -8q57 -39 111 -39q29 0 50 18.5t21 40.5q0 31 -41 78l17 -4q84 -59 84 -108q0 -74 -86 -74q-39 0 -108.5 35t-69.5 55z" />
<glyph unicode="&#xb9;" horiz-adv-x="651" d="M539 743q0 6 26 19q152 76 447 393q6 8 10 8q4 -2 4 -6q0 -6 -137 -215q-182 -279 -217 -410q-27 6 -45 7q-27 0 -70 -9q43 119 258 373q90 106 146 182q-139 -145 -259 -246.5t-155 -101.5q-6 0 -8 6z" />
<glyph unicode="&#xba;" d="M565 641q0 90 114 183.5t222 93.5q68 0 68 -66q0 -76 -88 -188q14 -8 30 -9q59 0 160 103q2 4 6 4q6 0 6 -4q0 -10 -45 -53q-66 -61 -125 -62q-29 0 -41 10q-100 -131 -188 -131q-49 0 -84 35t-35 84zM655 582q0 -43 35 -43q76 0 170 125q-29 16 -29 41q0 33 34 69.5 t63 36.5q10 0 12 -10q14 26 14 51q0 51 -51 51q-63 0 -155.5 -119.5t-92.5 -201.5z" />
<glyph unicode="&#xbb;" horiz-adv-x="710" d="M113 90q0 4 10 12l16 17q113 113 277 190q-31 35 -105 86q-14 10 -14 13q0 2 2 2q4 0 45 -21q16 -8 51 -24l60 -29q16 -8 49 -23l24 -10q-154 -41 -395 -203l-6 -4l-8 -6q-2 -2 -4 -2zM313 88q-2 16 127 92t191 94q-94 82 -152 127q-4 4 -4 7l2 2q2 0 4 -2l6 -2 q78 -44 256 -144q-184 -35 -407 -166q-16 -10 -21 -10z" />
<glyph unicode="&#xbc;" horiz-adv-x="1333" d="M346 -74q193 229 563 637q334 365 504 576l8 10q2 6 9 6q2 0 2 -4q0 -8 -132 -150q-139 -152 -428.5 -523.5t-414.5 -559.5q-27 12 -60 12q-29 0 -51 -4zM551 530q57 121 301 373q88 92 170 182q-154 -143 -289 -245.5t-170 -102.5q-6 2 -6 6t31 19q160 72 491 391 q8 8 13 8q4 0 4 -4q0 -2 -2 -6l-7 -8q-78 -104 -155 -203q-217 -274 -266 -408q-20 4 -45 5q-20 0 -70 -7zM670 150q0 23 125 49q135 70 352 264q285 256 446 256q66 -1 66 -21q0 -8 -8 -8q-2 0 -21.5 5t-38.5 5q-158 0 -436 -249q-209 -188 -324 -248q68 16 164 16 q35 0 74 -6q43 57 168 201q90 104 143 178q2 8 11 8q4 0 4 -4q0 -2 -2 -6l-29 -43q-86 -129 -221 -338h51q74 0 119 28.5t45 73.5q0 6 -4 27q-2 2 -2 6q2 6 6 6q12 0 12 -35q0 -135 -246 -135q-70 -121 -86 -182q-33 6 -51 6q-12 0 -65 -6q45 88 122 182q-135 12 -165 13 q-27 0 -76 -5q-74 -47 -123 -47q-10 0 -10 9z" />
<glyph unicode="&#xbd;" horiz-adv-x="1333" d="M299 -74q193 229 563 637q334 365 504 576l8 10q2 6 8 6q2 0 2 -4q0 -8 -131 -150q-139 -152 -428.5 -523.5t-414.5 -559.5q-27 12 -60 12q-29 0 -51 -4zM520 743q0 6 27 19q145 70 444 391q6 8 10 8q5 -2 5 -6q0 -6 -138 -215q-178 -270 -215 -408q-20 4 -45 5 q-20 0 -69 -7q41 117 258 373q88 104 145 182q-135 -143 -258 -245.5t-158 -102.5q-6 2 -6 6zM766 -16q0 29 49 77q70 70 254 154q150 68 237 159t87 179q0 80 -101 80q-106 0 -230 -106.5t-124 -198.5q0 -63 80 -64q66 0 144.5 60.5t111.5 136.5q2 8 8 8t6 -6 q0 -27 -53 -88q-109 -123 -215 -123t-107 104q0 104 122 196.5t261 92.5q72 0 119 -38t47 -97q0 -106 -131 -195q-61 -41 -256 -116q-166 -63 -252 -146q45 31 101 31q59 0 137 -27q72 -25 106 -24q117 0 156 143q2 10 8 10t6 -6q0 -33 -43 -94q-76 -106 -190 -106 q-47 0 -131 29.5t-121 29.5q-61 0 -68 -47q0 -16 -10 -17q-8 0 -8 9z" />
<glyph unicode="&#xbe;" horiz-adv-x="1333" d="M393 645q0 53 55.5 91t133.5 38q61 0 61 -10q0 -6 -6 -6h-6q-20 4 -37 4q-66 0 -112 -36t-46 -89q0 -98 129 -98q109 0 202 76.5t93 166.5q0 76 -92 101q-49 -8 -88 -9q-33 0 -33 11q0 14 47 14q37 0 74 -4q199 66 199 209q0 74 -97 74q-84 0 -168 -57.5t-84 -114.5 q0 -51 66 -52q94 0 178 111q2 8 10 8q4 0 5 -4q0 -23 -66 -75t-129 -52q-84 0 -84 78q0 66 83 118t189 52q164 0 164 -117q0 -141 -243 -184q141 -33 141 -146q0 -88 -102.5 -153.5t-239.5 -65.5q-86 0 -141.5 34t-55.5 87zM416 -74q627 756 1022 1168l53 55q2 6 8 6 q2 0 2 -4q0 -6 -131 -150q-141 -154 -421.5 -513t-424.5 -570q-25 12 -59 12q-27 0 -49 -4zM733 150q0 20 119 49q129 74 319 264q256 256 414 256q70 -1 70 -21q0 -8 -8 -8l-23 5q-22 5 -37 5q-162 0 -407 -249q-188 -190 -293 -248q70 14 168 14q41 0 69 -4q20 33 144 201 q96 131 121 178q2 8 8 8t6 -6l-2 -4l-6 -12l-17 -31l-28 -49q-14 -25 -41 -76q-66 -117 -115 -213h57q150 0 150 94q0 14 -8 33q-2 2 -2 6q0 6 6 6q16 0 16 -45q0 -123 -233 -123q-55 -119 -64 -182q-31 6 -47 6q-18 0 -65 -6q27 74 98 182q-16 2 -60 6q-68 6 -106 7 q-27 0 -74 -5q-74 -47 -117 -47q-12 0 -12 9z" />
<glyph unicode="&#xbf;" horiz-adv-x="892" d="M160 258q0 158 190 279q68 43 336 145q276 106 277 217q0 51 -56 51q-88 0 -170 -119q-2 -6 -8 -6q-4 0 -4 4q0 18 57 72q68 63 129 64q66 0 66 -64q0 -53 -66 -113q-35 -33 -227 -139q-422 -233 -422 -463q0 -168 199 -184q-10 37 -10 74q0 176 142 336.5t298 160.5 q66 0 108.5 -42t42.5 -105q0 -164 -175 -299t-390 -137q51 -123 170 -123q39 0 78 14q8 4 10 4q6 -2 6 -6q0 -8 -33.5 -17t-60.5 -9q-129 0 -184 137q-133 8 -218 84t-85 184zM463 74q0 -35 10 -74q203 0 377 166q162 154 162 285q0 109 -121 108q-143 0 -285.5 -161.5 t-142.5 -323.5zM942 1044q0 45 41 86t84 41t43 -45q0 -41 -43 -81.5t-84 -40.5t-41 40z" />
<glyph unicode="&#xc0;" horiz-adv-x="1951" d="M248 350q0 217 168 411.5t418 270.5q84 164 252.5 270.5t343.5 106.5q102 0 162.5 -52t60.5 -143q0 -70 -47 -161q-43 -84 -43 -115q0 -74 86 -74q100 0 206 148q8 12 15 12q8 0 8 -8q0 -10 -47 -64q-94 -106 -182 -106q-57 0 -93 41t-36 106q0 61 65 181q31 55 31 96 q0 51 -55.5 86t-135.5 35q-162 0 -322.5 -100.5t-244.5 -252.5q74 16 131 17q147 0 231.5 -78t84.5 -215q0 -33 -5 -57q82 66 130 174q2 10 8 10q8 0 8 -10q0 -29 -46 -90.5t-104 -108.5q-35 -193 -205.5 -344.5t-349.5 -151.5q-96 0 -159.5 62.5t-63.5 156.5 q0 115 74 225.5t194 180.5q-2 25 -2 37q0 72 35 158q-213 -78 -364.5 -279t-151.5 -406q0 -152 94.5 -243.5t251.5 -91.5q182 0 361.5 124.5t500.5 475.5q-135 0 -194 -2l14 20q94 0 197 -2q293 326 568.5 475.5t582.5 153.5q66 14 133 14q139 0 139 -47q0 -18 -20 -18 q-14 0 -68 12q-106 25 -180 24q-168 -53 -286 -189t-286 -470q-240 -475 -612 -561q78 -12 137 -12q182 0 310 118q74 70 200 240q10 14 17 14q4 -2 4 -6q0 -14 -115 -153q-106 -131 -193 -179.5t-217 -48.5q-74 0 -178 21q-68 -20 -147 -21q-57 0 -57 21q0 25 77 24 q51 0 127 -10q154 35 236 124t305 458h-385q-559 -618 -969 -619q-186 0 -294.5 104.5t-108.5 280.5zM539 412q0 -94 55 -151.5t145 -57.5q143 0 288.5 128t219.5 316q-111 -63 -211 -63t-165.5 55t-82.5 152q-113 -68 -181 -172.5t-68 -206.5zM805 819q106 55 158 55 q10 0 10 -6q0 -8 -37 -16q-57 -14 -129 -51q35 -201 233 -201q100 0 215 72q17 59 17 114q0 115 -75 183.5t-200 68.5q-74 0 -151 -26q-41 -92 -41 -193zM1634 600h381q125 219 306.5 398t312.5 212q-260 -14 -482.5 -149t-517.5 -461zM2585 1675l90 62q-18 -49 -19 -101 q0 -109 58 -182l2 -4q6 -6 6 -10q-2 -4 -6 -4q-27 0 -69 75.5t-62 163.5z" />
<glyph unicode="&#xc1;" horiz-adv-x="1951" d="M248 350q0 217 168 411.5t418 270.5q84 164 252.5 270.5t343.5 106.5q102 0 162.5 -52t60.5 -143q0 -70 -47 -161q-43 -84 -43 -115q0 -74 86 -74q100 0 206 148q8 12 15 12q8 0 8 -8q0 -10 -47 -64q-94 -106 -182 -106q-57 0 -93 41t-36 106q0 61 65 181q31 55 31 96 q0 51 -55.5 86t-135.5 35q-162 0 -322.5 -100.5t-244.5 -252.5q74 16 131 17q147 0 231.5 -78t84.5 -215q0 -33 -5 -57q82 66 130 174q2 10 8 10q8 0 8 -10q0 -29 -46 -90.5t-104 -108.5q-35 -193 -205.5 -344.5t-349.5 -151.5q-96 0 -159.5 62.5t-63.5 156.5 q0 115 74 225.5t194 180.5q-2 25 -2 37q0 72 35 158q-213 -78 -364.5 -279t-151.5 -406q0 -152 94.5 -243.5t251.5 -91.5q182 0 361.5 124.5t500.5 475.5q-135 0 -194 -2l14 20q94 0 197 -2q293 326 568.5 475.5t582.5 153.5q66 14 133 14q139 0 139 -47q0 -18 -20 -18 q-14 0 -68 12q-106 25 -180 24q-168 -53 -286 -189t-286 -470q-240 -475 -612 -561q78 -12 137 -12q182 0 310 118q74 70 200 240q10 14 17 14q4 -2 4 -6q0 -14 -115 -153q-106 -131 -193 -179.5t-217 -48.5q-74 0 -178 21q-68 -20 -147 -21q-57 0 -57 21q0 25 77 24 q51 0 127 -10q154 35 236 124t305 458h-385q-559 -618 -969 -619q-186 0 -294.5 104.5t-108.5 280.5zM539 412q0 -94 55 -151.5t145 -57.5q143 0 288.5 128t219.5 316q-111 -63 -211 -63t-165.5 55t-82.5 152q-113 -68 -181 -172.5t-68 -206.5zM805 819q106 55 158 55 q10 0 10 -6q0 -8 -37 -16q-57 -14 -129 -51q35 -201 233 -201q100 0 215 72q17 59 17 114q0 115 -75 183.5t-200 68.5q-74 0 -151 -26q-41 -92 -41 -193zM1634 600h381q125 219 306.5 398t312.5 212q-260 -14 -482.5 -149t-517.5 -461zM2589 1473q0 2 12 8 q98 47 200.5 119.5t143.5 128.5l43 -68q-96 -72 -256 -141q-117 -51 -137 -52q-6 0 -6 5z" />
<glyph unicode="&#xc2;" horiz-adv-x="1951" d="M248 350q0 217 168 411.5t418 270.5q84 164 252.5 270.5t343.5 106.5q102 0 162.5 -52t60.5 -143q0 -70 -47 -161q-43 -84 -43 -115q0 -74 86 -74q100 0 206 148q8 12 15 12q8 0 8 -8q0 -10 -47 -64q-94 -106 -182 -106q-57 0 -93 41t-36 106q0 61 65 181q31 55 31 96 q0 51 -55.5 86t-135.5 35q-162 0 -322.5 -100.5t-244.5 -252.5q74 16 131 17q147 0 231.5 -78t84.5 -215q0 -33 -5 -57q82 66 130 174q2 10 8 10q8 0 8 -10q0 -29 -46 -90.5t-104 -108.5q-35 -193 -205.5 -344.5t-349.5 -151.5q-96 0 -159.5 62.5t-63.5 156.5 q0 115 74 225.5t194 180.5q-2 25 -2 37q0 72 35 158q-213 -78 -364.5 -279t-151.5 -406q0 -152 94.5 -243.5t251.5 -91.5q182 0 361.5 124.5t500.5 475.5q-135 0 -194 -2l14 20q94 0 197 -2q293 326 568.5 475.5t582.5 153.5q66 14 133 14q139 0 139 -47q0 -18 -20 -18 q-14 0 -68 12q-106 25 -180 24q-168 -53 -286 -189t-286 -470q-240 -475 -612 -561q78 -12 137 -12q182 0 310 118q74 70 200 240q10 14 17 14q4 -2 4 -6q0 -14 -115 -153q-106 -131 -193 -179.5t-217 -48.5q-74 0 -178 21q-68 -20 -147 -21q-57 0 -57 21q0 25 77 24 q51 0 127 -10q154 35 236 124t305 458h-385q-559 -618 -969 -619q-186 0 -294.5 104.5t-108.5 280.5zM539 412q0 -94 55 -151.5t145 -57.5q143 0 288.5 128t219.5 316q-111 -63 -211 -63t-165.5 55t-82.5 152q-113 -68 -181 -172.5t-68 -206.5zM805 819q106 55 158 55 q10 0 10 -6q0 -8 -37 -16q-57 -14 -129 -51q35 -201 233 -201q100 0 215 72q17 59 17 114q0 115 -75 183.5t-200 68.5q-74 0 -151 -26q-41 -92 -41 -193zM1634 600h381q125 219 306.5 398t312.5 212q-260 -14 -482.5 -149t-517.5 -461zM2468 1473q2 2 14 8q111 47 226.5 121 t162.5 127q-6 -74 -18 -250q0 -8 -4 -9q-4 2 -4 9q-6 102 -25 141q-59 -41 -186 -96.5t-160 -55.5q-6 0 -6 5z" />
<glyph unicode="&#xc3;" horiz-adv-x="1951" d="M248 350q0 217 168 411.5t418 270.5q84 164 252.5 270.5t343.5 106.5q102 0 162.5 -52t60.5 -143q0 -70 -47 -161q-43 -84 -43 -115q0 -74 86 -74q100 0 206 148q8 12 15 12q8 0 8 -8q0 -10 -47 -64q-94 -106 -182 -106q-57 0 -93 41t-36 106q0 61 65 181q31 55 31 96 q0 51 -55.5 86t-135.5 35q-162 0 -322.5 -100.5t-244.5 -252.5q74 16 131 17q147 0 231.5 -78t84.5 -215q0 -33 -5 -57q82 66 130 174q2 10 8 10q8 0 8 -10q0 -29 -46 -90.5t-104 -108.5q-35 -193 -205.5 -344.5t-349.5 -151.5q-96 0 -159.5 62.5t-63.5 156.5 q0 115 74 225.5t194 180.5q-2 25 -2 37q0 72 35 158q-213 -78 -364.5 -279t-151.5 -406q0 -152 94.5 -243.5t251.5 -91.5q182 0 361.5 124.5t500.5 475.5q-135 0 -194 -2l14 20q94 0 197 -2q293 326 568.5 475.5t582.5 153.5q66 14 133 14q139 0 139 -47q0 -18 -20 -18 q-14 0 -68 12q-106 25 -180 24q-168 -53 -286 -189t-286 -470q-240 -475 -612 -561q78 -12 137 -12q182 0 310 118q74 70 200 240q10 14 17 14q4 -2 4 -6q0 -14 -115 -153q-106 -131 -193 -179.5t-217 -48.5q-74 0 -178 21q-68 -20 -147 -21q-57 0 -57 21q0 25 77 24 q51 0 127 -10q154 35 236 124t305 458h-385q-559 -618 -969 -619q-186 0 -294.5 104.5t-108.5 280.5zM539 412q0 -94 55 -151.5t145 -57.5q143 0 288.5 128t219.5 316q-111 -63 -211 -63t-165.5 55t-82.5 152q-113 -68 -181 -172.5t-68 -206.5zM805 819q106 55 158 55 q10 0 10 -6q0 -8 -37 -16q-57 -14 -129 -51q35 -201 233 -201q100 0 215 72q17 59 17 114q0 115 -75 183.5t-200 68.5q-74 0 -151 -26q-41 -92 -41 -193zM1634 600h381q125 219 306.5 398t312.5 212q-260 -14 -482.5 -149t-517.5 -461zM2429 1511q0 6 50 37t95 31 q25 0 123 -23q88 -20 115 -20q35 0 59 16q8 4 11 4q6 -2 6 -4q0 -14 -57.5 -40.5t-86.5 -26.5q-31 0 -90 14l-20 4q-98 25 -127 25q-27 0 -58 -15q-8 -6 -14 -6t-6 4z" />
<glyph unicode="&#xc4;" horiz-adv-x="1951" d="M248 350q0 217 168 411.5t418 270.5q84 164 252.5 270.5t343.5 106.5q102 0 162.5 -52t60.5 -143q0 -70 -47 -161q-43 -84 -43 -115q0 -74 86 -74q100 0 206 148q8 12 15 12q8 0 8 -8q0 -10 -47 -64q-94 -106 -182 -106q-57 0 -93 41t-36 106q0 61 65 181q31 55 31 96 q0 51 -55.5 86t-135.5 35q-162 0 -322.5 -100.5t-244.5 -252.5q74 16 131 17q147 0 231.5 -78t84.5 -215q0 -33 -5 -57q82 66 130 174q2 10 8 10q8 0 8 -10q0 -29 -46 -90.5t-104 -108.5q-35 -193 -205.5 -344.5t-349.5 -151.5q-96 0 -159.5 62.5t-63.5 156.5 q0 115 74 225.5t194 180.5q-2 25 -2 37q0 72 35 158q-213 -78 -364.5 -279t-151.5 -406q0 -152 94.5 -243.5t251.5 -91.5q182 0 361.5 124.5t500.5 475.5q-135 0 -194 -2l14 20q94 0 197 -2q293 326 568.5 475.5t582.5 153.5q66 14 133 14q139 0 139 -47q0 -18 -20 -18 q-14 0 -68 12q-106 25 -180 24q-168 -53 -286 -189t-286 -470q-240 -475 -612 -561q78 -12 137 -12q182 0 310 118q74 70 200 240q10 14 17 14q4 -2 4 -6q0 -14 -115 -153q-106 -131 -193 -179.5t-217 -48.5q-74 0 -178 21q-68 -20 -147 -21q-57 0 -57 21q0 25 77 24 q51 0 127 -10q154 35 236 124t305 458h-385q-559 -618 -969 -619q-186 0 -294.5 104.5t-108.5 280.5zM539 412q0 -94 55 -151.5t145 -57.5q143 0 288.5 128t219.5 316q-111 -63 -211 -63t-165.5 55t-82.5 152q-113 -68 -181 -172.5t-68 -206.5zM805 819q106 55 158 55 q10 0 10 -6q0 -8 -37 -16q-57 -14 -129 -51q35 -201 233 -201q100 0 215 72q17 59 17 114q0 115 -75 183.5t-200 68.5q-74 0 -151 -26q-41 -92 -41 -193zM1634 600h381q125 219 306.5 398t312.5 212q-260 -14 -482.5 -149t-517.5 -461zM2490 1511q0 35 31 65t66 30 q45 0 45 -43q0 -39 -29 -69t-63 -30q-49 0 -50 47zM2664 1511q0 35 31 65t66 30q45 0 45 -43q0 -39 -29 -69t-63 -30q-49 0 -50 47z" />
<glyph unicode="&#xc5;" horiz-adv-x="1951" d="M248 350q0 217 168 411.5t418 270.5q84 164 252.5 270.5t343.5 106.5q102 0 162.5 -52t60.5 -143q0 -70 -47 -161q-43 -84 -43 -115q0 -74 86 -74q100 0 206 148q8 12 15 12q8 0 8 -8q0 -10 -47 -64q-94 -106 -182 -106q-57 0 -93 41t-36 106q0 61 65 181q31 55 31 96 q0 51 -55.5 86t-135.5 35q-162 0 -322.5 -100.5t-244.5 -252.5q74 16 131 17q147 0 231.5 -78t84.5 -215q0 -33 -5 -57q82 66 130 174q2 10 8 10q8 0 8 -10q0 -29 -46 -90.5t-104 -108.5q-35 -193 -205.5 -344.5t-349.5 -151.5q-96 0 -159.5 62.5t-63.5 156.5 q0 115 74 225.5t194 180.5q-2 25 -2 37q0 72 35 158q-213 -78 -364.5 -279t-151.5 -406q0 -152 94.5 -243.5t251.5 -91.5q182 0 361.5 124.5t500.5 475.5q-135 0 -194 -2l14 20q94 0 197 -2q293 326 568.5 475.5t582.5 153.5q66 14 133 14q139 0 139 -47q0 -18 -20 -18 q-14 0 -68 12q-106 25 -180 24q-168 -53 -286 -189t-286 -470q-240 -475 -612 -561q78 -12 137 -12q182 0 310 118q74 70 200 240q10 14 17 14q4 -2 4 -6q0 -14 -115 -153q-106 -131 -193 -179.5t-217 -48.5q-74 0 -178 21q-68 -20 -147 -21q-57 0 -57 21q0 25 77 24 q51 0 127 -10q154 35 236 124t305 458h-385q-559 -618 -969 -619q-186 0 -294.5 104.5t-108.5 280.5zM539 412q0 -94 55 -151.5t145 -57.5q143 0 288.5 128t219.5 316q-111 -63 -211 -63t-165.5 55t-82.5 152q-113 -68 -181 -172.5t-68 -206.5zM805 819q106 55 158 55 q10 0 10 -6q0 -8 -37 -16q-57 -14 -129 -51q35 -201 233 -201q100 0 215 72q17 59 17 114q0 115 -75 183.5t-200 68.5q-74 0 -151 -26q-41 -92 -41 -193zM1634 600h381q125 219 306.5 398t312.5 212q-260 -14 -482.5 -149t-517.5 -461zM2540 1516q0 63 55 120.5t117 57.5 q55 -1 55 -60q0 -63 -53.5 -120.5t-112.5 -57.5q-61 0 -61 60zM2566 1511q0 -33 31 -32q41 0 93 57t52 102q0 33 -30 33q-43 0 -94.5 -56t-51.5 -104z" />
<glyph unicode="&#xc6;" horiz-adv-x="2738" d="M248 350q0 217 168 411.5t418 270.5q82 158 248.5 267.5t328.5 109.5q96 0 155.5 -53t59.5 -142q0 -72 -46 -158.5t-46 -117.5q0 -74 88 -74q100 0 207 148q8 12 14 12q8 0 8 -8t-47 -64q-92 -106 -182 -106q-59 0 -95 41t-36 106q0 57 68 181q31 55 30 96q0 47 -54 84 t-126 37q-84 0 -198.5 -47.5t-196.5 -114.5q-96 -80 -156 -191q74 16 131 17q147 0 231.5 -78t84.5 -215q0 -33 -5 -57q82 66 130 174q2 10 8 10q8 0 8 -10q0 -29 -46 -90.5t-104 -108.5q-35 -193 -205.5 -344.5t-349.5 -151.5q-96 0 -159.5 62.5t-63.5 156.5 q0 115 74 225.5t194 180.5q-2 25 -2 37q0 72 35 158q-213 -78 -364.5 -279t-151.5 -406q0 -152 94.5 -243.5t251.5 -91.5q182 0 361.5 124.5t500.5 475.5q-135 0 -194 -2l14 20q94 0 197 -2q293 336 479 468t365 132q43 0 129 -18q141 63 311 63q135 0 231.5 -37t96.5 -88 q0 -68 -123 -67q-90 0 -287 47q-18 4 -131 33q-14 4 -41 10q-170 -94 -170 -244q0 -72 47 -98q68 6 102 6q111 0 111 -25q0 -16 -47 -16q-76 0 -160 22q-96 -14 -217 -67t-209 -121h174l-10 -16h-184q-188 -164 -189 -344q0 -190 207 -244q-39 59 -39 139q0 199 201 365 t442 166q109 0 174.5 -54.5t65.5 -144.5q0 -195 -214 -351.5t-482 -156.5q-53 0 -101 6q88 -129 285 -129q111 0 188 35l13 2q6 -2 6 -8q0 -14 -73 -29.5t-134 -15.5q-215 0 -320 151q-150 29 -237.5 114t-87.5 198q0 156 158 301h-238q-559 -618 -969 -619 q-186 0 -294.5 104.5t-108.5 280.5zM539 412q0 -94 55 -151.5t145 -57.5q143 0 288.5 128t219.5 316q-111 -63 -211 -63t-165.5 55t-82.5 152q-113 -68 -181 -172.5t-68 -206.5zM805 819q106 55 158 55q10 0 10 -6q0 -8 -37 -16q-57 -14 -129 -51q35 -201 233 -201 q100 0 215 72q17 59 17 114q0 115 -75 183.5t-200 68.5q-74 0 -151 -26q-41 -92 -41 -193zM1634 600h244q193 156 539 199q-111 45 -111 147q0 133 172 225l-16 3q-82 10 -86 10q-147 0 -286.5 -109.5t-455.5 -474.5zM2011 96q0 -53 35 -108q51 -10 102 -11q240 0 465.5 163 t225.5 337q0 72 -57.5 119t-145.5 47q-215 0 -420 -179t-205 -368zM2580 1157q283 -86 443 -86q96 0 96 51q0 39 -83 69t-189 30q-141 0 -267 -64z" />
<glyph unicode="&#xc7;" horiz-adv-x="1632" d="M358 1053q0 158 160 262t402 104q338 0 677 -223q59 12 117 12q203 0 203 -98q0 -63 -90 -135q82 -127 82 -223q0 -25 -15 -25q-12 0 -12 33q-2 98 -70 203q-150 -109 -397.5 -187t-439.5 -78q-27 0 -47 2q-160 -223 -160 -430q0 -137 85 -218t230 -85q-82 86 -82 221 q0 201 177.5 374t384.5 173q199 0 198 -209q0 -209 -191.5 -384t-439.5 -191q82 -66 213 -66q139 0 254 88q10 8 17 9q6 0 6 -7q0 -27 -105.5 -66.5t-171.5 -39.5q-143 0 -241 80q-82 0 -170 28q74 -53 74 -108q0 -88 -101 -88q-45 0 -126 41t-81 65q2 6 7 7q6 0 20 -11 q63 -45 127 -45q35 0 59.5 20.5t24.5 49.5q0 53 -83 109.5t-132 150.5t-49 192q0 172 119 351q-207 35 -320 123t-113 219zM393 1034q0 -233 406 -311q250 352 770 469q-305 176 -645 176q-213 0 -372 -100.5t-159 -233.5zM940 715h25q193 0 439 76.5t400 185.5 q-76 113 -207 197q-184 -47 -363 -173.5t-294 -285.5zM1053 154q0 -115 59 -187q211 0 418 193.5t207 390.5q0 78 -44 122t-122 44q-170 0 -344 -188.5t-174 -374.5zM1622 1178q111 -78 197 -191q82 68 82 123q0 82 -160 82q-55 0 -119 -14z" />
<glyph unicode="&#xc8;" horiz-adv-x="1785" d="M313 739q0 223 192.5 370.5t481.5 147.5q209 0 551 -79q137 66 320 65q137 0 232 -36t95 -87q0 -68 -123 -67q-80 0 -137 11t-321 79q-170 -96 -170 -244q0 -70 47 -100q55 8 108 8q104 0 105 -25q0 -16 -58 -16q-63 0 -149 20q-90 -12 -209 -63q-20 -129 -137 -233.5 t-267 -127.5q-20 -70 -20 -124q0 -190 205 -242q-39 59 -39 139q0 199 200.5 365t442.5 166q106 0 173 -54.5t67 -144.5q0 -195 -214 -351.5t-483 -156.5q-53 0 -100 6q90 -129 285 -129q111 0 188 35l12 2q6 -2 6 -8q0 -14 -72.5 -29.5t-133.5 -15.5q-209 0 -320 151 q-326 74 -326 310q0 35 9 73q-197 4 -319 110.5t-122 274.5zM350 698q0 -139 114 -230t294 -97q41 131 178 237.5t326 151.5q2 12 2 26q0 106 -77 184.5t-200 98.5q-10 4 -10 8q0 10 14 10q29 0 84 -22.5t88 -46.5q119 -90 119 -252q82 18 180 31q-111 47 -110 147 q0 133 164 223q-252 51 -422 52q-311 0 -527.5 -150.5t-216.5 -370.5zM881 381q139 27 243 119t131 213q-293 -131 -374 -332zM1057 98q0 -55 35 -110q57 -10 106 -11q236 0 461 164t225 334q0 72 -57.5 119t-145.5 47q-215 0 -419.5 -178t-204.5 -365zM1626 1155 q276 -84 445 -84q94 0 94 49q0 39 -83 69t-190 30q-141 0 -266 -64zM1870 1675l90 62q-18 -49 -18 -101q0 -109 57 -182l2 -4q6 -6 6 -10q-2 -4 -6 -4q-27 0 -69 75.5t-62 163.5z" />
<glyph unicode="&#xc9;" horiz-adv-x="1785" d="M313 739q0 223 192.5 370.5t481.5 147.5q209 0 551 -79q137 66 320 65q137 0 232 -36t95 -87q0 -68 -123 -67q-80 0 -137 11t-321 79q-170 -96 -170 -244q0 -70 47 -100q55 8 108 8q104 0 105 -25q0 -16 -58 -16q-63 0 -149 20q-90 -12 -209 -63q-20 -129 -137 -233.5 t-267 -127.5q-20 -70 -20 -124q0 -190 205 -242q-39 59 -39 139q0 199 200.5 365t442.5 166q106 0 173 -54.5t67 -144.5q0 -195 -214 -351.5t-483 -156.5q-53 0 -100 6q90 -129 285 -129q111 0 188 35l12 2q6 -2 6 -8q0 -14 -72.5 -29.5t-133.5 -15.5q-209 0 -320 151 q-326 74 -326 310q0 35 9 73q-197 4 -319 110.5t-122 274.5zM350 698q0 -139 114 -230t294 -97q41 131 178 237.5t326 151.5q2 12 2 26q0 106 -77 184.5t-200 98.5q-10 4 -10 8q0 10 14 10q29 0 84 -22.5t88 -46.5q119 -90 119 -252q82 18 180 31q-111 47 -110 147 q0 133 164 223q-252 51 -422 52q-311 0 -527.5 -150.5t-216.5 -370.5zM881 381q139 27 243 119t131 213q-293 -131 -374 -332zM1057 98q0 -55 35 -110q57 -10 106 -11q236 0 461 164t225 334q0 72 -57.5 119t-145.5 47q-215 0 -419.5 -178t-204.5 -365zM1626 1155 q276 -84 445 -84q94 0 94 49q0 39 -83 69t-190 30q-141 0 -266 -64zM1946 1473q0 2 12 8q98 47 200.5 119.5t143.5 128.5l43 -68q-96 -72 -256 -141q-117 -51 -137 -52q-6 0 -6 5z" />
<glyph unicode="&#xca;" horiz-adv-x="1785" d="M313 739q0 223 192.5 370.5t481.5 147.5q209 0 551 -79q137 66 320 65q137 0 232 -36t95 -87q0 -68 -123 -67q-80 0 -137 11t-321 79q-170 -96 -170 -244q0 -70 47 -100q55 8 108 8q104 0 105 -25q0 -16 -58 -16q-63 0 -149 20q-90 -12 -209 -63q-20 -129 -137 -233.5 t-267 -127.5q-20 -70 -20 -124q0 -190 205 -242q-39 59 -39 139q0 199 200.5 365t442.5 166q106 0 173 -54.5t67 -144.5q0 -195 -214 -351.5t-483 -156.5q-53 0 -100 6q90 -129 285 -129q111 0 188 35l12 2q6 -2 6 -8q0 -14 -72.5 -29.5t-133.5 -15.5q-209 0 -320 151 q-326 74 -326 310q0 35 9 73q-197 4 -319 110.5t-122 274.5zM350 698q0 -139 114 -230t294 -97q41 131 178 237.5t326 151.5q2 12 2 26q0 106 -77 184.5t-200 98.5q-10 4 -10 8q0 10 14 10q29 0 84 -22.5t88 -46.5q119 -90 119 -252q82 18 180 31q-111 47 -110 147 q0 133 164 223q-252 51 -422 52q-311 0 -527.5 -150.5t-216.5 -370.5zM881 381q139 27 243 119t131 213q-293 -131 -374 -332zM1057 98q0 -55 35 -110q57 -10 106 -11q236 0 461 164t225 334q0 72 -57.5 119t-145.5 47q-215 0 -419.5 -178t-204.5 -365zM1626 1155 q276 -84 445 -84q94 0 94 49q0 39 -83 69t-190 30q-141 0 -266 -64zM1778 1473q2 2 14 8q111 47 226.5 121t162.5 127q-6 -74 -18 -250q0 -8 -4 -9q-4 2 -5 9q-6 102 -24 141q-59 -41 -186 -96.5t-160 -55.5q-6 0 -6 5z" />
<glyph unicode="&#xcb;" horiz-adv-x="1785" d="M313 739q0 223 192.5 370.5t481.5 147.5q209 0 551 -79q137 66 320 65q137 0 232 -36t95 -87q0 -68 -123 -67q-80 0 -137 11t-321 79q-170 -96 -170 -244q0 -70 47 -100q55 8 108 8q104 0 105 -25q0 -16 -58 -16q-63 0 -149 20q-90 -12 -209 -63q-20 -129 -137 -233.5 t-267 -127.5q-20 -70 -20 -124q0 -190 205 -242q-39 59 -39 139q0 199 200.5 365t442.5 166q106 0 173 -54.5t67 -144.5q0 -195 -214 -351.5t-483 -156.5q-53 0 -100 6q90 -129 285 -129q111 0 188 35l12 2q6 -2 6 -8q0 -14 -72.5 -29.5t-133.5 -15.5q-209 0 -320 151 q-326 74 -326 310q0 35 9 73q-197 4 -319 110.5t-122 274.5zM350 698q0 -139 114 -230t294 -97q41 131 178 237.5t326 151.5q2 12 2 26q0 106 -77 184.5t-200 98.5q-10 4 -10 8q0 10 14 10q29 0 84 -22.5t88 -46.5q119 -90 119 -252q82 18 180 31q-111 47 -110 147 q0 133 164 223q-252 51 -422 52q-311 0 -527.5 -150.5t-216.5 -370.5zM881 381q139 27 243 119t131 213q-293 -131 -374 -332zM1057 98q0 -55 35 -110q57 -10 106 -11q236 0 461 164t225 334q0 72 -57.5 119t-145.5 47q-215 0 -419.5 -178t-204.5 -365zM1626 1155 q276 -84 445 -84q94 0 94 49q0 39 -83 69t-190 30q-141 0 -266 -64zM1776 1511q0 35 30.5 65t65.5 30q45 0 45 -43q0 -39 -28.5 -69t-63.5 -30q-49 0 -49 47zM1950 1511q0 35 30.5 65t65.5 30q45 0 45 -43q0 -39 -28.5 -69t-63.5 -30q-49 0 -49 47z" />
<glyph unicode="&#xcc;" horiz-adv-x="1472" d="M211 319q0 211 198.5 381t442.5 170q139 0 223 -77.5t84 -208.5q0 -180 -149.5 -332t-327.5 -152q-94 0 -158.5 66.5t-64.5 165.5q0 135 120.5 241.5t274.5 106.5q51 0 99 -26.5t48 -55.5q0 -6 -8 -6q-2 0 -8 6q-43 66 -121 66q-131 0 -247.5 -115t-116.5 -244 q0 -86 51 -136t139 -50q164 0 307.5 149.5t143.5 317.5q0 117 -79 191.5t-202 74.5q-231 0 -413.5 -180t-182.5 -410q0 -125 100.5 -207t253.5 -82q303 0 543 301q51 63 193 275q-172 74 -172 239q0 199 225 297q109 47 360 91q92 16 154 28l49 10q53 39 140.5 79t121.5 40 q17 0 17 -10q0 -16 -83 -53t-190 -66q-137 -100 -252.5 -250.5t-257.5 -414.5q12 -2 29 -2q121 0 224.5 74.5t125.5 181.5q4 16 10 16t7 -8q0 -59 -66 -139q-51 -61 -135 -101.5t-166 -40.5q-14 0 -37 2q-92 -168 -115.5 -204.5t-72.5 -90.5q-115 -125 -287 -198.5 t-342 -73.5q-195 0 -312.5 99.5t-117.5 264.5zM1237 737q0 -119 125 -176q264 420 586 635l-70 -16q-37 -8 -109 -27q-244 -57 -388 -170t-144 -246zM1948 1675l90 62q-18 -49 -19 -101q0 -109 58 -182l2 -4q6 -6 6 -10q-2 -4 -6 -4q-27 0 -69 75.5t-62 163.5z" />
<glyph unicode="&#xcd;" horiz-adv-x="1472" d="M211 319q0 211 198.5 381t442.5 170q139 0 223 -77.5t84 -208.5q0 -180 -149.5 -332t-327.5 -152q-94 0 -158.5 66.5t-64.5 165.5q0 135 120.5 241.5t274.5 106.5q51 0 99 -26.5t48 -55.5q0 -6 -8 -6q-2 0 -8 6q-43 66 -121 66q-131 0 -247.5 -115t-116.5 -244 q0 -86 51 -136t139 -50q164 0 307.5 149.5t143.5 317.5q0 117 -79 191.5t-202 74.5q-231 0 -413.5 -180t-182.5 -410q0 -125 100.5 -207t253.5 -82q303 0 543 301q51 63 193 275q-172 74 -172 239q0 199 225 297q109 47 360 91q92 16 154 28l49 10q53 39 140.5 79t121.5 40 q17 0 17 -10q0 -16 -83 -53t-190 -66q-137 -100 -252.5 -250.5t-257.5 -414.5q12 -2 29 -2q121 0 224.5 74.5t125.5 181.5q4 16 10 16t7 -8q0 -59 -66 -139q-51 -61 -135 -101.5t-166 -40.5q-14 0 -37 2q-92 -168 -115.5 -204.5t-72.5 -90.5q-115 -125 -287 -198.5 t-342 -73.5q-195 0 -312.5 99.5t-117.5 264.5zM1237 737q0 -119 125 -176q264 420 586 635l-70 -16q-37 -8 -109 -27q-244 -57 -388 -170t-144 -246zM2046 1473q0 2 12 8q98 47 200.5 119.5t143.5 128.5l43 -68q-96 -72 -256 -141q-117 -51 -137 -52q-6 0 -6 5z" />
<glyph unicode="&#xce;" horiz-adv-x="1472" d="M211 319q0 211 198.5 381t442.5 170q139 0 223 -77.5t84 -208.5q0 -180 -149.5 -332t-327.5 -152q-94 0 -158.5 66.5t-64.5 165.5q0 135 120.5 241.5t274.5 106.5q51 0 99 -26.5t48 -55.5q0 -6 -8 -6q-2 0 -8 6q-43 66 -121 66q-131 0 -247.5 -115t-116.5 -244 q0 -86 51 -136t139 -50q164 0 307.5 149.5t143.5 317.5q0 117 -79 191.5t-202 74.5q-231 0 -413.5 -180t-182.5 -410q0 -125 100.5 -207t253.5 -82q303 0 543 301q51 63 193 275q-172 74 -172 239q0 199 225 297q109 47 360 91q92 16 154 28l49 10q53 39 140.5 79t121.5 40 q17 0 17 -10q0 -16 -83 -53t-190 -66q-137 -100 -252.5 -250.5t-257.5 -414.5q12 -2 29 -2q121 0 224.5 74.5t125.5 181.5q4 16 10 16t7 -8q0 -59 -66 -139q-51 -61 -135 -101.5t-166 -40.5q-14 0 -37 2q-92 -168 -115.5 -204.5t-72.5 -90.5q-115 -125 -287 -198.5 t-342 -73.5q-195 0 -312.5 99.5t-117.5 264.5zM1237 737q0 -119 125 -176q264 420 586 635l-70 -16q-37 -8 -109 -27q-244 -57 -388 -170t-144 -246zM1716 1473q2 2 15 8q111 47 226.5 121t162.5 127q-6 -74 -19 -250q0 -8 -4 -9q-4 2 -4 9q-6 102 -25 141 q-59 -41 -186 -96.5t-160 -55.5q-6 0 -6 5z" />
<glyph unicode="&#xcf;" horiz-adv-x="1472" d="M211 319q0 211 198.5 381t442.5 170q139 0 223 -77.5t84 -208.5q0 -180 -149.5 -332t-327.5 -152q-94 0 -158.5 66.5t-64.5 165.5q0 135 120.5 241.5t274.5 106.5q51 0 99 -26.5t48 -55.5q0 -6 -8 -6q-2 0 -8 6q-43 66 -121 66q-131 0 -247.5 -115t-116.5 -244 q0 -86 51 -136t139 -50q164 0 307.5 149.5t143.5 317.5q0 117 -79 191.5t-202 74.5q-231 0 -413.5 -180t-182.5 -410q0 -125 100.5 -207t253.5 -82q303 0 543 301q51 63 193 275q-172 74 -172 239q0 199 225 297q109 47 360 91q92 16 154 28l49 10q53 39 140.5 79t121.5 40 q17 0 17 -10q0 -16 -83 -53t-190 -66q-137 -100 -252.5 -250.5t-257.5 -414.5q12 -2 29 -2q121 0 224.5 74.5t125.5 181.5q4 16 10 16t7 -8q0 -59 -66 -139q-51 -61 -135 -101.5t-166 -40.5q-14 0 -37 2q-92 -168 -115.5 -204.5t-72.5 -90.5q-115 -125 -287 -198.5 t-342 -73.5q-195 0 -312.5 99.5t-117.5 264.5zM1237 737q0 -119 125 -176q264 420 586 635l-70 -16q-37 -8 -109 -27q-244 -57 -388 -170t-144 -246zM1935 1511q0 35 31 65t66 30q45 0 45 -43q0 -39 -29 -69t-63 -30q-49 0 -50 47zM2109 1511q0 35 31 65t66 30q45 0 45 -43 q0 -39 -29 -69t-63 -30q-49 0 -50 47z" />
<glyph unicode="&#xd0;" horiz-adv-x="1734" d="M129 6q0 27 64.5 46.5t150.5 19.5q104 0 414 -68q195 51 311.5 156.5t300.5 398.5h-164l6 19h170q197 317 385 499q-145 246 -473 246q-338 0 -620 -266q-143 -135 -227.5 -296t-84.5 -300q0 -106 71 -171t188 -65q195 0 395.5 212t200.5 417q0 66 -39 108t-99 42 q-143 0 -300.5 -179.5t-157.5 -339.5q0 -104 86 -104h8q4 2 6 2q6 0 6 -6q0 -8 -18 -8q-57 0 -92 47t-35 123q0 164 164.5 322.5t332.5 158.5q70 0 113 -47t43 -123q0 -211 -207 -427t-407 -216q-143 0 -235.5 92t-92.5 236q0 172 114.5 348t303.5 293q264 166 589 165 q324 0 490 -243q248 225 496 225q127 0 204.5 -81t77.5 -214q0 -51 -12 -107.5t-23 -56.5q-6 0 -6 6t2 13q23 61 23 143q0 127 -76 203t-203 76q-248 0 -469 -232q86 -160 86 -336q0 -328 -252 -556t-614 -228q-113 0 -307 31q-170 -31 -324 -31q-264 0 -264 53zM150 6 q0 -35 262 -35q151 1 270 19q-276 39 -412 39q-121 0 -120 -23zM791 -4q127 -27 270 -27q385 0 620 369q154 240 154 473q0 125 -53 240q-117 -129 -242 -387q-14 -31 -41 -86h193l-6 -19h-197q-109 -233 -265.5 -360t-432.5 -203z" />
<glyph unicode="&#xd1;" horiz-adv-x="1933" d="M248 342q0 319 334 565q41 207 230 359.5t407 152.5q96 0 151 -49t55 -135q0 -63 -44 -150.5t-44 -119.5q0 -31 23.5 -52.5t58.5 -21.5q94 0 211 168q2 4 6 4q8 0 9 -8q0 -23 -58 -86q-86 -96 -166 -97q-55 0 -93 40t-38 100q0 51 43 137q51 102 51 141q0 51 -48 82 t-126 31q-195 0 -380 -146.5t-226 -332.5q197 127 379 127q143 0 224 -80t81 -223q0 -205 -178 -388.5t-375 -183.5q-96 0 -158.5 62.5t-62.5 158.5q0 135 113 281q-51 70 -52 153v23q-125 -113 -197.5 -257t-72.5 -282q0 -152 90 -248t234 -96q229 0 430 178.5t457 608.5 q209 352 333 461q86 76 111 75q4 0 4 -4q0 -2 -12 -18q-63 -84 -80 -180.5t-23 -407.5q-8 -385 -94 -545q-2 0 -2 -2t2 -4q18 0 207 332q172 303 236.5 401.5t154.5 196.5q246 266 518 266q164 0 269.5 -96t105.5 -246q0 -86 -18 -86q-8 0 -9 8q0 4 4.5 14.5t4.5 65.5 q0 131 -99.5 218t-249.5 87q-301 0 -606 -391q-90 -117 -372 -588q-82 -139 -165 -242.5t-112 -103.5q-14 0 -14 15q0 18 45 41q88 43 88 200q0 37 -4 107q-10 172 -10 307q0 215 41.5 352t138.5 246q6 4 6 6q0 4 -4 4q-14 0 -82 -69q-102 -104 -297 -455 q-133 -242 -194.5 -331t-153.5 -177q-272 -262 -561 -262q-166 0 -270.5 108.5t-104.5 280.5zM535 403q0 -92 55 -150t143 -58q178 0 350 195t172 398q0 111 -73.5 178.5t-192.5 67.5q-201 0 -393 -162q-2 -18 -2 -38q0 -78 47 -140q57 59 128 106.5t103 47.5q6 0 9 -6 q0 -6 -33 -21q-113 -47 -197 -143q63 -76 172 -76q90 0 182.5 51.5t149.5 132.5q4 4 6 5q8 0 8 -9q0 -20 -63 -77q-129 -119 -285 -119q-106 0 -182 78q-104 -135 -104 -261zM2114 1511q0 6 50 37t95 31q25 0 123 -23q88 -20 115 -20q35 0 59 16q8 4 10 4q6 -2 6 -4 q0 -14 -57 -40.5t-86 -26.5q-31 0 -90 14l-21 4q-98 25 -127 25q-27 0 -57 -15q-8 -6 -14 -6t-6 4z" />
<glyph unicode="&#xd2;" horiz-adv-x="1583" d="M502 401q0 176 96 360.5t264 328.5q143 121 324.5 199.5t320.5 78.5q129 0 205 -66.5t76 -179.5q0 -39 -8 -86q41 -100 41 -200q0 -166 -92.5 -337t-258.5 -313q-295 -252 -561 -252q-178 0 -292.5 131.5t-114.5 335.5zM598 309q0 -158 86 -257t223 -99q182 0 379 151 q190 147 316 369q133 231 135 449q-29 -63 -111 -154.5t-110 -91.5q-8 0 -9 8q0 4 15 14q66 45 128 121t87 139q-23 246 -267 246q-215 0 -432 -235q-262 -285 -262 -549q0 -90 50.5 -146.5t131.5 -56.5q147 0 294 205t147 375q0 57 -29 95t-74 38q-12 0 -16 -2h-8 q-8 0 -8 6q0 12 32 12q61 0 100.5 -52t39.5 -134q0 -199 -155 -380t-325 -181q-94 0 -151 68.5t-57 176.5q0 262 240.5 519.5t484.5 257.5q211 0 292 -158q7 30 7 55q0 100 -67 165t-171 65q-219 0 -442 -158q-213 -154 -351 -391q-143 -246 -143 -490zM1581 1675l90 62 q-18 -49 -18 -101q0 -109 57 -182l2 -4q6 -6 6 -10q-2 -4 -6 -4q-27 0 -68.5 75.5t-62.5 163.5z" />
<glyph unicode="&#xd3;" horiz-adv-x="1591" d="M502 401q0 176 96 360.5t264 328.5q143 121 324.5 199.5t320.5 78.5q129 0 205 -66.5t76 -179.5q0 -39 -8 -86q41 -100 41 -200q0 -166 -92.5 -337t-258.5 -313q-295 -252 -561 -252q-178 0 -292.5 131.5t-114.5 335.5zM598 309q0 -158 86 -257t223 -99q182 0 379 151 q190 147 316 369q133 231 135 449q-29 -63 -111 -154.5t-110 -91.5q-8 0 -9 8q0 4 15 14q66 45 128 121t87 139q-23 246 -267 246q-215 0 -432 -235q-262 -285 -262 -549q0 -90 50.5 -146.5t131.5 -56.5q147 0 294 205t147 375q0 57 -29 95t-74 38q-12 0 -16 -2h-8 q-8 0 -8 6q0 12 32 12q61 0 100.5 -52t39.5 -134q0 -199 -155 -380t-325 -181q-94 0 -151 68.5t-57 176.5q0 262 240.5 519.5t484.5 257.5q211 0 292 -158q7 30 7 55q0 100 -67 165t-171 65q-219 0 -442 -158q-213 -154 -351 -391q-143 -246 -143 -490zM1544 1473q0 2 12 8 q98 47 201 119.5t144 128.5l43 -68q-96 -72 -256 -141q-117 -51 -138 -52q-6 0 -6 5z" />
<glyph unicode="&#xd4;" horiz-adv-x="1583" d="M502 401q0 176 96 360.5t264 328.5q143 121 324.5 199.5t320.5 78.5q129 0 205 -66.5t76 -179.5q0 -39 -8 -86q41 -100 41 -200q0 -166 -92.5 -337t-258.5 -313q-295 -252 -561 -252q-178 0 -292.5 131.5t-114.5 335.5zM598 309q0 -158 86 -257t223 -99q182 0 379 151 q190 147 316 369q133 231 135 449q-29 -63 -111 -154.5t-110 -91.5q-8 0 -9 8q0 4 15 14q66 45 128 121t87 139q-23 246 -267 246q-215 0 -432 -235q-262 -285 -262 -549q0 -90 50.5 -146.5t131.5 -56.5q147 0 294 205t147 375q0 57 -29 95t-74 38q-12 0 -16 -2h-8 q-8 0 -8 6q0 12 32 12q61 0 100.5 -52t39.5 -134q0 -199 -155 -380t-325 -181q-94 0 -151 68.5t-57 176.5q0 262 240.5 519.5t484.5 257.5q211 0 292 -158q7 30 7 55q0 100 -67 165t-171 65q-219 0 -442 -158q-213 -154 -351 -391q-143 -246 -143 -490zM1409 1473q2 2 14 8 q111 47 226.5 121t162.5 127q-6 -74 -18 -250q0 -8 -4 -9q-4 2 -4 9q-6 102 -25 141q-59 -41 -186 -96.5t-160 -55.5q-6 0 -6 5z" />
<glyph unicode="&#xd5;" horiz-adv-x="1583" d="M502 401q0 176 96 360.5t264 328.5q143 121 324.5 199.5t320.5 78.5q129 0 205 -66.5t76 -179.5q0 -39 -8 -86q41 -100 41 -200q0 -166 -92.5 -337t-258.5 -313q-295 -252 -561 -252q-178 0 -292.5 131.5t-114.5 335.5zM598 309q0 -158 86 -257t223 -99q182 0 379 151 q190 147 316 369q133 231 135 449q-29 -63 -111 -154.5t-110 -91.5q-8 0 -9 8q0 4 15 14q66 45 128 121t87 139q-23 246 -267 246q-215 0 -432 -235q-262 -285 -262 -549q0 -90 50.5 -146.5t131.5 -56.5q147 0 294 205t147 375q0 57 -29 95t-74 38q-12 0 -16 -2h-8 q-8 0 -8 6q0 12 32 12q61 0 100.5 -52t39.5 -134q0 -199 -155 -380t-325 -181q-94 0 -151 68.5t-57 176.5q0 262 240.5 519.5t484.5 257.5q211 0 292 -158q7 30 7 55q0 100 -67 165t-171 65q-219 0 -442 -158q-213 -154 -351 -391q-143 -246 -143 -490zM1473 1511q0 6 50 37 t95 31q25 0 123 -23q88 -20 114 -20q35 0 60 16q8 4 10 4q6 -2 6 -4q0 -14 -57 -40.5t-86 -26.5q-31 0 -90 14l-21 4q-98 25 -127 25q-27 0 -57 -15q-8 -6 -14 -6t-6 4z" />
<glyph unicode="&#xd6;" horiz-adv-x="1583" d="M502 401q0 176 96 360.5t264 328.5q143 121 324.5 199.5t320.5 78.5q129 0 205 -66.5t76 -179.5q0 -39 -8 -86q41 -100 41 -200q0 -166 -92.5 -337t-258.5 -313q-295 -252 -561 -252q-178 0 -292.5 131.5t-114.5 335.5zM598 309q0 -158 86 -257t223 -99q182 0 379 151 q190 147 316 369q133 231 135 449q-29 -63 -111 -154.5t-110 -91.5q-8 0 -9 8q0 4 15 14q66 45 128 121t87 139q-23 246 -267 246q-215 0 -432 -235q-262 -285 -262 -549q0 -90 50.5 -146.5t131.5 -56.5q147 0 294 205t147 375q0 57 -29 95t-74 38q-12 0 -16 -2h-8 q-8 0 -8 6q0 12 32 12q61 0 100.5 -52t39.5 -134q0 -199 -155 -380t-325 -181q-94 0 -151 68.5t-57 176.5q0 262 240.5 519.5t484.5 257.5q211 0 292 -158q7 30 7 55q0 100 -67 165t-171 65q-219 0 -442 -158q-213 -154 -351 -391q-143 -246 -143 -490zM1456 1511 q0 35 31 65t65 30q45 0 45 -43q0 -39 -28.5 -69t-63.5 -30q-49 0 -49 47zM1630 1511q0 35 31 65t65 30q46 0 46 -43q0 -39 -29 -69t-64 -30q-49 0 -49 47z" />
<glyph unicode="&#xd7;" horiz-adv-x="1599" d="M455 680q0 289 200.5 487.5t491.5 198.5q276 0 475 -201.5t199 -482.5q0 -285 -200 -483.5t-484 -198.5q-283 0 -482.5 198.5t-199.5 481.5zM551 682q0 -244 171 -415t415 -171t415.5 171t171.5 413q0 248 -172 419t-422 171q-238 0 -408.5 -173t-170.5 -415z" />
<glyph unicode="&#xd8;" horiz-adv-x="1583" d="M502 401q0 176 96 360.5t264 328.5q141 121 323.5 199.5t319.5 78.5q100 0 170 -41l113 160h33l-123 -176q90 -66 90 -189q0 -39 -8 -86q41 -100 41 -200q0 -166 -92.5 -338t-255.5 -312q-295 -252 -566 -252q-76 0 -151 29l-119 -170h-35l127 182q-227 125 -227 426z M598 309q0 -205 150 -309l145 209q-145 57 -145 235q0 262 240.5 519.5t486.5 257.5q51 0 114 -17l76 109q-61 35 -131 35q-219 0 -442 -158q-213 -154 -351 -391q-143 -246 -143 -490zM770 -14q74 -33 135 -33q182 0 381 151q188 147 316 369q133 232 135 449 q-29 -63 -111 -154.5t-110 -91.5q-8 0 -9 8q0 4 15 14q66 45 128 121t87 139q-14 164 -131 220l-205 -291q35 -63 35 -125q0 -197 -154 -380t-317 -183q-18 0 -43 2zM776 420q0 -145 129 -195l467 666q-37 39 -76 39q-12 0 -16 -2h-8q-8 0 -8 6q0 12 32 12q53 0 86 -37 l197 279q-57 16 -106 16q-215 0 -435 -237q-262 -285 -262 -547zM934 219q10 -2 24 -2q152 0 296.5 204t144.5 378q0 35 -13 67zM1616 1194q109 -41 149 -131q7 30 7 55q0 113 -84 178z" />
<glyph unicode="&#xd9;" horiz-adv-x="1851" d="M299 547q0 330 344 598q133 104 290 167.5t281 63.5q152 0 236 -82t84 -227q0 -123 -60.5 -233.5t-304.5 -434.5q-106 -141 -139 -201.5t-33 -113.5q0 -49 30 -81t77 -32q152 0 416 302t688 958q53 -4 59 -4q39 0 96 10q-694 -952 -694 -1229q0 -68 44 -111.5t114 -43.5 q119 0 233 127q8 10 15 10q6 0 6 -8q0 -10 -35 -41q-119 -104 -219 -105q-96 0 -158.5 74t-62.5 186q0 195 198 506l-32 -43l-48 -65q-182 -254 -348 -396.5t-276 -142.5q-72 0 -116 52t-44 138q0 90 49 181.5t217 310.5q176 231 224.5 321.5t48.5 192.5q0 96 -71 151.5 t-191 55.5q-305 0 -588 -278.5t-283 -577.5q0 -113 63.5 -181.5t168.5 -68.5q201 0 383 225q193 238 192 432q0 166 -135 166q-137 0 -280.5 -162.5t-143.5 -318.5q0 -39 23.5 -67.5t56.5 -28.5h8q6 2 12 2q8 0 8 -8q0 -10 -20 -11q-57 0 -93 45t-36 117q0 150 153.5 300.5 t307.5 150.5q158 0 157 -183q0 -197 -188 -434q-193 -244 -405 -244q-125 0 -202 86.5t-77 227.5zM1833 1675l90 62q-18 -49 -18 -101q0 -109 57 -182l2 -4q6 -6 6 -10q-2 -4 -6 -4q-27 0 -69 75.5t-62 163.5z" />
<glyph unicode="&#xda;" horiz-adv-x="1851" d="M299 547q0 330 344 598q133 104 290 167.5t281 63.5q152 0 236 -82t84 -227q0 -123 -60.5 -233.5t-304.5 -434.5q-106 -141 -139 -201.5t-33 -113.5q0 -49 30 -81t77 -32q152 0 416 302t688 958q53 -4 59 -4q39 0 96 10q-694 -952 -694 -1229q0 -68 44 -111.5t114 -43.5 q119 0 233 127q8 10 15 10q6 0 6 -8q0 -10 -35 -41q-119 -104 -219 -105q-96 0 -158.5 74t-62.5 186q0 195 198 506l-32 -43l-48 -65q-182 -254 -348 -396.5t-276 -142.5q-72 0 -116 52t-44 138q0 90 49 181.5t217 310.5q176 231 224.5 321.5t48.5 192.5q0 96 -71 151.5 t-191 55.5q-305 0 -588 -278.5t-283 -577.5q0 -113 63.5 -181.5t168.5 -68.5q201 0 383 225q193 238 192 432q0 166 -135 166q-137 0 -280.5 -162.5t-143.5 -318.5q0 -39 23.5 -67.5t56.5 -28.5h8q6 2 12 2q8 0 8 -8q0 -10 -20 -11q-57 0 -93 45t-36 117q0 150 153.5 300.5 t307.5 150.5q158 0 157 -183q0 -197 -188 -434q-193 -244 -405 -244q-125 0 -202 86.5t-77 227.5zM1956 1473q0 2 12 8q98 47 200.5 119.5t143.5 128.5l43 -68q-96 -72 -256 -141q-117 -51 -137 -52q-6 0 -6 5z" />
<glyph unicode="&#xdb;" horiz-adv-x="1851" d="M299 547q0 330 344 598q133 104 290 167.5t281 63.5q152 0 236 -82t84 -227q0 -123 -60.5 -233.5t-304.5 -434.5q-106 -141 -139 -201.5t-33 -113.5q0 -49 30 -81t77 -32q152 0 416 302t688 958q53 -4 59 -4q39 0 96 10q-694 -952 -694 -1229q0 -68 44 -111.5t114 -43.5 q119 0 233 127q8 10 15 10q6 0 6 -8q0 -10 -35 -41q-119 -104 -219 -105q-96 0 -158.5 74t-62.5 186q0 195 198 506l-32 -43l-48 -65q-182 -254 -348 -396.5t-276 -142.5q-72 0 -116 52t-44 138q0 90 49 181.5t217 310.5q176 231 224.5 321.5t48.5 192.5q0 96 -71 151.5 t-191 55.5q-305 0 -588 -278.5t-283 -577.5q0 -113 63.5 -181.5t168.5 -68.5q201 0 383 225q193 238 192 432q0 166 -135 166q-137 0 -280.5 -162.5t-143.5 -318.5q0 -39 23.5 -67.5t56.5 -28.5h8q6 2 12 2q8 0 8 -8q0 -10 -20 -11q-57 0 -93 45t-36 117q0 150 153.5 300.5 t307.5 150.5q158 0 157 -183q0 -197 -188 -434q-193 -244 -405 -244q-125 0 -202 86.5t-77 227.5zM1788 1473q2 2 14 8q111 47 226.5 121t162.5 127q-6 -74 -18 -250q0 -8 -4 -9q-4 2 -4 9q-6 102 -25 141q-59 -41 -186 -96.5t-160 -55.5q-6 0 -6 5z" />
<glyph unicode="&#xdc;" horiz-adv-x="1851" d="M299 547q0 330 344 598q133 104 290 167.5t281 63.5q152 0 236 -82t84 -227q0 -123 -60.5 -233.5t-304.5 -434.5q-106 -141 -139 -201.5t-33 -113.5q0 -49 30 -81t77 -32q152 0 416 302t688 958q53 -4 59 -4q39 0 96 10q-694 -952 -694 -1229q0 -68 44 -111.5t114 -43.5 q119 0 233 127q8 10 15 10q6 0 6 -8q0 -10 -35 -41q-119 -104 -219 -105q-96 0 -158.5 74t-62.5 186q0 195 198 506l-32 -43l-48 -65q-182 -254 -348 -396.5t-276 -142.5q-72 0 -116 52t-44 138q0 90 49 181.5t217 310.5q176 231 224.5 321.5t48.5 192.5q0 96 -71 151.5 t-191 55.5q-305 0 -588 -278.5t-283 -577.5q0 -113 63.5 -181.5t168.5 -68.5q201 0 383 225q193 238 192 432q0 166 -135 166q-137 0 -280.5 -162.5t-143.5 -318.5q0 -39 23.5 -67.5t56.5 -28.5h8q6 2 12 2q8 0 8 -8q0 -10 -20 -11q-57 0 -93 45t-36 117q0 150 153.5 300.5 t307.5 150.5q158 0 157 -183q0 -197 -188 -434q-193 -244 -405 -244q-125 0 -202 86.5t-77 227.5zM1880 1511q0 35 31 65t65 30q45 0 45 -43q0 -39 -28.5 -69t-63.5 -30q-49 0 -49 47zM2054 1511q0 35 31 65t65 30q45 0 45 -43q0 -39 -28.5 -69t-63.5 -30q-49 0 -49 47z" />
<glyph unicode="&#xdd;" horiz-adv-x="1810" d="M229 580q0 297 319.5 546.5t637.5 249.5q150 0 237.5 -86t87.5 -233q0 -135 -61 -251t-287 -403q-33 -41 -69 -100q20 2 49 2q174 0 332 -90q129 127 321 367q223 279 381 407q123 100 152 101q10 -1 10 -13q0 -4 -21 -18q-289 -205 -559 -768q-74 -152 -127 -240 q41 -82 41 -170q0 -217 -194 -373q-106 -86 -146 -86q-8 0 -8 9q0 6 43 26q129 63 208 181t79 247q0 82 -33 150q-96 -158 -157.5 -231.5t-161.5 -149.5q-152 -117 -318 -184.5t-301 -67.5q-166 0 -267.5 90t-101.5 236q0 195 185.5 351.5t480.5 211.5q25 78 64.5 140.5 t173.5 234.5q233 301 233 464q0 109 -72.5 170.5t-201.5 61.5q-305 0 -605.5 -278.5t-300.5 -563.5q0 -111 70 -178.5t182 -67.5q180 0 361 168q109 102 175 225.5t66 225.5q0 66 -38.5 106.5t-102.5 40.5q-141 0 -297 -174t-156 -331q0 -45 24 -75t58 -30q4 0 13 2h4 q8 0 8 -6q0 -10 -21 -10q-53 0 -87.5 45t-34.5 112q0 170 158.5 327t328.5 157q72 0 116 -44t44 -120q0 -201 -204 -419t-419 -218q-131 0 -211 89t-80 235zM375 -319q0 -119 87 -190t230 -71q461 0 854 721q-29 27 -69 54q-209 -201 -340 -201q-76 0 -123 53t-47 139 q0 31 8 82q-258 -61 -429 -228t-171 -359zM1026 127q0 -117 113 -117q122 0 323 193q-139 84 -315 84q-37 0 -66 -2q-55 -94 -55 -158zM1489 207q41 -27 65 -51q12 25 78 139q54 92 148 244q-176 -217 -291 -332zM2005 1473q0 2 12 8q98 47 200.5 119.5t143.5 128.5l43 -68 q-96 -72 -256 -141q-117 -51 -137 -52q-6 0 -6 5z" />
<glyph unicode="&#xde;" horiz-adv-x="1554" d="M233 246q0 150 155 268.5t347 118.5q94 0 154.5 -43t60.5 -111q0 -27 -10 -26q-6 2 -6 8q0 4 2 12v8q0 59 -56.5 97t-142.5 38q-186 0 -335.5 -114.5t-149.5 -255.5q0 -121 88 -196t231 -75q238 0 439 203q59 61 112 135q47 70 234 365q129 205 299 387q-88 43 -185 49 q8 -33 9 -59q0 -88 -60.5 -196.5t-156.5 -190.5q-113 -98 -230 -99q-68 0 -111.5 44t-43.5 114q0 152 174 275.5t389 123.5h14q-49 143 -158 144q-37 0 -75 -17q-4 -2 -11 -2q-6 0 -6 6q0 8 33 17.5t66 9.5q115 0 165 -158q119 -6 205 -45q250 254 500 254q127 0 209 -80.5 t82 -205.5q0 -160 -31 -160q-6 2 -6 8q0 4 2 16q16 66 16 123q0 127 -75.5 204t-200.5 77q-256 0 -471 -248q178 -106 178 -272q0 -127 -103.5 -220.5t-246.5 -93.5q-39 0 -78 9.5t-39 19.5q0 8 8 8h2q47 -20 101 -20q109 0 186.5 94t77.5 227q0 141 -107 226 q-78 -102 -131 -196.5t-172 -346.5q-141 -299 -432 -445q-201 -100 -367 -100q-154 0 -248 79t-94 208zM915 696q0 -115 115 -114q139 0 286.5 163.5t147.5 319.5q0 18 -6 49q-195 0 -369 -134t-174 -284z" />
<glyph unicode="&#xdf;" horiz-adv-x="595" d="M-621 -483q0 10 11 10q14 0 41.5 -5t42.5 -5q156 0 311 164q76 80 127 162.5t246 443.5q74 137 135 241h-111l8 15h109q152 252 298 392t224 140q45 0 45 -49q0 -127 -211 -321q-117 -106 -116 -185q0 -59 61 -141q78 -102 78 -172q0 -90 -85 -158.5t-198 -68.5 q-152 0 -151 141q0 78 49 146.5t104 68.5q51 0 52 -49q0 -49 -92.5 -80t-92.5 -113q0 -41 29 -67.5t72 -26.5q78 0 149.5 95t71.5 202q0 55 -45 156q-31 70 -31 110q0 53 28.5 93t133.5 132q182 162 182 244q0 31 -31 31q-61 0 -159 -113q-121 -139 -304.5 -495.5t-294 -516 t-255.5 -282.5q-186 -156 -361 -156q-70 0 -70 17z" />
<glyph unicode="&#xe0;" horiz-adv-x="704" d="M104 137q0 193 271 340q119 66 192 66q61 0 62 -60q0 -18 -8 -45l51 97q31 -6 53 -7q27 0 70 7l-177 -293q-92 -154 -92 -203q0 -47 39 -47t127 91t180 226q4 10 11 10q6 0 6 -6q0 -20 -146 -194q-119 -141 -186 -142q-45 0 -74.5 34t-29.5 87t32 117 q-100 -139 -153 -188.5t-103 -49.5q-53 0 -89 45.5t-36 114.5zM178 57q0 -66 58 -65q70 0 239 229q139 188 139 258q0 49 -45 49q-92 0 -241.5 -180t-149.5 -291zM555 866l86 60q-16 -49 -16 -97q0 -104 55 -178q8 -8 8 -12q-2 -4 -6 -4q-25 0 -64.5 73.5t-62.5 157.5z" />
<glyph unicode="&#xe1;" horiz-adv-x="704" d="M104 137q0 193 271 340q119 66 192 66q61 0 62 -60q0 -18 -8 -45l51 97q31 -6 53 -7q27 0 70 7l-177 -293q-92 -154 -92 -203q0 -47 39 -47t127 91t180 226q4 10 11 10q6 0 6 -6q0 -20 -146 -194q-119 -141 -186 -142q-45 0 -74.5 34t-29.5 87t32 117 q-100 -139 -153 -188.5t-103 -49.5q-53 0 -89 45.5t-36 114.5zM178 57q0 -66 58 -65q70 0 239 229q139 188 139 258q0 49 -45 49q-92 0 -241.5 -180t-149.5 -291zM614 657q0 2 13 9q233 113 334 241l40 -63q-96 -76 -247 -139q-117 -49 -133 -50q-4 0 -7 2z" />
<glyph unicode="&#xe2;" horiz-adv-x="704" d="M104 137q0 193 271 340q119 66 192 66q61 0 62 -60q0 -18 -8 -45l51 97q31 -6 53 -7q27 0 70 7l-177 -293q-92 -154 -92 -203q0 -47 39 -47t127 91t180 226q4 10 11 10q6 0 6 -6q0 -20 -146 -194q-119 -141 -186 -142q-45 0 -74.5 34t-29.5 87t32 117 q-100 -139 -153 -188.5t-103 -49.5q-53 0 -89 45.5t-36 114.5zM178 57q0 -66 58 -65q70 0 239 229q139 188 139 258q0 49 -45 49q-92 0 -241.5 -180t-149.5 -291zM420 651q2 2 14 8q111 45 222.5 117t154.5 125q-10 -125 -16 -244q0 -8 -4 -8t-7 23q-6 86 -22 123 q-63 -41 -183 -94.5t-153 -53.5q-6 0 -6 4z" />
<glyph unicode="&#xe3;" horiz-adv-x="704" d="M104 137q0 193 271 340q119 66 192 66q61 0 62 -60q0 -18 -8 -45l51 97q31 -6 53 -7q27 0 70 7l-177 -293q-92 -154 -92 -203q0 -47 39 -47t127 91t180 226q4 10 11 10q6 0 6 -6q0 -20 -146 -194q-119 -141 -186 -142q-45 0 -74.5 34t-29.5 87t32 117 q-100 -139 -153 -188.5t-103 -49.5q-53 0 -89 45.5t-36 114.5zM178 57q0 -66 58 -65q70 0 239 229q139 188 139 258q0 49 -45 49q-92 0 -241.5 -180t-149.5 -291zM438 688q0 14 55.5 40t86.5 26q35 0 120 -21l45 -10q43 -10 66 -10q33 0 59 14q8 4 11 4q4 0 4 -4 q0 -14 -55.5 -39.5t-84.5 -25.5q-31 0 -88 14l-20 4q-94 25 -123 25q-23 0 -55 -15q-10 -6 -15 -6q-6 0 -6 4z" />
<glyph unicode="&#xe4;" horiz-adv-x="704" d="M104 137q0 193 271 340q119 66 192 66q61 0 62 -60q0 -18 -8 -45l51 97q31 -6 53 -7q27 0 70 7l-177 -293q-92 -154 -92 -203q0 -47 39 -47t127 91t180 226q4 10 11 10q6 0 6 -6q0 -20 -146 -194q-119 -141 -186 -142q-45 0 -74.5 34t-29.5 87t32 117 q-100 -139 -153 -188.5t-103 -49.5q-53 0 -89 45.5t-36 114.5zM178 57q0 -66 58 -65q70 0 239 229q139 188 139 258q0 49 -45 49q-92 0 -241.5 -180t-149.5 -291zM524 688q0 35 30 62.5t64 27.5q44 0 44 -41q0 -37 -28 -66.5t-61 -29.5q-49 0 -49 47zM694 686q0 35 30 63.5 t64 28.5q43 0 43 -41q0 -37 -27.5 -66.5t-60.5 -29.5q-49 0 -49 45z" />
<glyph unicode="&#xe5;" horiz-adv-x="704" d="M104 137q0 193 271 340q119 66 192 66q61 0 62 -60q0 -18 -8 -45l51 97q31 -6 53 -7q27 0 70 7l-177 -293q-92 -154 -92 -203q0 -47 39 -47t127 91t180 226q4 10 11 10q6 0 6 -6q0 -20 -146 -194q-119 -141 -186 -142q-45 0 -74.5 34t-29.5 87t32 117 q-100 -139 -153 -188.5t-103 -49.5q-53 0 -89 45.5t-36 114.5zM178 57q0 -66 58 -65q70 0 239 229q139 188 139 258q0 49 -45 49q-92 0 -241.5 -180t-149.5 -291zM618 694q0 59 52.5 113.5t109.5 54.5q54 0 54 -55q0 -59 -50.5 -114.5t-107.5 -55.5t-58 57zM641 688 q0 -33 29 -33q41 0 92 55.5t51 100.5q0 33 -31 33q-41 0 -91 -55.5t-50 -100.5z" />
<glyph unicode="&#xe6;" horiz-adv-x="901" d="M106 70q0 160 416 192q72 100 72 180q0 86 -100 86q-154 0 -299 -209q-14 -20 -21 -20q-4 2 -4 6q0 16 102 123q111 115 228 115q63 0 108 -36t56 -93q178 129 294 129q96 0 97 -86q0 -147 -410 -203q-70 -102 -70 -176q0 -86 99 -86q158 0 395 317q8 10 14 10q4 0 4 -4 q0 -14 -110 -139q-176 -199 -309 -199q-125 0 -164 127q-197 -127 -297 -127q-43 0 -72 27t-29 66zM172 29q0 -37 43 -37q53 0 137 72.5t164 185.5q-160 -25 -252 -84.5t-92 -136.5zM651 266q137 29 247 98t110 130q0 33 -45 32q-125 0 -312 -260z" />
<glyph unicode="&#xe7;" horiz-adv-x="495" d="M16 -84q0 6 7 6q6 0 16 -8q57 -39 111 -39q29 0 49 18.5t20 43.5q0 37 -37 71q-74 70 -73 148q0 86 67.5 175t183.5 156q96 55 158 56q74 0 74 -88q0 -70 -46 -138.5t-93 -68.5q-45 0 -45 45q0 53 90 98q74 37 73 92q0 45 -49 45q-84 0 -204.5 -165.5t-120.5 -278.5 q0 -92 88 -92q94 0 217 129q117 121 157 182q10 16 19 16q4 -2 4 -6q0 -16 -141 -168q-158 -168 -262 -168q-31 0 -74 19q76 -49 76 -96q0 -74 -86 -74q-39 0 -109 35t-70 55z" />
<glyph unicode="&#xe8;" horiz-adv-x="503" d="M109 154q0 180 251 317q131 72 215 72q35 0 61 -21.5t26 -52.5q0 -72 -93.5 -122t-314.5 -95q-68 -102 -68 -172q0 -86 93 -86q158 0 387 309q12 16 20 16q4 -2 4 -6t-18 -26l-43 -54q-207 -256 -355 -256q-72 0 -118.5 50.5t-46.5 126.5zM262 266q143 37 243.5 105 t100.5 127q0 33 -35 32q-53 0 -139 -73.5t-170 -190.5zM524 866l86 60q-16 -49 -16 -97q0 -104 55 -178q8 -8 8 -12q-2 -4 -6 -4q-25 0 -64.5 73.5t-62.5 157.5z" />
<glyph unicode="&#xe9;" horiz-adv-x="503" d="M109 154q0 180 251 317q131 72 215 72q35 0 61 -21.5t26 -52.5q0 -72 -93.5 -122t-314.5 -95q-68 -102 -68 -172q0 -86 93 -86q158 0 387 309q12 16 20 16q4 -2 4 -6t-18 -26l-43 -54q-207 -256 -355 -256q-72 0 -118.5 50.5t-46.5 126.5zM262 266q143 37 243.5 105 t100.5 127q0 33 -35 32q-53 0 -139 -73.5t-170 -190.5zM584 657q0 2 12 9q233 113 334 241l41 -63q-96 -76 -248 -139q-117 -49 -133 -50q-4 0 -6 2z" />
<glyph unicode="&#xea;" horiz-adv-x="503" d="M109 154q0 180 251 317q131 72 215 72q35 0 61 -21.5t26 -52.5q0 -72 -93.5 -122t-314.5 -95q-68 -102 -68 -172q0 -86 93 -86q158 0 387 309q12 16 20 16q4 -2 4 -6t-18 -26l-43 -54q-207 -256 -355 -256q-72 0 -118.5 50.5t-46.5 126.5zM262 266q143 37 243.5 105 t100.5 127q0 33 -35 32q-53 0 -139 -73.5t-170 -190.5zM391 651q2 2 15 8q111 45 222 117t154 125q-10 -125 -16 -244q0 -8 -4 -8t-6 23q-6 86 -23 123q-63 -41 -183 -94.5t-153 -53.5q-6 0 -6 4z" />
<glyph unicode="&#xeb;" horiz-adv-x="503" d="M109 154q0 180 251 317q131 72 215 72q35 0 61 -21.5t26 -52.5q0 -72 -93.5 -122t-314.5 -95q-68 -102 -68 -172q0 -86 93 -86q158 0 387 309q12 16 20 16q4 -2 4 -6t-18 -26l-43 -54q-207 -256 -355 -256q-72 0 -118.5 50.5t-46.5 126.5zM262 266q143 37 243.5 105 t100.5 127q0 33 -35 32q-53 0 -139 -73.5t-170 -190.5zM481 688q0 35 30 62.5t64 27.5q43 0 43 -41q0 -37 -27.5 -66.5t-60.5 -29.5q-49 0 -49 47zM651 686q0 35 30 63.5t64 28.5q43 0 43 -41q0 -37 -27.5 -66.5t-60.5 -29.5q-49 0 -49 45z" />
<glyph unicode="&#xec;" horiz-adv-x="344" d="M78 94q0 57 69 176l156 265q31 -6 49 -7q27 0 76 7l-227 -373q-49 -80 -49 -125t47 -45q90 0 313 317q4 10 10 10t6 -6q0 -4 -10 -16l-43 -59q-188 -260 -287 -261q-47 0 -78.5 33t-31.5 84zM328 866l86 60q-16 -49 -17 -97q0 -104 56 -178q8 -8 8 -12q-2 -4 -6 -4 q-25 0 -65 73.5t-62 157.5z" />
<glyph unicode="&#xed;" horiz-adv-x="344" d="M78 94q0 57 69 176l156 265q31 -6 49 -7q27 0 76 7l-227 -373q-49 -80 -49 -125t47 -45q90 0 313 317q4 10 10 10t6 -6q0 -4 -10 -16l-43 -59q-188 -260 -287 -261q-47 0 -78.5 33t-31.5 84zM387 657q0 2 12 9q233 113 334 241l41 -63q-96 -76 -248 -139 q-117 -49 -133 -50q-4 0 -6 2z" />
<glyph unicode="&#xee;" horiz-adv-x="344" d="M78 94q0 57 69 176l156 265q31 -6 49 -7q27 0 76 7l-227 -373q-49 -80 -49 -125t47 -45q90 0 313 317q4 10 10 10t6 -6q0 -4 -10 -16l-43 -59q-188 -260 -287 -261q-47 0 -78.5 33t-31.5 84zM195 651q2 2 14 8q111 45 222.5 117t154.5 125q-10 -125 -17 -244q0 -8 -4 -8 t-6 23q-6 86 -22 123q-63 -41 -183.5 -94.5t-152.5 -53.5q-6 0 -6 4z" />
<glyph unicode="&#xef;" horiz-adv-x="344" d="M78 94q0 57 69 176l156 265q31 -6 49 -7q27 0 76 7l-227 -373q-49 -80 -49 -125t47 -45q90 0 313 317q4 10 10 10t6 -6q0 -4 -10 -16l-43 -59q-188 -260 -287 -261q-47 0 -78.5 33t-31.5 84zM285 688q0 35 29.5 62.5t64.5 27.5q43 0 43 -41q0 -37 -27.5 -66.5 t-60.5 -29.5q-49 0 -49 47zM455 686q0 35 29.5 63.5t64.5 28.5q43 0 43 -41q0 -37 -27.5 -66.5t-60.5 -29.5q-49 0 -49 45z" />
<glyph unicode="&#xf0;" horiz-adv-x="593" d="M109 145q0 158 200 299q141 98 234 99q90 0 90 -92q0 -12 -6 -50q68 176 67 322q0 84 -22 158l-156 -58l-4 15l154 57q-47 133 -160 152q-14 2 -14 8q2 4 8 4q100 0 198 -152l148 54l4 -17l-143 -51q66 -129 65 -277q0 -270 -215 -479q-164 -160 -295 -160 q-66 0 -109.5 48.5t-43.5 119.5zM190 66q0 -72 70 -72q94 0 225 169t131 290q0 78 -75 77q-90 0 -220.5 -173t-130.5 -291z" />
<glyph unicode="&#xf1;" horiz-adv-x="800" d="M127 -14l156 247q133 211 133 265q0 31 -25 30q-51 0 -201 -215q-10 -12 -14 -14q-6 0 -6 6q0 4 4 8l19 25q154 205 206 205q33 0 57.5 -31t24.5 -74q0 -63 -75 -178q119 162 182 222.5t117 60.5q45 0 74.5 -36t29.5 -89q0 -66 -93 -206t-93 -179q0 -41 41 -41 q90 0 307 317q4 10 10 10t6 -6q0 -20 -145 -194q-119 -141 -187 -142q-45 0 -75.5 35t-30.5 86q0 45 18.5 83t98 156t79.5 150q0 41 -43 41q-145 0 -450 -542q-49 4 -59 4q-35 0 -66 -4zM500 688q0 14 55 40t86 26q35 0 121 -21l45 -10q43 -10 65 -10q33 0 60 14q8 4 10 4 q4 0 4 -4q0 -14 -55 -39.5t-84 -25.5q-31 0 -88 14l-21 4q-94 25 -123 25q-23 0 -55 -15q-10 -6 -14 -6q-6 0 -6 4z" />
<glyph unicode="&#xf2;" horiz-adv-x="593" d="M109 145q0 154 202 297q141 100 234 101q86 0 86 -92q0 -115 -121 -277q20 -12 45 -12q45 0 104.5 42t98.5 101q12 14 16 14t4 -4q0 -16 -59 -75q-88 -88 -162 -88q-31 0 -55 12q-131 -186 -248 -187q-59 0 -102 49.5t-43 118.5zM190 63q0 -70 66 -69q109 0 236 178 q-29 31 -29 66q0 49 39 101t76 52q16 0 22 -20q16 35 16 78q0 82 -73 81q-90 0 -221.5 -174t-131.5 -293zM547 866l86 60q-16 -49 -17 -97q0 -104 56 -178q8 -8 8 -12q-2 -4 -6 -4q-25 0 -65 73.5t-62 157.5z" />
<glyph unicode="&#xf3;" horiz-adv-x="593" d="M109 145q0 154 202 297q141 100 234 101q86 0 86 -92q0 -115 -121 -277q20 -12 45 -12q45 0 104.5 42t98.5 101q12 14 16 14t4 -4q0 -16 -59 -75q-88 -88 -162 -88q-31 0 -55 12q-131 -186 -248 -187q-59 0 -102 49.5t-43 118.5zM190 63q0 -70 66 -69q109 0 236 178 q-29 31 -29 66q0 49 39 101t76 52q16 0 22 -20q16 35 16 78q0 82 -73 81q-90 0 -221.5 -174t-131.5 -293zM559 657q0 2 12 9q233 113 334 241l41 -63q-96 -76 -248 -139q-117 -49 -133 -50q-4 0 -6 2z" />
<glyph unicode="&#xf4;" horiz-adv-x="593" d="M109 145q0 154 202 297q141 100 234 101q86 0 86 -92q0 -115 -121 -277q20 -12 45 -12q45 0 104.5 42t98.5 101q12 14 16 14t4 -4q0 -16 -59 -75q-88 -88 -162 -88q-31 0 -55 12q-131 -186 -248 -187q-59 0 -102 49.5t-43 118.5zM190 63q0 -70 66 -69q109 0 236 178 q-29 31 -29 66q0 49 39 101t76 52q16 0 22 -20q16 35 16 78q0 82 -73 81q-90 0 -221.5 -174t-131.5 -293zM389 651q2 2 14 8q111 45 222.5 117t154.5 125q-10 -125 -16 -244q0 -8 -4 -8t-6 23q-6 86 -23 123q-63 -41 -183 -94.5t-153 -53.5q-6 0 -6 4z" />
<glyph unicode="&#xf5;" horiz-adv-x="593" d="M109 145q0 154 202 297q141 100 234 101q86 0 86 -92q0 -115 -121 -277q20 -12 45 -12q45 0 104.5 42t98.5 101q12 14 16 14t4 -4q0 -16 -59 -75q-88 -88 -162 -88q-31 0 -55 12q-131 -186 -248 -187q-59 0 -102 49.5t-43 118.5zM190 63q0 -70 66 -69q109 0 236 178 q-29 31 -29 66q0 49 39 101t76 52q16 0 22 -20q16 35 16 78q0 82 -73 81q-90 0 -221.5 -174t-131.5 -293zM385 688q0 14 55.5 40t85.5 26q35 0 121 -21l45 -10q43 -10 66 -10q33 0 59 14q8 4 10 4q4 0 4 -4q0 -14 -55 -39.5t-84 -25.5q-31 0 -88 14l-20 4q-94 25 -123 25 q-23 0 -55 -15q-10 -6 -15 -6q-6 0 -6 4z" />
<glyph unicode="&#xf6;" horiz-adv-x="593" d="M109 145q0 154 202 297q141 100 234 101q86 0 86 -92q0 -115 -121 -277q20 -12 45 -12q45 0 104.5 42t98.5 101q12 14 16 14t4 -4q0 -16 -59 -75q-88 -88 -162 -88q-31 0 -55 12q-131 -186 -248 -187q-59 0 -102 49.5t-43 118.5zM190 63q0 -70 66 -69q109 0 236 178 q-29 31 -29 66q0 49 39 101t76 52q16 0 22 -20q16 35 16 78q0 82 -73 81q-90 0 -221.5 -174t-131.5 -293zM467 688q0 35 29.5 62.5t64.5 27.5q43 0 43 -41q0 -37 -27.5 -66.5t-60.5 -29.5q-49 0 -49 47zM637 686q0 35 29.5 63.5t64.5 28.5q43 0 43 -41q0 -37 -27.5 -66.5 t-60.5 -29.5q-49 0 -49 45z" />
<glyph unicode="&#xf7;" horiz-adv-x="1366" d="M387 887h483l152 467l152 -467h483l-391 -287l143 -461l-387 285l-387 -285l143 461z" />
<glyph unicode="&#xf8;" horiz-adv-x="593" d="M109 145q0 154 202 299q137 98 230 99q12 0 22 -2l76 118h23l-80 -122q49 -27 49 -86q0 -115 -121 -277q20 -12 45 -12q104 0 201 141q10 16 18 16q4 0 4 -4q0 -16 -59 -77q-84 -86 -162 -86q-31 0 -55 12q-131 -186 -244 -187q-18 0 -31 3l-82 -125h-24l86 131 q-98 47 -98 159zM190 63q0 -31 29 -59l336 524q-6 2 -16 2q-86 0 -217.5 -175t-131.5 -292zM238 -4q10 -2 24 -2q102 0 230 178q-29 31 -29 66q0 49 39 101t76 52q16 0 22 -20q16 35 16 78q0 53 -41 75z" />
<glyph unicode="&#xf9;" horiz-adv-x="641" d="M78 96q0 57 45 133l182 306q35 -6 53 -7q18 0 68 7l-238 -392q-37 -61 -36 -106q0 -45 38 -45q100 0 324 377l98 166q31 -6 52 -7q27 0 71 7l-160 -261q-115 -186 -114 -239q0 -43 41 -43q80 0 260 252l31 43l18 22q4 10 10 10t6 -6q0 -23 -145 -194q-121 -141 -190 -142 q-43 0 -74 35t-31 86q0 39 39 109l-20 -27q-92 -119 -134 -157q-49 -45 -90 -46q-45 0 -74.5 34t-29.5 85zM455 866l86 60q-16 -49 -17 -97q0 -104 56 -178q8 -8 8 -12q-2 -4 -6 -4q-25 0 -65 73.5t-62 157.5z" />
<glyph unicode="&#xfa;" horiz-adv-x="641" d="M78 96q0 57 45 133l182 306q35 -6 53 -7q18 0 68 7l-238 -392q-37 -61 -36 -106q0 -45 38 -45q100 0 324 377l98 166q31 -6 52 -7q27 0 71 7l-160 -261q-115 -186 -114 -239q0 -43 41 -43q80 0 260 252l31 43l18 22q4 10 10 10t6 -6q0 -23 -145 -194q-121 -141 -190 -142 q-43 0 -74 35t-31 86q0 39 39 109l-20 -27q-92 -119 -134 -157q-49 -45 -90 -46q-45 0 -74.5 34t-29.5 85zM537 657q0 2 12 9q233 113 334 241l41 -63q-96 -76 -248 -139q-117 -49 -133 -50q-4 0 -6 2z" />
<glyph unicode="&#xfb;" horiz-adv-x="641" d="M78 96q0 57 45 133l182 306q35 -6 53 -7q18 0 68 7l-238 -392q-37 -61 -36 -106q0 -45 38 -45q100 0 324 377l98 166q31 -6 52 -7q27 0 71 7l-160 -261q-115 -186 -114 -239q0 -43 41 -43q80 0 260 252l31 43l18 22q4 10 10 10t6 -6q0 -23 -145 -194q-121 -141 -190 -142 q-43 0 -74 35t-31 86q0 39 39 109l-20 -27q-92 -119 -134 -157q-49 -45 -90 -46q-45 0 -74.5 34t-29.5 85zM356 651q2 2 15 8q111 45 222.5 117t154.5 125q-10 -125 -17 -244q0 -8 -4 -8t-6 23q-6 86 -23 123q-63 -41 -183 -94.5t-153 -53.5q-6 0 -6 4z" />
<glyph unicode="&#xfc;" horiz-adv-x="641" d="M78 96q0 57 45 133l182 306q35 -6 53 -7q18 0 68 7l-238 -392q-37 -61 -36 -106q0 -45 38 -45q100 0 324 377l98 166q31 -6 52 -7q27 0 71 7l-160 -261q-115 -186 -114 -239q0 -43 41 -43q80 0 260 252l31 43l18 22q4 10 10 10t6 -6q0 -23 -145 -194q-121 -141 -190 -142 q-43 0 -74 35t-31 86q0 39 39 109l-20 -27q-92 -119 -134 -157q-49 -45 -90 -46q-45 0 -74.5 34t-29.5 85zM446 688q0 35 30 62.5t65 27.5q43 0 43 -41q0 -37 -28 -66.5t-60 -29.5q-49 0 -50 47zM616 686q0 35 30 63.5t65 28.5q43 0 43 -41q0 -37 -28 -66.5t-60 -29.5 q-49 0 -50 45z" />
<glyph unicode="&#xfd;" horiz-adv-x="630" d="M-344 -582q0 201 463 416q39 18 114 53l15 9l176 313q-104 -143 -151.5 -187.5t-94.5 -44.5q-41 0 -71.5 35t-30.5 82q0 57 71 178l154 260q23 -4 53 -4q27 0 72 7l-197 -320q-84 -137 -84 -178q0 -45 41 -45q109 0 332 383l92 157q23 -4 56 -4q29 0 67 7 q-125 -197 -336 -578q121 63 205 137t189 207q14 18 18 18q6 0 6 -6q0 -16 -110 -137q-121 -133 -318 -242l-49 -88q-145 -260 -303 -387q-164 -131 -283 -131q-41 0 -68.5 25.5t-27.5 64.5zM-330 -584q0 -76 84 -75q106 0 211 115.5t260 402.5q1 0 13 20q-16 -8 -113 -57 q-455 -225 -455 -406zM530 657q0 2 13 9q233 113 334 241l41 -63q-96 -76 -248 -139q-117 -49 -133 -50q-4 0 -7 2z" />
<glyph unicode="&#xfe;" horiz-adv-x="534" d="M-367 -557l967 1569q27 -8 57 -8q25 0 62 6l-443 -697q106 141 155.5 185.5t96.5 44.5q53 0 89 -46t36 -114q0 -164 -202 -297q-164 -109 -258 -109q-63 0 -64 60q0 18 10 49l-383 -639q-35 8 -57 8q-33 0 -66 -12zM143 43q0 -51 47 -51q92 0 241 179t149 292 q0 66 -58 65q-74 0 -246 -235q-133 -182 -133 -250z" />
<glyph unicode="&#xff;" horiz-adv-x="630" d="M-344 -582q0 201 463 416q39 18 114 53l15 9l176 313q-104 -143 -151.5 -187.5t-94.5 -44.5q-41 0 -71.5 35t-30.5 82q0 57 71 178l154 260q23 -4 53 -4q27 0 72 7l-197 -320q-84 -137 -84 -178q0 -45 41 -45q109 0 332 383l92 157q23 -4 56 -4q29 0 67 7 q-125 -197 -336 -578q121 63 205 137t189 207q14 18 18 18q6 0 6 -6q0 -16 -110 -137q-121 -133 -318 -242l-49 -88q-145 -260 -303 -387q-164 -131 -283 -131q-41 0 -68.5 25.5t-27.5 64.5zM-330 -584q0 -76 84 -75q106 0 211 115.5t260 402.5q1 0 13 20q-16 -8 -113 -57 q-455 -225 -455 -406zM438 688q0 35 30 62.5t64 27.5q43 0 43 -41q0 -37 -27.5 -66.5t-60.5 -29.5q-49 0 -49 47zM608 686q0 35 30 63.5t64 28.5q43 0 43 -41q0 -37 -27.5 -66.5t-60.5 -29.5q-49 0 -49 45z" />
<glyph unicode="&#x152;" horiz-adv-x="2392" d="M502 401q0 174 96 358.5t264 327.5q147 127 326.5 203t331.5 76q98 0 180 -25q76 -23 235 -100q37 -18 129 -57q145 61 308 61q135 0 231 -37t96 -88q0 -68 -123 -67q-98 0 -458 90q-170 -94 -170 -242q0 -74 49 -102q68 8 106 8q104 0 105 -25q0 -16 -58 -16 q-61 0 -149 20q-86 -12 -189 -55q-57 -346 -419 -608q47 -80 133 -113t243 -33q-53 84 -53 185q0 188 156 325q184 164 395 164q113 0 177.5 -55t64.5 -150q0 -182 -212 -328.5t-491 -156.5q96 -117 273 -117q133 0 235 58q6 6 13 6q8 0 8 -8q0 -20 -89 -46t-159 -26 q-178 0 -305 129q-301 -2 -439 131q-246 -154 -434 -154q-178 0 -292.5 131.5t-114.5 335.5zM598 307q0 -158 87 -256t224 -98q195 0 414 158q-63 84 -63 170q0 158 143 289.5t379 191.5q14 74 14 131q0 139 -88 224t-231 85q-219 0 -439 -235q-262 -283 -262 -547 q0 -90 51.5 -146.5t133.5 -56.5q92 0 204 74q8 6 15 6q8 0 8 -8q0 -20 -90 -55t-146 -35q-90 0 -147 68.5t-57 176.5q0 264 240.5 520.5t488.5 256.5q158 0 252 -99.5t94 -265.5q0 -14 -6 -86q72 16 159 27q-111 47 -110 147q0 140 178 230q-49 16 -117 49 q-246 119 -387 118q-223 0 -446 -157q-215 -150 -353 -387q-143 -246 -143 -490zM1366 242q0 -45 14 -88q137 106 244.5 262t144.5 299q-403 -188 -403 -473zM1759 117q0 -76 37 -137q238 0 464 156.5t226 322.5q0 76 -55 122t-145 46q-178 0 -352.5 -147.5t-174.5 -362.5z M2140 1157q266 -86 445 -86q94 0 94 51q0 39 -83 69t-190 30q-145 0 -266 -64z" />
<glyph unicode="&#x153;" horiz-adv-x="851" d="M109 141q0 172 217 310q147 92 237 92q72 0 72 -80q0 -18 -4 -37q168 117 274 117q74 0 74 -70q0 -131 -385 -219q-68 -106 -68 -174q0 -88 97 -88q117 0 264 160q84 92 135 159q6 8 8 8q6 0 6 -4q0 -6 -84 -108q-188 -229 -336 -230q-129 0 -161 127 q-109 -127 -207 -127q-61 0 -100 46.5t-39 117.5zM184 68q0 -76 66 -76q98 0 199 147q0 139 151 264q21 41 21 66q0 59 -58 59q-90 0 -234.5 -175t-144.5 -285zM604 268q139 39 235.5 106t96.5 124q0 31 -31 30q-113 0 -301 -260z" />
<glyph unicode="&#x178;" horiz-adv-x="1810" d="M229 580q0 297 319.5 546.5t637.5 249.5q150 0 237.5 -86t87.5 -233q0 -135 -61 -251t-287 -403q-33 -41 -69 -100q20 2 49 2q174 0 332 -90q129 127 321 367q223 279 381 407q123 100 152 101q10 -1 10 -13q0 -4 -21 -18q-289 -205 -559 -768q-74 -152 -127 -240 q41 -82 41 -170q0 -217 -194 -373q-106 -86 -146 -86q-8 0 -8 9q0 6 43 26q129 63 208 181t79 247q0 82 -33 150q-96 -158 -157.5 -231.5t-161.5 -149.5q-152 -117 -318 -184.5t-301 -67.5q-166 0 -267.5 90t-101.5 236q0 195 185.5 351.5t480.5 211.5q25 78 64.5 140.5 t173.5 234.5q233 301 233 464q0 109 -72.5 170.5t-201.5 61.5q-305 0 -605.5 -278.5t-300.5 -563.5q0 -111 70 -178.5t182 -67.5q180 0 361 168q109 102 175 225.5t66 225.5q0 66 -38.5 106.5t-102.5 40.5q-141 0 -297 -174t-156 -331q0 -45 24 -75t58 -30q4 0 13 2h4 q8 0 8 -6q0 -10 -21 -10q-53 0 -87.5 45t-34.5 112q0 170 158.5 327t328.5 157q72 0 116 -44t44 -120q0 -201 -204 -419t-419 -218q-131 0 -211 89t-80 235zM375 -319q0 -119 87 -190t230 -71q461 0 854 721q-29 27 -69 54q-209 -201 -340 -201q-76 0 -123 53t-47 139 q0 31 8 82q-258 -61 -429 -228t-171 -359zM1026 127q0 -117 113 -117q122 0 323 193q-139 84 -315 84q-37 0 -66 -2q-55 -94 -55 -158zM1489 207q41 -27 65 -51q12 25 78 139q54 92 148 244q-176 -217 -291 -332zM1905 1511q0 35 30.5 65t65.5 30q45 0 45 -43 q0 -39 -28.5 -69t-63.5 -30q-49 0 -49 47zM2079 1511q0 35 30.5 65t65.5 30q45 0 45 -43q0 -39 -28.5 -69t-63.5 -30q-49 0 -49 47z" />
<glyph unicode="&#x2c6;" horiz-adv-x="1024" d="M582 651q2 2 14 8q111 45 222.5 117t154.5 125q-10 -125 -17 -244q0 -8 -4 -8t-6 23q-6 86 -22 123q-63 -41 -183 -94.5t-153 -53.5q-6 0 -6 4z" />
<glyph unicode="&#x2dc;" horiz-adv-x="1024" d="M635 688q0 14 55 40t86 26q35 0 121 -21l45 -10q43 -10 66 -10q33 0 59 14q8 4 10 4q4 0 4 -4q0 -14 -55 -39.5t-84 -25.5q-31 0 -88 14l-20 4q-94 25 -123 25q-23 0 -56 -15q-10 -6 -14 -6q-6 0 -6 4z" />
<glyph unicode="&#x2000;" horiz-adv-x="868" />
<glyph unicode="&#x2001;" horiz-adv-x="1737" />
<glyph unicode="&#x2002;" horiz-adv-x="868" />
<glyph unicode="&#x2003;" horiz-adv-x="1737" />
<glyph unicode="&#x2004;" horiz-adv-x="579" />
<glyph unicode="&#x2005;" horiz-adv-x="434" />
<glyph unicode="&#x2006;" horiz-adv-x="289" />
<glyph unicode="&#x2007;" horiz-adv-x="289" />
<glyph unicode="&#x2008;" horiz-adv-x="217" />
<glyph unicode="&#x2009;" horiz-adv-x="347" />
<glyph unicode="&#x200a;" horiz-adv-x="96" />
<glyph unicode="&#x2010;" horiz-adv-x="733" d="M274 213q0 12 78 39t113 27q20 0 86 -15q55 -12 80 -12q47 0 88 20q6 4 10 4t4 -4q0 -12 -82 -37.5t-125 -25.5q-41 0 -84 10q-51 12 -77 12q-41 0 -80 -20q-2 -2 -6 -2t-5 4z" />
<glyph unicode="&#x2011;" horiz-adv-x="733" d="M274 213q0 12 78 39t113 27q20 0 86 -15q55 -12 80 -12q47 0 88 20q6 4 10 4t4 -4q0 -12 -82 -37.5t-125 -25.5q-41 0 -84 10q-51 12 -77 12q-41 0 -80 -20q-2 -2 -6 -2t-5 4z" />
<glyph unicode="&#x2012;" horiz-adv-x="733" d="M274 213q0 12 78 39t113 27q20 0 86 -15q55 -12 80 -12q47 0 88 20q6 4 10 4t4 -4q0 -12 -82 -37.5t-125 -25.5q-41 0 -84 10q-51 12 -77 12q-41 0 -80 -20q-2 -2 -6 -2t-5 4z" />
<glyph unicode="&#x2013;" horiz-adv-x="911" d="M274 215q0 20 105.5 55t163.5 35q43 0 131 -26q74 -23 114 -23q49 0 105 23q10 4 12 4q4 0 4 -4q-2 -6 -12 -9l-39 -16q-92 -39 -166 -39q-39 0 -162 25q-61 12 -102 12q-88 0 -141 -37q-4 -4 -8 -4t-5 4z" />
<glyph unicode="&#x2014;" horiz-adv-x="1222" d="M268 215q0 23 133.5 63.5t208.5 40.5q61 0 228 -38q131 -31 200 -31q63 0 160 29q12 4 19 4q6 0 6 -4t-62 -29q-123 -47 -203 -47q-68 0 -184 24q-184 39 -268 39q-133 0 -219 -51q-6 -4 -13 -4q-6 2 -6 4z" />
<glyph unicode="&#x2018;" horiz-adv-x="428" d="M522 803q0 57 81 147t132 90q6 0 6 -6q0 -4 -18 -12q-37 -14 -67.5 -41t-30.5 -45q0 -6 10 -6q45 0 45 -43q0 -39 -41 -83t-76 -44q-41 0 -41 43z" />
<glyph unicode="&#x2019;" horiz-adv-x="428" d="M514 766q0 6 8 8q109 41 109 90q0 6 -10 6q-45 0 -46 43q0 39 41 83t76 44q41 0 41 -43q0 -68 -74 -147q-29 -31 -74.5 -60.5t-64.5 -29.5q-6 0 -6 6z" />
<glyph unicode="&#x201a;" horiz-adv-x="428" d="M78 -111q0 6 8 9q41 14 75 41.5t34 48.5q0 6 -11 6q-45 0 -45 43q0 39 41 83t76 44q41 0 41 -43q0 -68 -74 -148q-29 -31 -75 -60.5t-64 -29.5q-6 0 -6 6z" />
<glyph unicode="&#x201c;" horiz-adv-x="616" d="M522 803q0 57 81 147t132 90q6 0 6 -6q0 -4 -18 -12q-37 -14 -67.5 -41t-30.5 -45q0 -6 10 -6q45 0 45 -43q0 -39 -41 -83t-76 -44q-41 0 -41 43zM711 803q0 57 80.5 147t132.5 90q6 0 6 -6t-8 -8q-109 -41 -109 -90q0 -6 10 -6q45 0 45 -43q0 -39 -41 -83t-75 -44 q-41 0 -41 43z" />
<glyph unicode="&#x201d;" horiz-adv-x="616" d="M510 766q0 6 8 8q109 41 109 90q0 6 -11 6q-45 0 -45 43q0 39 41 83t76 44q41 0 41 -43q0 -68 -74 -147q-29 -31 -74.5 -60.5t-64.5 -29.5q-6 0 -6 6zM705 766q0 4 20 12q35 12 65.5 40t30.5 46q0 6 -10 6q-43 0 -43 41t40 85t77 44q41 0 41 -43q0 -94 -111 -182 q-70 -55 -104 -55q-6 0 -6 6z" />
<glyph unicode="&#x201e;" horiz-adv-x="616" d="M74 -111q0 6 8 9q41 14 74.5 41.5t33.5 48.5q0 6 -10 6q-45 0 -45 43q0 39 41 83t76 44q41 0 41 -43q0 -68 -74 -148q-29 -31 -75 -60.5t-64 -29.5q-6 0 -6 6zM268 -111q0 4 8 9q109 41 109 90q0 6 -4 6h-10q-39 0 -39 41t40 85t77 44q40 0 40 -43q0 -94 -110 -182 q-70 -55 -105 -56q-6 0 -6 6z" />
<glyph unicode="&#x2022;" horiz-adv-x="1370" d="M741 721q0 125 86 210t213 85q119 0 205 -87t86 -208q0 -123 -86 -209t-209 -86t-209 86t-86 209z" />
<glyph unicode="&#x2026;" horiz-adv-x="1368" d="M229 35q0 41 43 82t86 41q39 0 39 -41q0 -45 -41 -86t-84 -41t-43 45zM686 33q0 43 42 84t87 41q39 0 39 -41q0 -45 -41 -86t-84 -41t-43 43zM1141 33q0 43 43 84t86 41q39 0 39 -41q0 -43 -41 -85t-84 -42t-43 43z" />
<glyph unicode="&#x202f;" horiz-adv-x="347" />
<glyph unicode="&#x2039;" horiz-adv-x="509" d="M207 238q164 29 407 198q4 4 9 4l2 -2q0 -8 -104.5 -88t-207.5 -125l15 -12l41 -33l41 -35l30 -24q10 -6 19 -15q0 -4 -4 -4q-6 0 -64 33q-27 16 -59 33q-45 25 -125 70z" />
<glyph unicode="&#x203a;" horiz-adv-x="509" d="M113 88q0 16 128 92t189 94q-92 82 -151 127q-4 4 -5 7l2 2q6 -2 81 -44.5t186 -103.5q-176 -33 -408 -166q-18 -10 -20 -10z" />
<glyph unicode="&#x205f;" horiz-adv-x="434" />
<glyph unicode="&#x2122;" horiz-adv-x="1587" d="M385 760q0 61 53 61q37 0 37 -37q0 -41 -39 -41q-23 0 -26 25q-2 6 -2 10q-6 -6 -7 -16q0 -41 41 -68.5t105 -27.5q109 0 184.5 61t186.5 244q117 190 272 268q-215 43 -270 43q-133 0 -251 -98.5t-118 -208.5q0 -80 78 -80q57 0 123 51q6 6 12 6t8 -6q0 -14 -55 -39.5 t-88 -25.5q-39 0 -65.5 27.5t-26.5 68.5q0 70 61 152.5t152 130.5q111 59 251 59q35 0 97 -12q111 -23 149 -29l13 -2l10 4q127 47 217 47q115 0 115 -45q0 -31 -55.5 -51.5t-139.5 -20.5q-72 0 -197 25q-113 -55 -221 -268q-57 -111 -87 -151t-79 -75q-129 -92 -266 -92 q-76 0 -124 31t-48 80zM913 756q0 63 56 63q35 0 35 -35q0 -41 -37 -41q-25 0 -29 35q-6 -12 -6 -18q0 -96 145 -96q131 0 260 133q68 70 228 329q45 72 102 132.5t82 60.5q6 0 6 -6q0 -2 -6 -10q-43 -55 -78 -187q-55 -203 -102 -291t-129 -139q72 39 128 99.5t185 232.5 q137 182 232.5 252.5t209.5 70.5q90 0 146.5 -48t56.5 -126q0 -57 -16 -57q-6 0 -6 6q0 2 2 4q6 16 6 47q0 63 -53.5 107.5t-128.5 44.5q-125 0 -256 -119q-82 -76 -234 -268q-176 -227 -297 -268l-10 -2q-2 -2 -6 -3q-6 0 -6 5q0 4 12 12q76 53 141 254q92 283 172 358 q-84 -72 -194.5 -279.5t-224 -283.5t-222.5 -76q-72 0 -118 30t-46 77zM1288 1272q131 -27 205 -27q96 0 96 35q0 33 -98 33q-86 0 -203 -41zM1495 662q0 16 39 16q20 0 63 -6q90 31 179 196q104 195 166.5 277t148.5 137q41 27 55 27q6 0 6 -6q0 -4 -14 -13 q-104 -55 -207 -266q-84 -172 -145.5 -244.5t-161.5 -111.5q37 -4 55 -4q78 0 133.5 37.5t126.5 138.5q6 8 11 8q6 -2 6 -6q0 -8 -60 -78q-96 -113 -210 -113q-37 0 -91 8q-33 -10 -67 -10q-33 0 -33 13z" />
<glyph unicode="&#x25fc;" horiz-adv-x="542" d="M0 0v543h543v-543h-543z" />
</font>
</defs>
</svg>
